<svg width="46" height="46" viewBox="0 0 46 46" fill="none" xmlns="http://www.w3.org/2000/svg">
  <g filter="url(#filter0_bd_330_1845)">
    <path d="M39 21C39 29.8366 31.8366 37 23 37C14.1634 37 7 29.8366 7 21C7 12.1634 14.1634 5 23 5C31.8366 5 39 12.1634 39 21Z" fill="url(#paint0_linear_330_1845)" shape-rendering="crispEdges"/>
    <path d="M20.5062 13.3375C19.9812 13.9062 19.3687 15.175 19.1062 16.1375C18.6687 17.7125 18.3625 18.0625 16.525 18.85C12.2812 20.6875 12.0625 21.7375 15.475 23.3125C17.9687 24.4938 18.1875 24.8 18.1875 27.0312C18.2312 30.1375 19.325 33.5937 19.8062 32.15C19.9375 31.8875 20.2875 31.625 20.5937 31.625C21.25 31.625 23.875 28.475 23.875 27.6875C23.875 27.3375 24.1812 27.2937 24.6625 27.4688C27.2 28.5188 29.2125 29.0438 30.0875 28.9125C30.9625 28.7813 31.0937 28.5625 30.9625 27.25C30.875 26.4187 30.525 24.8875 30.175 23.925L29.475 22.0875L31.05 19.9875C31.925 18.8062 32.8437 17.5812 33.15 17.2312C33.9375 16.2687 32.6687 15.875 29.5187 16.1812L26.6312 16.4437L24.75 14.3875C22.65 12.1125 21.8187 11.9375 20.5062 13.3375Z" fill="white" shape-rendering="crispEdges"/>
    <path d="M23 38.5C32.665 38.5 40.5 30.665 40.5 21C40.5 11.335 32.665 3.5 23 3.5C13.335 3.5 5.5 11.335 5.5 21C5.5 30.665 13.335 38.5 23 38.5Z" stroke="#D6D6D6" stroke-opacity="0.45" stroke-width="3" style="mix-blend-mode:color-burn" shape-rendering="crispEdges"/>
    <path d="M23 38.5C32.665 38.5 40.5 30.665 40.5 21C40.5 11.335 32.665 3.5 23 3.5C13.335 3.5 5.5 11.335 5.5 21C5.5 30.665 13.335 38.5 23 38.5Z" stroke="black" stroke-opacity="0.08" stroke-width="3" style="mix-blend-mode:luminosity" shape-rendering="crispEdges"/>
  </g>
  <defs>
    <filter id="filter0_bd_330_1845" x="-96" y="-98" width="238" height="238" filterUnits="userSpaceOnUse" color-interpolation-filters="sRGB">
      <feFlood flood-opacity="0" result="BackgroundImageFix"/>
      <feGaussianBlur in="BackgroundImageFix" stdDeviation="50"/>
      <feComposite in2="SourceAlpha" operator="in" result="effect1_backgroundBlur_330_1845"/>
      <feColorMatrix in="SourceAlpha" type="matrix" values="0 0 0 0 0 0 0 0 0 0 0 0 0 0 0 0 0 0 127 0" result="hardAlpha"/>
      <feOffset dy="2"/>
      <feGaussianBlur stdDeviation="2"/>
      <feComposite in2="hardAlpha" operator="out"/>
      <feColorMatrix type="matrix" values="0 0 0 0 0 0 0 0 0 0 0 0 0 0 0 0 0 0 0.1 0"/>
      <feBlend mode="normal" in2="effect1_backgroundBlur_330_1845" result="effect2_dropShadow_330_1845"/>
      <feBlend mode="normal" in="SourceGraphic" in2="effect2_dropShadow_330_1845" result="shape"/>
    </filter>
    <linearGradient id="paint0_linear_330_1845" x1="23" y1="5" x2="23" y2="37" gradientUnits="userSpaceOnUse">
      <stop stop-color="#FF75E1"/>
      <stop offset="1" stop-color="#595DE8"/>
    </linearGradient>
  </defs>
</svg>
