<svg width="46" height="46" viewBox="0 0 46 46" fill="none" xmlns="http://www.w3.org/2000/svg">
  <g filter="url(#filter0_bd_207_1379)">
    <mask id="path-1-outside-1_207_1379" maskUnits="userSpaceOnUse" x="4" y="2" width="38" height="38" fill="black">
      <rect fill="white" x="4" y="2" width="38" height="38"/>
      <path fill-rule="evenodd" clip-rule="evenodd" d="M23 37C31.8366 37 39 29.8366 39 21C39 12.1634 31.8366 5 23 5C14.1634 5 7 12.1634 7 21C7 29.8366 14.1634 37 23 37ZM35 18H11V24H35V18Z"/>
    </mask>
    <path fill-rule="evenodd" clip-rule="evenodd" d="M23 37C31.8366 37 39 29.8366 39 21C39 12.1634 31.8366 5 23 5C14.1634 5 7 12.1634 7 21C7 29.8366 14.1634 37 23 37ZM35 18H11V24H35V18Z" fill="#FF453A" shape-rendering="crispEdges"/>
    <path d="M11 18V15H8V18H11ZM35 18H38V15H35V18ZM11 24H8V27H11V24ZM35 24V27H38V24H35ZM36 21C36 28.1797 30.1797 34 23 34V40C33.4934 40 42 31.4934 42 21H36ZM23 8C30.1797 8 36 13.8203 36 21H42C42 10.5066 33.4934 2 23 2V8ZM10 21C10 13.8203 15.8203 8 23 8V2C12.5066 2 4 10.5066 4 21H10ZM23 34C15.8203 34 10 28.1797 10 21H4C4 31.4934 12.5066 40 23 40V34ZM11 21H35V15H11V21ZM14 24V18H8V24H14ZM35 21H11V27H35V21ZM32 18V24H38V18H32Z" fill="#D6D6D6" fill-opacity="0.45" style="mix-blend-mode:color-burn" mask="url(#path-1-outside-1_207_1379)"/>
    <path d="M11 18V15H8V18H11ZM35 18H38V15H35V18ZM11 24H8V27H11V24ZM35 24V27H38V24H35ZM36 21C36 28.1797 30.1797 34 23 34V40C33.4934 40 42 31.4934 42 21H36ZM23 8C30.1797 8 36 13.8203 36 21H42C42 10.5066 33.4934 2 23 2V8ZM10 21C10 13.8203 15.8203 8 23 8V2C12.5066 2 4 10.5066 4 21H10ZM23 34C15.8203 34 10 28.1797 10 21H4C4 31.4934 12.5066 40 23 40V34ZM11 21H35V15H11V21ZM14 24V18H8V24H14ZM35 21H11V27H35V21ZM32 18V24H38V18H32Z" fill="black" fill-opacity="0.08" style="mix-blend-mode:luminosity" mask="url(#path-1-outside-1_207_1379)"/>
  </g>
  <defs>
    <filter id="filter0_bd_207_1379" x="-96" y="-98" width="238" height="238" filterUnits="userSpaceOnUse" color-interpolation-filters="sRGB">
      <feFlood flood-opacity="0" result="BackgroundImageFix"/>
      <feGaussianBlur in="BackgroundImageFix" stdDeviation="50"/>
      <feComposite in2="SourceAlpha" operator="in" result="effect1_backgroundBlur_207_1379"/>
      <feColorMatrix in="SourceAlpha" type="matrix" values="0 0 0 0 0 0 0 0 0 0 0 0 0 0 0 0 0 0 127 0" result="hardAlpha"/>
      <feOffset dy="2"/>
      <feGaussianBlur stdDeviation="2"/>
      <feComposite in2="hardAlpha" operator="out"/>
      <feColorMatrix type="matrix" values="0 0 0 0 0 0 0 0 0 0 0 0 0 0 0 0 0 0 0.1 0"/>
      <feBlend mode="normal" in2="effect1_backgroundBlur_207_1379" result="effect2_dropShadow_207_1379"/>
      <feBlend mode="normal" in="SourceGraphic" in2="effect2_dropShadow_207_1379" result="shape"/>
    </filter>
  </defs>
</svg>
