<svg width="46" height="46" viewBox="0 0 46 46" fill="none" xmlns="http://www.w3.org/2000/svg">
  <g filter="url(#filter0_bd_207_1375)">
    <mask id="path-1-outside-1_207_1375" maskUnits="userSpaceOnUse" x="4" y="2" width="38" height="38" fill="black">
      <rect fill="white" x="4" y="2" width="38" height="38"/>
      <path fill-rule="evenodd" clip-rule="evenodd" d="M23 37C31.8366 37 39 29.8366 39 21C39 12.1634 31.8366 5 23 5C22.067 5 21.1527 5.07986 20.2634 5.23311C25.2527 6.27667 29 10.7007 29 16C29 22.0751 24.0751 27 18 27C12.7007 27 8.27667 23.2527 7.23311 18.2634C7.07986 19.1527 7 20.067 7 21C7 29.8366 14.1634 37 23 37Z"/>
    </mask>
    <path fill-rule="evenodd" clip-rule="evenodd" d="M23 37C31.8366 37 39 29.8366 39 21C39 12.1634 31.8366 5 23 5C22.067 5 21.1527 5.07986 20.2634 5.23311C25.2527 6.27667 29 10.7007 29 16C29 22.0751 24.0751 27 18 27C12.7007 27 8.27667 23.2527 7.23311 18.2634C7.07986 19.1527 7 20.067 7 21C7 29.8366 14.1634 37 23 37Z" fill="#FFD60A" shape-rendering="crispEdges"/>
    <path d="M20.2634 5.23311L19.7539 2.2767L19.6492 8.16957L20.2634 5.23311ZM7.23311 18.2634L10.1696 17.6492L4.2767 17.7539L7.23311 18.2634ZM36 21C36 28.1797 30.1797 34 23 34V40C33.4934 40 42 31.4934 42 21H36ZM23 8C30.1797 8 36 13.8203 36 21H42C42 10.5066 33.4934 2 23 2V8ZM20.7729 8.18953C21.4946 8.06515 22.2385 8 23 8V2C21.8955 2 20.8107 2.09456 19.7539 2.2767L20.7729 8.18953ZM19.6492 8.16957C23.2768 8.9283 26 12.1496 26 16H32C32 9.2519 27.2287 3.62505 20.8776 2.29665L19.6492 8.16957ZM26 16C26 20.4183 22.4183 24 18 24V30C25.732 30 32 23.732 32 16H26ZM18 24C14.1496 24 10.9283 21.2768 10.1696 17.6492L4.29665 18.8776C5.62505 25.2287 11.2519 30 18 30V24ZM10 21C10 20.2385 10.0652 19.4946 10.1895 18.7729L4.2767 17.7539C4.09456 18.8107 4 19.8955 4 21H10ZM23 34C15.8203 34 10 28.1797 10 21H4C4 31.4934 12.5066 40 23 40V34Z" fill="#D6D6D6" fill-opacity="0.45" style="mix-blend-mode:color-burn" mask="url(#path-1-outside-1_207_1375)"/>
    <path d="M20.2634 5.23311L19.7539 2.2767L19.6492 8.16957L20.2634 5.23311ZM7.23311 18.2634L10.1696 17.6492L4.2767 17.7539L7.23311 18.2634ZM36 21C36 28.1797 30.1797 34 23 34V40C33.4934 40 42 31.4934 42 21H36ZM23 8C30.1797 8 36 13.8203 36 21H42C42 10.5066 33.4934 2 23 2V8ZM20.7729 8.18953C21.4946 8.06515 22.2385 8 23 8V2C21.8955 2 20.8107 2.09456 19.7539 2.2767L20.7729 8.18953ZM19.6492 8.16957C23.2768 8.9283 26 12.1496 26 16H32C32 9.2519 27.2287 3.62505 20.8776 2.29665L19.6492 8.16957ZM26 16C26 20.4183 22.4183 24 18 24V30C25.732 30 32 23.732 32 16H26ZM18 24C14.1496 24 10.9283 21.2768 10.1696 17.6492L4.29665 18.8776C5.62505 25.2287 11.2519 30 18 30V24ZM10 21C10 20.2385 10.0652 19.4946 10.1895 18.7729L4.2767 17.7539C4.09456 18.8107 4 19.8955 4 21H10ZM23 34C15.8203 34 10 28.1797 10 21H4C4 31.4934 12.5066 40 23 40V34Z" fill="black" fill-opacity="0.08" style="mix-blend-mode:luminosity" mask="url(#path-1-outside-1_207_1375)"/>
  </g>
  <defs>
    <filter id="filter0_bd_207_1375" x="-96" y="-98" width="238" height="238" filterUnits="userSpaceOnUse" color-interpolation-filters="sRGB">
      <feFlood flood-opacity="0" result="BackgroundImageFix"/>
      <feGaussianBlur in="BackgroundImageFix" stdDeviation="50"/>
      <feComposite in2="SourceAlpha" operator="in" result="effect1_backgroundBlur_207_1375"/>
      <feColorMatrix in="SourceAlpha" type="matrix" values="0 0 0 0 0 0 0 0 0 0 0 0 0 0 0 0 0 0 127 0" result="hardAlpha"/>
      <feOffset dy="2"/>
      <feGaussianBlur stdDeviation="2"/>
      <feComposite in2="hardAlpha" operator="out"/>
      <feColorMatrix type="matrix" values="0 0 0 0 0 0 0 0 0 0 0 0 0 0 0 0 0 0 0.1 0"/>
      <feBlend mode="normal" in2="effect1_backgroundBlur_207_1375" result="effect2_dropShadow_207_1375"/>
      <feBlend mode="normal" in="SourceGraphic" in2="effect2_dropShadow_207_1375" result="shape"/>
    </filter>
  </defs>
</svg>
