<svg width="38" height="38" viewBox="0 0 38 38" fill="none" xmlns="http://www.w3.org/2000/svg">
  <path d="M19 35C27.8366 35 35 27.8366 35 19C35 10.1634 27.8366 3 19 3C18.067 3 17.1527 3.07986 16.2634 3.23311C21.2527 4.27667 25 8.70072 25 14C25 20.0751 20.0751 25 14 25C8.70072 25 4.27667 21.2527 3.23311 16.2634C3.07986 17.1527 3 18.067 3 19C3 27.8366 10.1634 35 19 35Z" fill="#FFD60A"/>
  <path d="M16.0087 1.7549L15.9563 4.70134C20.2647 5.60249 23.5 9.42514 23.5 14C23.5 19.2467 19.2467 23.5 14 23.5C9.42514 23.5 5.60249 20.2647 4.70134 15.9563L1.7549 16.0087C1.58721 16.9817 1.5 17.9813 1.5 19C1.5 28.665 9.33502 36.5 19 36.5C28.665 36.5 36.5 28.665 36.5 19C36.5 9.33502 28.665 1.5 19 1.5C17.9813 1.5 16.9817 1.58721 16.0087 1.7549Z" stroke="#D6D6D6" stroke-opacity="0.45" stroke-width="3" stroke-linecap="round" style="mix-blend-mode:color-burn"/>
  <path d="M16.0087 1.7549L15.9563 4.70134C20.2647 5.60249 23.5 9.42514 23.5 14C23.5 19.2467 19.2467 23.5 14 23.5C9.42514 23.5 5.60249 20.2647 4.70134 15.9563L1.7549 16.0087C1.58721 16.9817 1.5 17.9813 1.5 19C1.5 28.665 9.33502 36.5 19 36.5C28.665 36.5 36.5 28.665 36.5 19C36.5 9.33502 28.665 1.5 19 1.5C17.9813 1.5 16.9817 1.58721 16.0087 1.7549Z" stroke="black" stroke-opacity="0.08" stroke-width="3" stroke-linecap="round" style="mix-blend-mode:luminosity"/>
</svg>
