<?xml version="1.0" standalone="no"?>
<!DOCTYPE svg PUBLIC "-//W3C//DTD SVG 20010904//EN"
 "http://www.w3.org/TR/2001/REC-SVG-20010904/DTD/svg10.dtd">
<svg version="1.0" xmlns="http://www.w3.org/2000/svg"
 width="38.000000pt" height="38.000000pt" viewBox="0 0 38.000000 38.000000"
 preserveAspectRatio="xMidYMid meet">
<metadata>
Created by potrace 1.16, written by Peter Selinger 2001-2019
</metadata>
<g transform="translate(0.000000,38.000000) scale(0.100000,-0.100000)"
fill="#000000" stroke="none">
<path d="M155 354 l-30 -25 50 -44 50 -45 -102 0 c-89 0 -104 -2 -112 -18 -10
-20 -5 -58 11 -79 7 -9 38 -10 111 -6 l102 6 -32 -35 c-37 -38 -41 -59 -16
-88 23 -27 37 -25 58 8 10 15 45 57 77 94 42 48 58 73 54 86 -3 10 -39 47 -79
82 -39 36 -76 70 -80 77 -12 19 -28 15 -62 -13z"/>
</g>
</svg>
