<?xml version="1.0" standalone="no"?>
<!DOCTYPE svg PUBLIC "-//W3C//DTD SVG 20010904//EN"
 "http://www.w3.org/TR/2001/REC-SVG-20010904/DTD/svg10.dtd">
<svg version="1.0" xmlns="http://www.w3.org/2000/svg"
 width="34.000000pt" height="31.000000pt" viewBox="0 0 34.000000 31.000000"
 preserveAspectRatio="xMidYMid meet">
<metadata>
Created by potrace 1.16, written by Peter Selinger 2001-2019
</metadata>
<g transform="translate(0.000000,31.000000) scale(0.100000,-0.100000)"
fill="currentColor" stroke="none">
<path d="M153 294 c-4 -12 11 -33 49 -70 l56 -54 -129 7 c-125 6 -129 5 -129
-14 0 -28 23 -33 155 -33 l110 0 -53 -51 c-54 -52 -60 -71 -27 -78 20 -3 155
132 155 156 0 7 -8 17 -18 22 -9 5 -44 37 -77 70 -62 63 -81 73 -92 45z"/>
</g>
</svg>
