<?xml version="1.0" standalone="no"?>
<!DOCTYPE svg PUBLIC "-//W3C//DTD SVG 20010904//EN"
 "http://www.w3.org/TR/2001/REC-SVG-20010904/DTD/svg10.dtd">
<svg version="1.0" xmlns="http://www.w3.org/2000/svg"
 width="42.000000pt" height="29.000000pt" viewBox="0 0 42.000000 29.000000"
 preserveAspectRatio="xMidYMid meet">
<metadata>
Created by potrace 1.16, written by Peter Selinger 2001-2019
</metadata>
<g transform="translate(0.000000,29.000000) scale(0.100000,-0.100000)"
fill="#000000" stroke="none">
<path d="M195 278 c-2 -7 -5 -26 -7 -43 l-3 -30 -75 -3 c-95 -4 -114 -18 -107
-81 7 -64 25 -74 120 -66 l77 6 6 -30 c5 -25 11 -31 33 -31 14 0 39 8 54 19
48 31 127 112 127 130 0 25 -157 141 -192 141 -16 0 -31 -6 -33 -12z"/>
</g>
</svg>
