<svg width="24" height="24" viewBox="0 0 24 24" fill="none" xmlns="http://www.w3.org/2000/svg">
  <path d="M9.18772 4.95C9.11272 5.4375 8.96272 6.375 8.92522 7.0875C8.81272 8.25 8.58772 8.475 6.18772 9.75C4.76272 10.5375 3.52522 11.3625 3.45022 11.6625C3.41272 12 4.42522 12.675 6.18772 13.4625L9.00022 14.7V16.3875C9.00022 18.3 9.93772 20.625 10.7252 20.625C11.0252 20.625 11.2502 20.5125 11.2502 20.325C11.2877 20.175 12.0002 19.2375 12.9002 18.225L14.4752 16.425L16.0877 17.2125C16.9502 17.6625 18.0377 18 18.4877 17.925C19.2002 17.8125 19.3127 17.625 19.2002 16.3125C19.1252 15.4875 18.9002 14.25 18.7127 13.6125C18.3752 12.5625 18.4502 12.15 19.3502 10.575C20.8877 7.8 20.5502 7.425 16.9502 7.725L13.9877 7.9875L12.1502 6.0375C10.1627 3.9375 9.48772 3.675 9.18772 4.95ZM12.0377 7.725C13.3127 9.0375 13.3502 9.075 16.0502 8.925C17.5127 8.85 18.7502 8.85 18.7502 8.925C18.7502 8.9625 18.4127 9.7125 17.9627 10.575C17.4002 11.625 17.2502 12.45 17.4002 13.275C17.5502 13.9125 17.7377 14.8875 17.8877 15.45C18.1127 16.65 17.6252 16.8 16.1252 15.9375C14.4752 15 13.6502 15.225 12.3377 17.0625C11.6627 18 10.9877 18.75 10.8377 18.75C10.5377 18.75 10.2377 17.3625 10.0502 15.1875C9.93772 14.25 9.60022 13.875 7.80022 12.9375C6.60022 12.3 5.62522 11.7 5.62522 11.5875C5.62522 11.475 6.63772 10.9125 7.87522 10.3125C10.0502 9.2625 10.1252 9.1875 10.1252 7.8C10.1252 7.0125 10.2752 6.375 10.4252 6.375C10.5752 6.375 11.3252 6.975 12.0377 7.725Z" fill="currentColor"/>
</svg>
