<?xml version="1.0" standalone="no"?>
<!DOCTYPE svg PUBLIC "-//W3C//DTD SVG 20010904//EN"
 "http://www.w3.org/TR/2001/REC-SVG-20010904/DTD/svg10.dtd">
<svg version="1.0" xmlns="http://www.w3.org/2000/svg"
 width="500.000000pt" height="500.000000pt" viewBox="0 0 500.000000 500.000000"
 preserveAspectRatio="xMidYMid meet">
<metadata>
Created by potrace 1.16, written by Peter Selinger 2001-2019
</metadata>
<g transform="translate(0.000000,500.000000) scale(0.100000,-0.100000)"
fill="currentColor" stroke="none">
<path d="M2160 4030 c-223 -9 -367 -29 -532 -74 -364 -100 -667 -274 -904
-517 -146 -151 -222 -273 -261 -419 -27 -104 -23 -308 10 -432 49 -187 145
-353 284 -493 100 -101 160 -141 404 -273 312 -169 353 -184 545 -201 193 -17
294 -73 294 -163 0 -61 156 -207 336 -313 164 -98 262 -133 406 -146 136 -12
183 -29 198 -74 13 -40 25 -45 98 -45 99 0 182 59 182 129 0 55 -25 94 -121
186 -142 137 -206 250 -179 315 15 37 59 54 214 85 404 80 763 259 1025 510
155 149 209 231 245 376 42 168 45 453 7 636 -58 279 -252 469 -706 692 -354
174 -476 203 -949 221 -272 10 -317 10 -596 0z"/>
</g>
</svg>
