<svg width="24" height="24" viewBox="0 0 24 24" fill="none" xmlns="http://www.w3.org/2000/svg">
  <path d="M8.91173 4.88827C4.81761 5.73533 3.86467 6.14122 3.15878 7.30592C2.85878 7.78239 2.82349 8.20592 2.84114 10.5883C2.84114 13.9589 2.96467 14.3118 4.44702 15.053C5.54114 15.6177 6.63525 15.7942 9.15878 15.7942H10.8L10.6941 16.5883C10.6411 17.0295 10.3764 17.8059 10.1294 18.3177C9.88231 18.8295 9.72349 19.3059 9.77643 19.3589C9.97055 19.5706 11.2941 19.0412 11.8764 18.5295C12.1941 18.2647 12.7941 17.5942 13.2353 17.0471C13.9941 16.0942 14.0294 16.0765 15.247 15.8824C17.7882 15.4765 19.747 14.6118 20.5411 13.5353C21.1058 12.7765 21.1588 10.2177 20.647 8.36474C19.9058 5.57651 19.447 5.24121 15.7764 4.95886C13.3941 4.76474 9.63525 4.72945 8.91173 4.88827ZM16.5882 6.5118C17.9647 6.65298 18.1058 6.70592 18.547 7.21769C19.3588 8.20592 19.8 10.4118 19.4294 11.753C19.2176 12.5118 18.4941 13.2353 17.5235 13.6059C17.1353 13.7647 13.6764 14.2765 13.0235 14.2942C12.9353 14.2942 12.8823 14.4 12.8823 14.5059C12.8823 14.6295 12.7235 15.053 12.5294 15.4412C12.1941 16.1295 12.1764 16.1295 12.2823 15.5824C12.3529 15.1589 12.2823 14.9295 12.0176 14.6647C11.6823 14.3295 11.4353 14.2942 9.54702 14.2942C6.61761 14.2942 5.31172 13.7824 4.5882 12.353C4.07643 11.3647 4.07643 8.89416 4.5882 8.25886C5.20584 7.46474 7.11172 6.82945 9.97055 6.47651C10.9588 6.35298 15.0882 6.37063 16.5882 6.5118Z" fill="currentColor"/>
  <path d="M15.512 9.82951C15.2296 10.606 15.3708 11.0295 15.9708 11.0824C16.8002 11.1883 17.259 10.2354 16.659 9.63539C16.2355 9.19421 15.7237 9.28245 15.512 9.82951Z" fill="currentColor"/>
  <path d="M11.6469 9.86482C11.2763 10.5707 11.6293 11.4707 12.2645 11.4707C13.0234 11.4707 13.3234 10.2531 12.6704 9.81188C12.141 9.44129 11.8763 9.45894 11.6469 9.86482Z" fill="currentColor"/>
  <path d="M7.65864 10.1294C7.6057 10.2705 7.58805 10.6058 7.62334 10.8882C7.65864 11.2764 7.78217 11.3999 8.15275 11.4352C8.82334 11.5058 9.14099 10.9058 8.73511 10.3058C8.43511 9.84701 7.81746 9.74113 7.65864 10.1294Z" fill="currentColor"/>
</svg>
