<?xml version="1.0" encoding="UTF-8"?>
<!-- Generated by Pixelmator Pro 3.3.9 -->
<svg width="19" height="16" viewBox="0 0 19 16" xmlns="http://www.w3.org/2000/svg">
    <path id="path1" fill="currentColor" stroke="none" d="M 6.91173 0.888269 C 2.81761 1.735331 1.86467 2.14122 1.15878 3.30592 C 0.85878 3.782391 0.82349 4.20592 0.84114 6.5883 C 0.84114 9.9589 0.96467 10.3118 2.44702 11.053 C 3.54114 11.6177 4.63525 11.7942 7.15878 11.7942 L 8.8 11.7942 L 8.6941 12.588301 C 8.6411 13.029499 8.3764 13.805901 8.1294 14.317699 C 7.88231 14.8295 7.72349 15.305901 7.77643 15.3589 C 7.97055 15.570601 9.2941 15.041201 9.8764 14.529499 C 10.1941 14.2647 10.7941 13.5942 11.2353 13.0471 C 11.9941 12.0942 12.0294 12.0765 13.247 11.8824 C 15.7882 11.4765 17.747 10.6118 18.5411 9.5353 C 19.105801 8.7765 19.1588 6.2177 18.646999 4.36474 C 17.9058 1.576509 17.447001 1.241211 13.7764 0.95886 C 11.3941 0.76474 7.63525 0.72945 6.91173 0.888269 Z M 14.5882 2.511799 C 15.964701 2.652981 16.105801 2.705921 16.547001 3.21769 C 17.358801 4.20592 17.799999 6.4118 17.429399 7.753 C 17.2176 8.5118 16.494101 9.2353 15.5235 9.6059 C 15.1353 9.7647 11.6764 10.2765 11.0235 10.2942 C 10.9353 10.2942 10.8823 10.4 10.8823 10.5059 C 10.8823 10.6295 10.7235 11.053 10.5294 11.4412 C 10.1941 12.129499 10.1764 12.129499 10.2823 11.5824 C 10.3529 11.1589 10.2823 10.9295 10.0176 10.6647 C 9.6823 10.3295 9.4353 10.2942 7.54702 10.2942 C 4.61761 10.2942 3.31172 9.7824 2.5882 8.353 C 2.07643 7.3647 2.07643 4.89416 2.5882 4.25886 C 3.20584 3.464741 5.11172 2.829451 7.97055 2.476509 C 8.9588 2.35298 13.0882 2.37063 14.5882 2.511799 Z"/>
    <path id="path2" fill="currentColor" stroke="none" d="M 13.512 5.82951 C 13.2296 6.606 13.3708 7.0295 13.9708 7.0824 C 14.8002 7.1883 15.259001 6.2354 14.659 5.63539 C 14.2355 5.19421 13.7237 5.28245 13.512 5.82951 Z"/>
    <path id="path3" fill="currentColor" stroke="none" d="M 9.6469 5.86482 C 9.2763 6.5707 9.6293 7.4707 10.2645 7.4707 C 11.0234 7.4707 11.3234 6.2531 10.6704 5.81188 C 10.141 5.44129 9.8763 5.45894 9.6469 5.86482 Z"/>
    <path id="path4" fill="currentColor" stroke="none" d="M 5.65864 6.1294 C 5.6057 6.2705 5.58805 6.6058 5.62334 6.8882 C 5.65864 7.2764 5.78217 7.3999 6.15275 7.4352 C 6.82334 7.5058 7.14099 6.9058 6.73511 6.3058 C 6.43511 5.84701 5.81746 5.74113 5.65864 6.1294 Z"/>
</svg>
