<?xml version="1.0" encoding="UTF-8"?>
<!-- Generated by Pixelmator Pro 3.3.9 -->
<svg width="18" height="18" viewBox="0 0 18 18" xmlns="http://www.w3.org/2000/svg">
    <path id="path1" fill="#000000" stroke="none" d="M 9.7626 4.90007 C 6.1251 10.7126 5.9376 10.9001 5.3751 8.9126 C 5.1126 7.97507 4.7376 7.37507 4.4001 7.37507 C 4.0626 7.37507 2.9376 8.2001 1.8876 9.2126 L -0.0249 11.0501 L 3.3126 14.312599 C 5.1501 16.1126 6.7251 17.4251 6.8001 17.1626 C 6.8751 16.937599 7.1751 16.750099 7.4376 16.750099 C 7.7001 16.750099 8.7501 15.625099 9.7251 14.2376 C 12.3876 10.4126 16.3626 5.012569 16.8876 4.450069 C 17.150101 4.187571 17.375099 3.73757 17.375099 3.475071 C 17.375099 3.062571 13.4751 0.250071 12.9126 0.250071 C 12.7626 0.250071 11.3751 2.350071 9.7626 4.90007 Z"/>
</svg>
