<?xml version="1.0" encoding="UTF-8"?>
<!-- Generated by Pixelmator Pro 3.3.9 -->
<svg width="81" height="52" viewBox="0 0 81 52" xmlns="http://www.w3.org/2000/svg">
    <g id="Black-S-">
        <path id="path1" fill="none" stroke="#000000" stroke-width="0.5" d="M 5.854736 34.021484 C 4.145752 35.828125 3.315674 37.830078 3.315674 40.271484 C 3.315674 45.300781 7.466064 49.5 12.397705 49.5 C 14.936768 49.5 17.280518 48.425781 19.233643 46.423828 L 41.450439 23.230469 L 39.546143 23.230469 L 61.616455 46.423828 C 63.56958 48.474609 65.91333 49.5 68.403564 49.5 C 73.335205 49.5 77.485596 45.300781 77.485596 40.271484 C 77.485596 37.78125 76.704346 35.779297 74.946533 34.021484 L 48.286377 6.677734 C 45.747314 4.1875 43.452393 3.113281 40.425049 3.064453 C 37.446533 3.064453 35.102783 4.138672 32.563721 6.677734 Z"/>
    </g>
</svg>
