<svg width="24" height="24" viewBox="0 0 24 24" fill="none" xmlns="http://www.w3.org/2000/svg">
  <path d="M16.11 6.30012C15.63 6.45012 15.09 6.75012 14.91 6.99012C14.7 7.23012 13.53 8.19012 12.3 9.18012C11.07 10.1401 9.08998 11.7901 7.91998 12.8401C5.96998 14.5801 5.72998 14.9401 5.39998 16.4701C5.18998 17.4001 4.88998 18.3001 4.73998 18.5101C4.55998 18.7201 4.55998 19.0801 4.73998 19.3801C4.97998 19.8001 5.03998 19.8001 5.18998 19.4101C5.27998 19.1401 5.96998 18.8701 6.95998 18.7501C9.23998 18.4201 9.44998 18.3301 12.75 15.6001C17.43 11.7901 19.8 9.51012 19.8 8.91012C19.8 8.37012 19.56 8.01012 18.39 6.72012C17.67 5.94012 17.43 5.91012 16.11 6.30012ZM18.21 8.01012C18.36 8.49012 18.42 9.09012 18.36 9.39012C18.27 9.84012 18.09 9.75012 17.25 8.79012C15.99 7.38012 15.96 7.20012 17.07 7.20012C17.76 7.20012 18 7.38012 18.21 8.01012ZM16.32 9.03012C17.22 10.0801 17.28 10.5601 16.65 11.1001C16.26 11.4301 16.02 11.3101 15.18 10.3201C14.25 9.24012 14.19 9.12012 14.61 8.61012C15.27 7.92012 15.42 7.95012 16.32 9.03012ZM13.23 10.0201C13.05 10.2301 12.06 11.0701 11.01 11.8501C9.98998 12.6601 9.41998 12.9901 9.74998 12.6301C10.38 11.8801 13.14 9.60012 13.41 9.60012C13.5 9.60012 13.41 9.78012 13.23 10.0201ZM13.5 11.5501C12.09 13.0201 9.11998 15.3001 8.90998 15.1201C8.75998 14.9701 14.04 10.5301 14.37 10.5001C14.46 10.5001 14.07 10.9801 13.5 11.5501ZM15.3 11.9701C15.3 12.2101 10.35 16.5001 10.05 16.5001C9.50998 16.5001 10.2 15.6901 12.36 13.8301C14.7 11.7601 15.3 11.4001 15.3 11.9701ZM8.99998 13.3201C8.99998 13.3801 8.75998 13.6201 8.48998 13.8301C8.00998 14.2201 7.97998 14.1901 8.36998 13.7101C8.75998 13.2301 8.99998 13.0801 8.99998 13.3201ZM8.78998 17.4301C8.48998 17.5501 7.79998 17.6701 7.25998 17.6701C6.35998 17.7001 6.29998 17.6401 6.47998 16.8601C6.59998 16.4101 6.80998 15.7201 6.95998 15.3601C7.19998 14.6701 7.22998 14.6701 8.27998 15.9301C9.23998 17.1001 9.29998 17.2501 8.78998 17.4301Z" fill="currentColor"/>
</svg>
