<?xml version="1.0" standalone="no"?>
<!DOCTYPE svg PUBLIC "-//W3C//DTD SVG 20010904//EN"
 "http://www.w3.org/TR/2001/REC-SVG-20010904/DTD/svg10.dtd">
<svg version="1.0" xmlns="http://www.w3.org/2000/svg"
 width="152.000000pt" height="92.000000pt" viewBox="0 0 152.000000 92.000000"
 preserveAspectRatio="xMidYMid meet">
<metadata>
Created by potrace 1.16, written by Peter Selinger 2001-2019
</metadata>
<g transform="translate(0.000000,92.000000) scale(0.100000,-0.100000)"
fill="currentColor" stroke="none">
<path d="M744 876 c-33 -23 -93 -78 -134 -121 -108 -113 -181 -187 -212 -214
l-27 -23 -48 50 c-26 27 -75 79 -107 116 -89 99 -156 103 -156 10 0 -25 -9
-102 -21 -172 -32 -197 -38 -288 -27 -377 6 -44 16 -83 22 -87 6 -4 148 -8
316 -8 285 0 391 -5 715 -31 72 -5 191 -12 266 -13 l137 -4 11 25 c6 14 18 75
26 136 12 93 13 147 4 317 -13 259 -14 264 -62 268 -30 3 -50 -6 -112 -48 -42
-28 -112 -83 -157 -121 -44 -38 -84 -69 -88 -69 -16 0 -78 98 -159 253 -96
182 -95 182 -187 113z m245 -336 c52 -79 72 -100 94 -100 20 0 81 44 152 111
22 21 77 62 122 92 l81 55 6 -32 c13 -71 18 -451 6 -496 -6 -25 -14 -60 -17
-77 l-5 -33 -112 0 c-61 0 -160 5 -221 10 -270 23 -613 39 -822 37 -105 -1
-195 2 -199 6 -20 19 -14 209 11 361 14 85 25 169 25 185 0 45 22 39 66 -16
64 -80 180 -193 198 -193 10 0 91 74 181 165 89 90 184 182 211 204 l49 39 69
-131 c37 -73 85 -157 105 -187z"/>
</g>
</svg>
