<?xml version="1.0" standalone="no"?>
<!DOCTYPE svg PUBLIC "-//W3C//DTD SVG 20010904//EN"
 "http://www.w3.org/TR/2001/REC-SVG-20010904/DTD/svg10.dtd">
<svg version="1.0" xmlns="http://www.w3.org/2000/svg"
 width="39.000000pt" height="140.000000pt" viewBox="0 0 39.000000 140.000000"
 preserveAspectRatio="xMidYMid meet">
<metadata>
Created by potrace 1.16, written by Peter Selinger 2001-2019
</metadata>
<g transform="translate(0.000000,140.000000) scale(0.100000,-0.100000)"
fill="#000000" stroke="none">
<path d="M22 1392 c-16 -11 -16 -21 -3 -287 26 -529 29 -630 19 -642 -7 -9 -7
-13 2 -13 7 0 18 -8 25 -17 20 -27 184 -34 237 -10 l41 19 -6 71 c-3 40 1 119
8 177 8 58 17 155 20 215 4 61 9 128 11 150 2 22 7 97 11 167 6 119 5 128 -13
134 -10 4 -26 13 -35 21 -19 16 -296 30 -317 15z"/>
<path d="M100 233 c-42 -16 -48 -32 -45 -120 2 -68 6 -89 20 -99 20 -15 220
-17 247 -3 11 6 18 21 18 38 0 15 3 31 7 35 4 3 6 34 6 68 l-1 61 -38 13 c-38
13 -184 18 -214 7z"/>
</g>
</svg>
