<svg width="24" height="24" viewBox="0 0 24 24" fill="none" xmlns="http://www.w3.org/2000/svg">
  <path d="M8.17607 3.33603C3.2442 3.45603 2.37387 3.52803 1.7409 3.93603L1.00244 4.36803L1.16068 9.69603C1.3453 15.744 1.66178 20.304 1.89914 20.52C2.00464 20.616 4.35189 20.712 7.1475 20.76C10.6288 20.808 12.264 20.904 12.3431 21.096C12.475 21.432 17.1431 21.456 17.1431 21.12C17.1431 21 18.3035 20.856 19.7013 20.832L22.286 20.76L22.3651 17.4C22.4178 15.552 22.3915 11.832 22.286 9.14403C22.0486 2.78403 22.286 3.09603 17.3541 3.16803C15.4288 3.19203 11.2882 3.26403 8.17607 3.33603ZM21.1519 4.17603C21.2574 4.32003 21.3629 4.77603 21.3629 5.18403V5.95203L17.3541 6.12003C15.1387 6.19203 10.998 6.31203 8.17607 6.36003C5.35409 6.38403 2.8486 6.50403 2.61123 6.57603C2.26838 6.72003 2.18925 6.52803 2.13651 5.52003C2.11013 4.87203 2.11013 4.29603 2.16288 4.29603C2.37387 4.20003 12.475 3.96003 16.4838 3.93603C19.5695 3.91203 21.02 3.98403 21.1519 4.17603ZM21.2838 7.36803C21.5211 8.11203 21.5739 19.8 21.3629 20.016C21.0464 20.28 6.51453 20.232 2.61123 19.944C2.242 19.896 1.68816 7.72803 2.05739 7.39203C2.21563 7.24803 5.09035 7.10403 9.52112 7.03203C13.5035 6.98403 16.8002 6.88803 16.853 6.81603C16.9057 6.76803 17.8816 6.72003 19.0156 6.72003C21.0464 6.72003 21.0991 6.74403 21.2838 7.36803Z" fill="white"/>
  <path d="M4.87921 4.80002C4.77372 4.94402 4.80009 5.18402 4.95834 5.32802C5.11658 5.47202 5.27482 5.47202 5.40669 5.28002C5.51218 5.13602 5.48581 4.89602 5.32757 4.75202C5.16932 4.60802 5.01108 4.60802 4.87921 4.80002Z" fill="white"/>
  <path d="M6.33008 4.89603C6.33008 5.11203 6.51469 5.28003 6.75206 5.28003C6.98942 5.28003 7.12129 5.16003 7.06854 4.99203C6.9103 4.56003 6.33008 4.48803 6.33008 4.89603Z" fill="white"/>
  <path d="M3.08617 4.94402C2.74331 5.25602 2.90156 5.52002 3.4554 5.52002C3.74551 5.52002 3.9565 5.40002 3.90375 5.23202C3.77189 4.89602 3.32353 4.72802 3.08617 4.94402Z" fill="white"/>
  <path d="M8.22885 5.18395C8.2816 5.37595 8.38709 5.54395 8.51896 5.54395C8.62446 5.51995 11.1827 5.51995 14.242 5.51995C18.9893 5.51995 19.7805 5.47195 19.7805 5.15995C19.7805 4.84795 18.9629 4.79995 13.9519 4.79995C8.83545 4.79995 8.14973 4.84795 8.22885 5.18395Z" fill="white"/>
  <path d="M9.41542 9.52802C8.41322 9.67202 8.2286 10.128 8.04399 12.936C7.88575 15.24 7.91212 15.456 8.46597 16.176L9.04619 16.968L12.1055 17.136C15.1649 17.304 15.1649 17.304 15.7715 16.68C16.1934 16.224 16.3517 15.744 16.3517 14.928C16.3517 13.584 16.1407 13.224 15.2967 13.152C14.6901 13.08 14.6374 13.152 14.7165 14.064C14.822 15.504 14.3473 15.84 12.1846 15.84C9.7319 15.816 9.49454 15.624 9.49454 13.392C9.49454 11.448 9.89014 10.8 10.9978 10.8C11.6044 10.8 11.9473 10.272 11.7099 9.72002C11.5517 9.36002 10.9715 9.31202 9.41542 9.52802Z" fill="white"/>
  <path d="M13.0026 9.52796C12.5015 9.69596 12.5806 10.8 13.0817 10.8C13.3982 10.8 13.2927 11.016 12.7125 11.712C12.2641 12.216 11.8158 12.912 11.7366 13.272C11.4201 14.328 12.4751 14.112 13.6092 12.84C14.5586 11.832 14.6377 11.784 15.0861 12.168C15.5344 12.528 15.6136 12.528 16.0092 12.192C16.6421 11.592 16.2729 9.69596 15.4817 9.50396C14.796 9.33596 13.4509 9.33596 13.0026 9.52796Z" fill="white"/>
</svg>
