<svg width="24" height="24" viewBox="0 0 24 24" fill="none" xmlns="http://www.w3.org/2000/svg">
  <path d="M6.22324 3.54407C4.32557 3.73942 4.18604 4.13011 4.18604 9.20918C4.21394 14.5115 4.54883 18.6976 5.05115 19.479C5.44185 20.0929 6.69766 20.3441 6.69766 19.8138C6.69766 19.6464 7.2558 19.5348 7.95348 19.5348C8.65115 19.5348 9.20929 19.6464 9.20929 19.8138C9.20929 19.9534 9.59999 20.0929 10.0465 20.0929C10.5209 20.0929 10.8837 19.9534 10.8837 19.8138C10.8837 19.6464 12.4744 19.5348 15.0977 19.5348C17.4418 19.5348 19.5349 19.3952 19.8418 19.2557C20.3163 18.9766 20.3721 18.6417 20.3721 15.9069C20.3721 13.172 20.3163 12.8371 19.8418 12.558C18.5302 11.8883 18.4186 12.0836 18.4186 15.0697V17.8603L14.8744 17.9162C12.893 17.9441 10.1581 17.972 8.76278 17.972L6.22324 17.9999L6.0279 15.7673C5.94417 14.5394 5.86045 11.6929 5.86045 9.46035V5.38593L6.92092 5.19058C7.47906 5.10686 8.76278 5.02314 9.76743 5.02314C11.5814 5.02314 11.6093 5.02314 11.5535 4.24174C11.5256 3.48825 11.5256 3.48825 9.46045 3.46035C8.31627 3.46035 6.8651 3.48825 6.22324 3.54407Z" fill="currentColor"/>
  <path d="M13.7305 3.7114C13.5351 3.93466 13.4514 4.32535 13.563 4.54861C13.7026 4.93931 14.2049 5.10675 16.1863 5.41373C16.4374 5.44163 15.8235 6.25094 14.5119 7.61838C13.3677 8.81838 12.3072 10.0184 12.1677 10.3254C11.9165 10.9114 12.363 11.7207 12.9491 11.7207C13.1165 11.7486 14.3444 10.5765 15.684 9.15326L18.1119 6.55791L18.1398 7.89745C18.1398 9.40442 18.5584 9.76721 19.7305 9.23698C20.4281 8.93001 20.4281 8.87419 20.3165 6.53001C20.2607 5.24628 20.0374 4.01838 19.87 3.85094C19.7026 3.68349 18.3351 3.48814 16.8281 3.40442C14.6235 3.2928 14.0095 3.34861 13.7305 3.7114Z" fill="currentColor"/>
</svg>
