<?xml version="1.0" encoding="UTF-8"?>
<!-- Generated by Pixelmator Pro 3.3.9 -->
<svg width="17" height="18" viewBox="0 0 17 18" xmlns="http://www.w3.org/2000/svg">
    <path id="path1" fill="#000000" stroke="none" d="M 2.22324 0.544069 C 0.32557 0.73942 0.18604 1.13011 0.18604 6.20918 C 0.21394 11.5115 0.54883 15.697599 1.05115 16.479 C 1.44185 17.092899 2.69766 17.344101 2.69766 16.813801 C 2.69766 16.6464 3.2558 16.5348 3.95348 16.5348 C 4.65115 16.5348 5.20929 16.6464 5.20929 16.813801 C 5.20929 16.9534 5.59999 17.092899 6.0465 17.092899 C 6.5209 17.092899 6.8837 16.9534 6.8837 16.813801 C 6.8837 16.6464 8.4744 16.5348 11.0977 16.5348 C 13.441799 16.5348 15.534901 16.395201 15.841801 16.255699 C 16.316299 15.976601 16.372101 15.641701 16.372101 12.9069 C 16.372101 10.172 16.316299 9.8371 15.841801 9.558 C 14.530199 8.8883 14.4186 9.0836 14.4186 12.0697 L 14.4186 14.8603 L 10.8744 14.916201 C 8.893 14.944099 6.1581 14.972 4.76278 14.972 L 2.22324 14.999901 L 2.0279 12.7673 C 1.94417 11.5394 1.86045 8.6929 1.86045 6.46035 L 1.86045 2.385929 L 2.92092 2.19058 C 3.47906 2.106861 4.76278 2.02314 5.76743 2.02314 C 7.5814 2.02314 7.6093 2.02314 7.5535 1.241741 C 7.5256 0.488251 7.5256 0.488251 5.46045 0.46035 C 4.31627 0.46035 2.8651 0.488251 2.22324 0.544069 Z"/>
    <path id="path2" fill="#000000" stroke="none" d="M 9.7305 0.711399 C 9.5351 0.93466 9.4514 1.32535 9.563 1.548611 C 9.7026 1.93931 10.2049 2.10675 12.1863 2.413731 C 12.437401 2.441629 11.8235 3.25094 10.5119 4.61838 C 9.3677 5.81838 8.3072 7.0184 8.1677 7.3254 C 7.9165 7.9114 8.363 8.7207 8.9491 8.7207 C 9.1165 8.7486 10.3444 7.5765 11.684 6.15326 L 14.1119 3.557911 L 14.139799 4.897449 C 14.139799 6.40442 14.558399 6.76721 15.730499 6.23698 C 16.428101 5.93001 16.428101 5.87419 16.3165 3.53001 C 16.2607 2.246281 16.037399 1.018379 15.870001 0.850941 C 15.7026 0.683491 14.3351 0.48814 12.8281 0.404419 C 10.6235 0.292801 10.0095 0.34861 9.7305 0.711399 Z"/>
</svg>
