<?xml version="1.0" encoding="UTF-8"?>
<!-- Generated by Pixelmator Pro 3.3.9 -->
<svg width="22" height="19" viewBox="0 0 22 19" xmlns="http://www.w3.org/2000/svg">
    <path id="path1" fill="#000000" stroke="none" d="M 7.17607 0.336029 C 2.2442 0.45603 1.37387 0.52803 0.7409 0.936029 L 0.00244 1.368031 L 0.16068 6.69603 C 0.3453 12.744 0.66178 17.304001 0.89914 17.52 C 1.00464 17.615999 3.35189 17.712 6.1475 17.76 C 9.6288 17.808001 11.264 17.903999 11.3431 18.096001 C 11.475 18.431999 16.143101 18.455999 16.143101 18.120001 C 16.143101 18 17.303499 17.856001 18.7013 17.832001 L 21.285999 17.76 L 21.365101 14.4 C 21.417801 12.552 21.3915 8.832 21.285999 6.14403 C 21.048599 -0.215969 21.285999 0.096029 16.354099 0.16803 C 14.4288 0.19203 10.2882 0.26403 7.17607 0.336029 Z M 20.151899 1.176029 C 20.257401 1.32003 20.3629 1.77603 20.3629 2.184031 L 20.3629 2.95203 L 16.354099 3.120029 C 14.1387 3.19203 9.998 3.312031 7.17607 3.360031 C 4.35409 3.384029 1.8486 3.50403 1.61123 3.576031 C 1.26838 3.72003 1.18925 3.52803 1.13651 2.520031 C 1.11013 1.87203 1.11013 1.29603 1.16288 1.29603 C 1.37387 1.200029 11.475 0.96003 15.483801 0.936029 C 18.5695 0.912029 20.02 0.98403 20.151899 1.176029 Z M 20.2838 4.368031 C 20.521099 5.11203 20.5739 16.799999 20.3629 17.016001 C 20.0464 17.280001 5.51453 17.232 1.61123 16.944 C 1.242 16.896 0.68816 4.728031 1.05739 4.392029 C 1.21563 4.24803 4.09035 4.104031 8.52112 4.03203 C 12.5035 3.98403 15.8002 3.888031 15.853001 3.816031 C 15.905701 3.76803 16.881599 3.72003 18.0156 3.72003 C 20.0464 3.72003 20.0991 3.74403 20.2838 4.368031 Z"/>
    <path id="path2" fill="#000000" stroke="none" d="M 3.87921 1.80002 C 3.77372 1.944019 3.80009 2.184021 3.95834 2.32802 C 4.11658 2.472019 4.27482 2.472019 4.40669 2.28002 C 4.51218 2.136021 4.48581 1.896019 4.32757 1.75202 C 4.16932 1.608021 4.01108 1.608021 3.87921 1.80002 Z"/>
    <path id="path3" fill="#000000" stroke="none" d="M 5.33008 1.89603 C 5.33008 2.11203 5.51469 2.280029 5.75206 2.280029 C 5.98942 2.280029 6.12129 2.16003 6.06854 1.992031 C 5.9103 1.56003 5.33008 1.488029 5.33008 1.89603 Z"/>
    <path id="path4" fill="#000000" stroke="none" d="M 2.08617 1.944019 C 1.74331 2.25602 1.90156 2.52002 2.4554 2.52002 C 2.74551 2.52002 2.9565 2.400021 2.90375 2.232019 C 2.77189 1.896019 2.32353 1.72802 2.08617 1.944019 Z"/>
    <path id="path5" fill="#000000" stroke="none" d="M 7.22885 2.18395 C 7.2816 2.37595 7.38709 2.543949 7.51896 2.543949 C 7.62446 2.519951 10.1827 2.519951 13.242 2.519951 C 17.9893 2.519951 18.7805 2.471951 18.7805 2.15995 C 18.7805 1.84795 17.9629 1.79995 12.9519 1.79995 C 7.83545 1.79995 7.14973 1.84795 7.22885 2.18395 Z"/>
    <path id="path6" fill="#000000" stroke="none" d="M 8.41542 6.52802 C 7.41322 6.67202 7.2286 7.128 7.04399 9.936 C 6.88575 12.24 6.91212 12.456 7.46597 13.176001 L 8.04619 13.968 L 11.1055 14.136 C 14.1649 14.304001 14.1649 14.304001 14.7715 13.68 C 15.193399 13.224001 15.3517 12.744 15.3517 11.928 C 15.3517 10.584 15.140699 10.224 14.2967 10.152 C 13.6901 10.08 13.6374 10.152 13.7165 11.064 C 13.822 12.504 13.3473 12.84 11.1846 12.84 C 8.7319 12.816 8.49454 12.624 8.49454 10.392 C 8.49454 8.448 8.89014 7.8 9.9978 7.8 C 10.6044 7.8 10.9473 7.272 10.7099 6.72002 C 10.5517 6.36002 9.9715 6.31202 8.41542 6.52802 Z"/>
    <path id="path7" fill="#000000" stroke="none" d="M 12.0026 6.52796 C 11.5015 6.69596 11.5806 7.8 12.0817 7.8 C 12.3982 7.8 12.2927 8.016 11.7125 8.712 C 11.2641 9.216 10.8158 9.912 10.7366 10.272 C 10.4201 11.328 11.4751 11.112 12.6092 9.84 C 13.5586 8.832 13.6377 8.784 14.0861 9.168 C 14.5344 9.528 14.6136 9.528 15.009199 9.192 C 15.642099 8.592 15.2729 6.69596 14.4817 6.50396 C 13.796 6.33596 12.4509 6.33596 12.0026 6.52796 Z"/>
</svg>
