<?xml version="1.0" encoding="UTF-8"?>
<!-- Generated by Pixelmator Pro 3.3.9 -->
<svg width="18" height="18" viewBox="0 0 18 18" xmlns="http://www.w3.org/2000/svg">
    <path id="path1" fill="currentColor" stroke="none" d="M 6.86233 1.5751 C 6.41233 2.062599 5.88733 3.150101 5.66233 3.9751 C 5.28733 5.3251 5.02483 5.6251 3.44983 6.3001 C -0.18767 7.8751 -0.37517 8.7751 2.54983 10.1251 C 4.68733 11.1376 4.87483 11.4001 4.87483 13.312599 C 4.91233 15.9751 5.84983 18.937599 6.26233 17.7001 C 6.37483 17.4751 6.67483 17.250099 6.93733 17.250099 C 7.4998 17.250099 9.7498 14.5501 9.7498 13.875099 C 9.7498 13.5751 10.0123 13.5376 10.4248 13.687599 C 12.5998 14.587601 14.3248 15.0376 15.0748 14.9251 C 15.8248 14.812599 15.9373 14.625099 15.8248 13.500099 C 15.7498 12.7876 15.4498 11.4751 15.149799 10.6501 L 14.549801 9.0751 L 15.899799 7.2751 C 16.649799 6.2626 17.4373 5.2126 17.6998 4.9126 C 18.3748 4.087601 17.2873 3.750099 14.587299 4.0126 L 12.1123 4.2376 L 10.4998 2.4751 C 8.6998 0.525101 7.9873 0.375099 6.86233 1.5751 Z"/>
</svg>
