<svg width="24" height="24" viewBox="0 0 24 24" fill="none" xmlns="http://www.w3.org/2000/svg">
  <path d="M9.86233 4.5751C9.41233 5.0626 8.88733 6.1501 8.66233 6.9751C8.28733 8.3251 8.02483 8.6251 6.44983 9.3001C2.81233 10.8751 2.62483 11.7751 5.54983 13.1251C7.68733 14.1376 7.87483 14.4001 7.87483 16.3126C7.91233 18.9751 8.84983 21.9376 9.26233 20.7001C9.37483 20.4751 9.67483 20.2501 9.93733 20.2501C10.4998 20.2501 12.7498 17.5501 12.7498 16.8751C12.7498 16.5751 13.0123 16.5376 13.4248 16.6876C15.5998 17.5876 17.3248 18.0376 18.0748 17.9251C18.8248 17.8126 18.9373 17.6251 18.8248 16.5001C18.7498 15.7876 18.4498 14.4751 18.1498 13.6501L17.5498 12.0751L18.8998 10.2751C19.6498 9.2626 20.4373 8.2126 20.6998 7.9126C21.3748 7.0876 20.2873 6.7501 17.5873 7.0126L15.1123 7.2376L13.4998 5.4751C11.6998 3.5251 10.9873 3.3751 9.86233 4.5751Z" fill="currentColor"/>
</svg>
