<?xml version="1.0" encoding="UTF-8"?>
<!-- Generated by Pixelmator Pro 3.3.9 -->
<svg width="9" height="18" viewBox="0 0 9 18" xmlns="http://www.w3.org/2000/svg">
    <path id="path1" fill="currentColor" stroke="none" d="M 3.93339 0.66885 C 3.91117 0.71483 3.67413 0.79759 3.40746 0.86195 C 2.36302 1.110229 1.25191 2.314831 0.99265 3.482639 C 0.9482 3.65736 0.88894 3.80448 0.85191 3.80448 C 0.80746 3.80448 0.77783 4.23667 0.77783 4.815979 C 0.77783 5.40448 0.80746 5.82747 0.85191 5.82747 C 0.88894 5.82747 0.95561 5.98379 1.00005 6.18609 C 1.13339 6.82057 1.50376 7.7125 1.7482 8.016 C 1.97783 8.2918 2.21487 8.4666 2.65191 8.6689 C 2.95561 8.816 2.97783 9.0183 2.71857 9.3493 C 2.45191 9.7079 2.20746 10.2964 1.90376 11.3447 C 1.51117 12.7148 1.4445 13.2666 1.4445 15.289499 L 1.4445 17.128599 L 1.65191 17.2666 C 1.76302 17.3309 1.96302 17.422899 2.09635 17.4597 C 2.22968 17.4872 2.33339 17.579201 2.33339 17.6528 C 2.33339 17.7631 2.61487 17.7815 4.03709 17.7815 C 5.563 17.7815 5.9704 17.726299 5.6519 17.57 C 5.6001 17.5424 5.6889 17.514799 5.8519 17.5056 C 7.2741 17.441299 8.2593 17.3493 8.3112 17.2941 C 8.3408 17.248199 8.363 16.301001 8.363 15.179199 C 8.3556 13.193001 8.3482 13.110201 8.1334 12.1999 C 7.9704 11.5102 7.763 10.9493 7.3704 10.1033 C 6.7778 8.8252 6.7778 8.8711 7.3186 8.439 C 8.0889 7.8321 8.6297 6.52632 8.6297 5.28494 C 8.6297 4.052761 8.3038 3.105629 7.5778 2.21368 C 7.0371 1.551609 6.0593 0.86195 5.6593 0.86195 C 5.5482 0.86195 5.4075 0.79759 5.3408 0.72402 C 5.2593 0.622869 5.0667 0.58609 4.60005 0.58609 C 4.25191 0.58609 3.95561 0.622869 3.93339 0.66885 Z M 3.82968 4.052761 C 4.13339 4.494141 3.99265 4.99988 3.57042 4.99988 C 3.25931 4.99988 3.1482 4.86195 3.1482 4.44816 C 3.1482 4.26425 3.18524 4.07115 3.23709 4.006781 C 3.37042 3.841259 3.70376 3.868851 3.82968 4.052761 Z M 6.3186 4.245861 C 6.3482 4.64126 6.1556 4.926319 5.8964 4.88954 C 5.6519 4.85276 5.526 4.466549 5.6519 4.12632 C 5.726 3.924019 5.7778 3.887239 6.0223 3.914829 C 6.2741 3.94241 6.2964 3.969999 6.3186 4.245861 Z M 6.0964 6.08494 C 6.126 6.47115 5.8889 6.9677 5.5926 7.1148 C 5.4593 7.1792 5.1778 7.216 4.88894 7.1884 C 4.48154 7.1608 4.37783 7.1148 4.18524 6.88494 C 3.91857 6.5723 3.83709 6.25046 3.96302 6.05736 C 4.10376 5.85506 4.25191 5.89184 4.53339 6.19529 C 4.68894 6.3608 4.86672 6.47115 5.0001 6.47115 C 5.2741 6.47115 5.4445 6.38839 5.4445 6.25046 C 5.4445 6.00218 5.6815 5.72632 5.8741 5.75391 C 6.0371 5.7723 6.0815 5.83667 6.0964 6.08494 Z"/>
</svg>
