<svg width="24" height="24" viewBox="0 0 24 24" fill="none" xmlns="http://www.w3.org/2000/svg">
  <path d="M8.93339 3.66885C8.91117 3.71483 8.67413 3.79759 8.40746 3.86195C7.36302 4.11023 6.25191 5.31483 5.99265 6.48264C5.9482 6.65736 5.88894 6.80448 5.85191 6.80448C5.80746 6.80448 5.77783 7.23667 5.77783 7.81598C5.77783 8.40448 5.80746 8.82747 5.85191 8.82747C5.88894 8.82747 5.95561 8.98379 6.00005 9.18609C6.13339 9.82057 6.50376 10.7125 6.7482 11.016C6.97783 11.2918 7.21487 11.4666 7.65191 11.6689C7.95561 11.816 7.97783 12.0183 7.71857 12.3493C7.45191 12.7079 7.20746 13.2964 6.90376 14.3447C6.51117 15.7148 6.4445 16.2666 6.4445 18.2895V20.1286L6.65191 20.2666C6.76302 20.3309 6.96302 20.4229 7.09635 20.4597C7.22968 20.4872 7.33339 20.5792 7.33339 20.6528C7.33339 20.7631 7.61487 20.7815 9.03709 20.7815C10.563 20.7815 10.9704 20.7263 10.6519 20.57C10.6001 20.5424 10.6889 20.5148 10.8519 20.5056C12.2741 20.4413 13.2593 20.3493 13.3112 20.2941C13.3408 20.2482 13.363 19.301 13.363 18.1792C13.3556 16.193 13.3482 16.1102 13.1334 15.1999C12.9704 14.5102 12.763 13.9493 12.3704 13.1033C11.7778 11.8252 11.7778 11.8711 12.3186 11.439C13.0889 10.8321 13.6297 9.52632 13.6297 8.28494C13.6297 7.05276 13.3038 6.10563 12.5778 5.21368C12.0371 4.55161 11.0593 3.86195 10.6593 3.86195C10.5482 3.86195 10.4075 3.79759 10.3408 3.72402C10.2593 3.62287 10.0667 3.58609 9.60005 3.58609C9.25191 3.58609 8.95561 3.62287 8.93339 3.66885ZM8.82968 7.05276C9.13339 7.49414 8.99265 7.99988 8.57042 7.99988C8.25931 7.99988 8.1482 7.86195 8.1482 7.44816C8.1482 7.26425 8.18524 7.07115 8.23709 7.00678C8.37042 6.84126 8.70376 6.86885 8.82968 7.05276ZM11.3186 7.24586C11.3482 7.64126 11.1556 7.92632 10.8964 7.88954C10.6519 7.85276 10.526 7.46655 10.6519 7.12632C10.726 6.92402 10.7778 6.88724 11.0223 6.91483C11.2741 6.94241 11.2964 6.97 11.3186 7.24586ZM11.0964 9.08494C11.126 9.47115 10.8889 9.9677 10.5926 10.1148C10.4593 10.1792 10.1778 10.216 9.88894 10.1884C9.48154 10.1608 9.37783 10.1148 9.18524 9.88494C8.91857 9.5723 8.83709 9.25046 8.96302 9.05736C9.10376 8.85506 9.25191 8.89184 9.53339 9.19529C9.68894 9.3608 9.86672 9.47115 10.0001 9.47115C10.2741 9.47115 10.4445 9.38839 10.4445 9.25046C10.4445 9.00218 10.6815 8.72632 10.8741 8.75391C11.0371 8.7723 11.0815 8.83667 11.0964 9.08494Z" fill="currentColor"/>
</svg>
