<?xml version="1.0" encoding="UTF-8"?>
<!-- Generated by Pixelmator Pro 3.3.9 -->
<svg width="62" height="55" viewBox="0 0 62 55" xmlns="http://www.w3.org/2000/svg">
    <g id="g1">
        <path id="path1" fill="#000000" stroke="none" d="M 4.666667 0.599998 C 0.666667 1.666664 -0.4 3.133331 0.666667 6.200001 C 1.466666 8.866665 2.266666 9 30.133335 9 C 55.333332 9 58.800003 8.733334 59.599998 6.866665 C 61.599998 1.400002 59.199997 0.866669 32.666668 0.333336 C 18.799999 0.066666 6.133333 0.199997 4.666667 0.599998 Z"/>
        <path id="path2" fill="#000000" stroke="none" d="M 26.400002 22.066666 C 4.133333 22.333332 2.666667 22.599998 1.333333 25.133335 C -0.933333 29.266666 2 32.066666 7.6 31 C 10 30.599998 22.533333 30.200001 35.333332 30.200001 C 55.599998 30.200001 58.933334 29.933334 59.599998 28.066666 C 60.933334 24.733334 58.133331 21.799999 53.866665 21.666668 C 51.733334 21.666668 39.333332 21.799999 26.400002 22.066666 Z"/>
        <path id="path3" fill="#000000" stroke="none" d="M 2.266666 47.266666 C 0.266666 49.133331 1.466666 53.133331 4.4 54.200001 C 6 54.866669 18.799999 55 32.666668 54.733334 C 52.133335 54.333332 58.400002 53.799999 59.866669 52.333336 C 61.466667 50.866669 61.466667 50.066666 60 48.466667 C 58.666664 46.599998 54 46.333336 30.666668 46.333336 C 15.6 46.333336 2.666667 46.733334 2.266666 47.266666 Z"/>
    </g>
</svg>
