<?xml version="1.0" standalone="no"?>
<!DOCTYPE svg PUBLIC "-//W3C//DTD SVG 20010904//EN"
 "http://www.w3.org/TR/2001/REC-SVG-20010904/DTD/svg10.dtd">
<svg version="1.0" xmlns="http://www.w3.org/2000/svg"
 width="641.000000pt" height="706.000000pt" viewBox="0 0 641.000000 706.000000"
 preserveAspectRatio="xMidYMid meet">
<metadata>
Created by potrace 1.16, written by Peter Selinger 2001-2019
</metadata>
<g transform="translate(0.000000,706.000000) scale(0.100000,-0.100000)"
fill="#000000" stroke="none">
<path d="M2585 6784 c-127 -10 -335 -61 -460 -113 -66 -27 -228 -100 -392
-176 -66 -31 -248 -148 -364 -235 -335 -251 -504 -431 -640 -686 -62 -116 -95
-209 -114 -326 -8 -51 -27 -151 -41 -223 -26 -125 -26 -140 -21 -360 4 -181
10 -247 25 -309 14 -56 17 -87 11 -104 -9 -23 4 -93 32 -177 75 -222 93 -273
105 -292 8 -12 23 -47 35 -77 24 -65 73 -160 142 -276 70 -116 82 -133 163
-230 39 -47 84 -105 101 -130 17 -25 57 -74 90 -110 l59 -65 -2 -62 c-2 -35
-8 -72 -14 -83 -6 -12 -9 -28 -6 -38 3 -12 -13 -30 -52 -61 -31 -24 -84 -76
-117 -114 -33 -39 -77 -89 -97 -111 -69 -78 -151 -258 -218 -484 -11 -35 -29
-89 -41 -120 -12 -32 -27 -82 -33 -112 -10 -49 -15 -57 -52 -77 -44 -25 -45
-28 -59 -193 -2 -19 -8 -66 -15 -105 -6 -38 -12 -124 -13 -190 -2 -97 2 -129
17 -169 18 -46 18 -68 12 -316 -6 -232 -5 -268 8 -279 27 -22 36 -2 36 77 0
42 3 134 7 205 l6 127 22 -14 c12 -8 50 -20 85 -28 l62 -12 -6 -55 c-4 -30
-36 -133 -72 -229 -36 -95 -63 -180 -60 -187 6 -16 96 -45 141 -45 55 0 85 58
85 164 0 34 7 92 15 131 8 38 15 99 15 134 0 61 1 63 23 57 71 -21 217 -47
320 -56 128 -12 147 -8 147 34 0 12 7 32 17 45 15 22 15 25 0 36 -9 7 -61 15
-114 18 -175 11 -358 44 -390 69 -7 5 -27 8 -45 7 -47 -4 -85 10 -91 33 -5 16
-9 18 -26 8 -16 -8 -28 -7 -52 6 -17 9 -42 14 -55 11 -13 -2 -24 0 -24 6 0 6
48 8 128 6 l127 -4 -3 95 c-2 64 5 150 23 265 24 163 31 277 19 320 -8 29 -89
65 -146 65 -36 0 -48 4 -48 15 0 35 62 44 131 20 24 -9 53 -13 64 -11 14 4 52
72 135 243 99 204 123 245 173 297 79 84 80 93 18 165 -40 46 -63 63 -101 76
l-50 17 20 28 c27 38 114 110 133 110 9 0 40 -22 70 -50 30 -27 59 -50 64 -50
6 0 18 -9 29 -21 10 -12 44 -34 75 -49 30 -16 61 -35 68 -44 8 -9 20 -16 27
-16 8 0 30 -26 50 -58 85 -135 141 -220 175 -267 75 -101 189 -304 189 -335 0
-20 5 -30 16 -30 8 0 22 -16 30 -36 22 -53 66 -223 60 -233 -3 -5 0 -21 8 -37
8 -16 33 -139 57 -273 l43 -243 35 -27 c20 -14 63 -47 95 -73 54 -43 95 -60
97 -40 6 91 4 105 -12 109 -13 4 -18 20 -22 76 -3 40 -12 96 -21 126 -9 30
-20 93 -26 140 -6 47 -15 109 -20 136 -43 229 -50 257 -98 366 -28 63 -65 163
-82 224 -18 60 -38 122 -46 137 -19 37 -18 41 9 24 40 -27 170 -77 262 -102
108 -29 372 -74 436 -74 28 0 51 -6 58 -14 8 -10 41 -16 94 -20 45 -3 91 -6
102 -7 77 -6 402 25 490 46 55 14 150 35 210 48 107 23 263 78 357 125 12 6
-55 -113 -69 -121 -7 -4 -13 -16 -13 -26 0 -9 -23 -62 -50 -117 -55 -108 -92
-218 -114 -333 -8 -40 -18 -76 -23 -80 -4 -3 -9 -55 -11 -116 -1 -60 -5 -123
-7 -140 -3 -16 -7 -79 -9 -140 -3 -60 -12 -135 -20 -165 -20 -70 -20 -94 0
-110 13 -12 26 -3 92 62 137 133 206 195 240 212 33 17 45 56 17 56 -8 0 -17
11 -21 25 -10 39 12 191 41 285 14 47 37 144 51 215 46 233 64 299 100 375 48
101 125 220 198 305 77 88 204 214 210 208 3 -3 10 4 17 15 12 20 14 19 58
-14 86 -66 284 -296 295 -344 6 -24 2 -26 -145 -75 -83 -27 -175 -62 -203 -77
-28 -15 -96 -50 -151 -77 -89 -43 -106 -56 -153 -115 -69 -87 -75 -101 -65
-161 7 -41 13 -51 30 -53 17 -3 26 5 37 32 27 64 94 118 231 188 72 37 157 75
191 87 33 11 98 38 144 61 134 64 159 57 211 -66 22 -49 39 -92 39 -95 0 -17
-123 -59 -199 -68 -140 -18 -157 -42 -107 -155 13 -28 33 -94 45 -146 25 -100
94 -286 116 -309 18 -19 65 -9 155 35 l75 35 17 -20 c15 -19 35 -91 53 -192
l7 -36 -121 -7 c-158 -9 -208 -19 -286 -57 -63 -32 -222 -145 -281 -201 l-31
-29 -6 73 c-4 40 -14 97 -23 127 -12 41 -14 73 -9 137 8 88 13 98 56 103 5 0
15 14 20 31 6 16 19 32 30 35 11 4 19 15 19 27 0 13 24 44 61 78 l61 57 -7 49
c-4 30 -20 69 -41 102 -28 43 -39 52 -63 52 -26 0 -34 -10 -100 -130 -39 -71
-71 -134 -71 -140 0 -5 -9 -26 -20 -47 -21 -41 -40 -141 -40 -211 0 -35 4 -45
20 -49 11 -3 20 -14 20 -24 0 -11 9 -52 20 -91 11 -40 20 -91 20 -113 0 -22 5
-60 11 -85 21 -92 38 -245 29 -254 -13 -13 -13 -46 0 -46 5 0 12 -16 16 -36 4
-19 13 -38 21 -41 8 -3 52 11 97 30 158 69 355 123 505 141 120 13 131 12 131
-13 0 -23 19 -41 36 -34 8 3 14 13 14 23 0 31 97 41 146 15 16 -8 44 -15 62
-15 29 0 32 -3 32 -29 0 -81 28 -124 56 -86 19 25 18 60 -2 90 -16 25 -16 25
13 25 38 0 54 16 43 45 -4 12 -11 48 -14 80 -8 70 -11 75 -42 75 -14 0 -26 6
-28 13 -18 67 -27 104 -29 116 -1 9 18 19 58 28 99 25 101 34 25 104 -58 53
-63 61 -48 72 10 6 34 24 55 39 70 48 117 185 78 228 -23 26 -71 40 -144 44
-34 2 -64 6 -67 9 -4 3 4 20 16 36 38 55 90 178 111 268 17 72 20 104 14 181
l-7 92 35 53 c63 95 89 185 95 328 5 128 -3 169 -33 169 -7 0 -22 -15 -34 -33
-23 -37 -148 -163 -155 -156 -3 2 4 76 15 164 14 111 19 202 17 295 -3 123 -6
140 -32 197 -43 94 -67 93 -138 -9 l-43 -61 -7 52 c-5 28 -22 87 -38 130 -26
67 -36 82 -64 95 -19 9 -41 16 -48 16 -25 0 -46 -33 -62 -94 -31 -119 -153
-390 -186 -413 -11 -8 -20 -20 -20 -28 0 -9 -29 8 -72 40 -40 30 -78 55 -84
55 -24 0 -34 -31 -37 -112 -2 -78 0 -86 21 -102 35 -27 56 -14 48 32 -3 20 -9
55 -12 77 l-7 40 23 -28 c13 -16 28 -26 37 -23 20 8 171 -152 213 -227 52 -91
70 -90 117 9 36 76 37 77 46 48 5 -16 10 -105 11 -199 1 -141 -2 -178 -17
-215 -24 -62 -25 -65 -2 -65 13 0 26 13 39 40 28 56 35 325 12 434 -14 68 -37
111 -58 111 -4 0 -24 -34 -43 -75 -19 -41 -36 -75 -39 -75 -2 0 -17 21 -32 47
-15 26 -48 69 -72 95 l-44 47 19 24 c34 44 156 336 180 432 8 33 18 64 22 68
17 17 39 -7 71 -76 29 -62 33 -83 34 -154 1 -52 5 -84 12 -87 16 -6 66 45 117
117 l42 60 24 -54 c23 -49 25 -67 25 -189 0 -188 -29 -419 -62 -493 -20 -46
-23 -60 -13 -70 10 -9 17 -7 34 13 12 14 45 43 72 65 28 22 76 67 109 100 l59
60 -6 -100 c-9 -165 -82 -335 -152 -353 -39 -11 -43 -47 -5 -47 25 0 25 -1 28
-99 2 -79 -2 -114 -19 -170 -29 -96 -71 -188 -114 -248 -55 -76 -49 -82 75
-88 152 -8 170 -23 131 -112 -31 -70 -117 -138 -166 -131 -25 4 -33 12 -47 51
-40 115 -58 155 -78 175 -58 59 -87 117 -141 287 -22 69 -54 161 -71 205 -18
44 -35 98 -39 120 -3 22 -11 60 -18 85 -6 25 -13 57 -16 72 -3 15 -11 33 -19
41 -10 10 -12 17 -4 25 15 15 1 32 -28 32 -19 0 -33 14 -64 63 -22 34 -43 72
-46 84 -3 13 -23 40 -43 61 -20 21 -76 82 -124 136 -48 53 -111 116 -140 140
-51 42 -52 43 -52 97 0 52 -1 54 -29 57 l-29 4 29 23 c27 21 28 25 17 56 -17
50 -5 89 45 139 39 40 86 98 192 235 119 154 202 292 236 392 95 280 144 594
125 798 -6 61 -15 229 -21 375 -10 277 -24 388 -65 525 -29 93 -146 335 -202
415 -36 53 -141 156 -266 263 -67 57 -193 198 -259 289 -34 47 -69 80 -124
117 -42 28 -80 51 -84 51 -4 0 -15 9 -25 20 -9 10 -38 27 -64 36 -73 27 -211
84 -266 110 -27 12 -74 32 -103 43 -29 12 -75 32 -102 46 -62 31 -213 82 -301
100 -38 8 -133 19 -211 25 -79 6 -200 20 -271 30 -118 19 -340 25 -482 14z
m501 -64 c71 -10 179 -22 239 -25 183 -11 351 -52 513 -126 108 -50 269 -119
383 -164 133 -53 309 -170 353 -234 41 -59 193 -237 242 -282 22 -19 69 -59
106 -88 130 -101 180 -167 278 -365 137 -280 149 -341 173 -866 16 -356 14
-459 -8 -605 -22 -152 -86 -388 -134 -498 -37 -85 -240 -369 -360 -505 -51
-57 -109 -102 -131 -102 -10 0 -108 -66 -130 -86 -40 -39 -305 -171 -400 -199
-14 -4 -31 -12 -39 -19 -8 -6 -71 -29 -141 -52 -90 -29 -131 -38 -142 -31 -10
7 -65 2 -174 -17 -254 -44 -271 -45 -721 -47 -500 -1 -565 6 -753 86 -58 24
-166 67 -240 94 -74 28 -155 61 -180 74 -173 90 -261 144 -342 209 -51 41
-128 100 -170 132 -49 36 -92 78 -117 114 -21 31 -65 86 -96 122 -107 122
-271 402 -310 530 -4 14 -13 32 -20 40 -24 29 -75 208 -75 262 0 31 -16 112
-39 195 -37 132 -40 158 -50 345 -11 198 -8 264 18 398 5 25 20 108 34 185 35
199 93 340 209 507 87 126 164 214 251 288 168 142 293 241 349 278 32 20 83
56 115 80 61 45 173 103 388 200 221 101 323 136 505 173 128 25 446 25 616
-1z m-1342 -4213 c51 -25 107 -48 124 -52 24 -5 36 -15 46 -39 19 -45 56 -56
180 -56 75 0 116 -5 156 -19 45 -16 105 -21 340 -31 157 -6 321 -11 365 -11
44 1 112 -2 150 -6 64 -6 67 -7 35 -14 -88 -20 -207 -21 -335 -4 -109 15 -169
17 -372 11 -171 -5 -243 -4 -243 3 0 6 -12 11 -26 11 -53 0 -349 109 -443 163
-127 73 -311 246 -311 292 0 3 54 -42 120 -99 94 -81 142 -115 214 -149z
m3036 229 c0 -2 -7 -7 -16 -10 -8 -3 -12 -2 -9 4 6 10 25 14 25 6z m-3174 -32
c46 -3 97 -26 194 -88 36 -23 90 -54 120 -68 81 -38 407 -145 481 -158 141
-24 146 -29 24 -24 -84 4 -136 11 -173 25 -31 11 -78 19 -113 19 -49 0 -60 3
-56 14 8 21 -13 34 -63 42 -140 20 -300 92 -411 184 -88 74 -90 75 -64 65 11
-4 39 -9 61 -11z m-106 -131 c36 -33 80 -69 98 -82 17 -12 32 -27 32 -32 0
-17 -39 -9 -50 11 -6 11 -19 20 -30 20 -20 0 -140 117 -140 137 0 6 -12 21
-26 32 -17 14 -24 26 -20 37 5 13 13 8 39 -24 17 -22 61 -67 97 -99z m3215
112 c-87 -71 -234 -169 -315 -210 -89 -45 -91 -45 -111 -27 -20 19 -19 20 68
57 136 58 235 110 305 159 67 48 103 62 53 21z m-5 -114 c-14 -28 -174 -124
-267 -161 -43 -18 -85 -35 -93 -39 -8 -5 -42 -22 -75 -39 -33 -17 -78 -33
-100 -37 l-40 -6 30 17 c17 9 37 23 45 30 9 7 47 25 85 39 105 40 209 97 315
174 72 52 97 65 103 55 4 -8 3 -23 -3 -33z m-360 -12 c0 -7 -67 -37 -200 -89
-58 -23 -112 -50 -120 -60 -16 -19 -89 -34 -305 -65 -108 -15 -596 -23 -582
-9 3 3 77 12 164 20 484 43 720 93 973 206 51 23 69 22 70 -3z m-3152 -133
c15 -8 44 -32 66 -54 l38 -40 -20 -29 c-12 -15 -37 -43 -56 -61 -24 -23 -72
-108 -152 -268 -69 -140 -121 -233 -128 -230 -6 2 -37 10 -68 17 -32 7 -58 16
-58 20 0 20 44 170 84 286 54 157 113 279 162 333 40 44 81 52 132 26z m840
-13 c-10 -2 -28 -2 -40 0 -13 2 -5 4 17 4 22 1 32 -1 23 -4z m-188 -58 c149
-60 164 -67 125 -60 -48 9 -265 98 -265 108 0 5 6 7 13 4 6 -3 64 -26 127 -52z
m2730 -3 c0 -4 -19 -30 -43 -57 -24 -28 -52 -65 -63 -83 -16 -29 -23 -33 -48
-28 -16 3 -42 6 -58 6 l-29 0 20 26 c12 15 21 31 21 36 0 13 51 58 65 58 7 0
37 11 67 25 57 27 68 29 68 17z m-515 -21 c-20 -19 -193 -61 -294 -71 -57 -5
-180 -9 -275 -9 -190 2 -180 4 144 33 96 9 209 23 250 31 41 8 93 16 115 18
22 2 47 4 55 5 9 1 10 -1 5 -7z m-2180 -44 c33 -11 69 -26 80 -33 11 -8 29
-14 40 -14 17 0 32 -21 73 -107 29 -60 52 -111 52 -115 0 -9 -102 28 -183 66
-49 23 -63 37 -110 109 -29 45 -59 92 -66 104 -11 22 -10 22 21 16 18 -3 60
-15 93 -26z m2239 -8 c-6 -11 -66 -39 -81 -39 -7 1 76 48 85 50 2 0 0 -5 -4
-11z m176 -24 c0 -12 -81 -43 -245 -92 -297 -89 -431 -121 -620 -149 -99 -14
-196 -28 -216 -31 -30 -4 -38 -1 -53 21 l-17 27 -157 -7 c-121 -5 -177 -3
-242 9 -47 9 -114 19 -150 22 -36 4 -90 15 -120 26 l-55 19 65 -6 c36 -2 115
-9 175 -14 148 -13 640 -13 745 0 47 6 126 19 175 30 50 10 140 26 200 35 138
20 216 36 380 80 72 19 131 34 133 35 1 0 2 -2 2 -5z m-1601 -19 c-11 -11
-430 -28 -475 -20 -46 8 -42 9 61 15 141 7 420 10 414 5z m-498 -56 c11 0 19
-9 21 -22 2 -17 10 -23 28 -23 14 0 39 -10 55 -22 17 -11 53 -33 80 -48 46
-25 47 -27 16 -21 -41 7 -202 78 -241 106 -17 12 -35 30 -41 41 -10 19 -9 19
27 4 20 -8 45 -15 55 -15z m1547 18 c-233 -46 -1316 -73 -1357 -33 -2 3 29 5
70 6 41 0 162 8 269 17 144 13 308 17 623 17 235 0 413 -3 395 -7z m418 -63
c-11 -8 -40 -22 -65 -31 -25 -10 -75 -30 -111 -45 -36 -15 -83 -30 -105 -34
-22 -4 -105 -23 -185 -42 -80 -19 -197 -41 -260 -48 -136 -17 -290 -19 -290
-5 0 6 19 10 43 10 55 0 374 45 468 66 82 18 351 93 444 123 72 24 86 25 61 6z
m252 0 c1 -1 -12 -29 -31 -61 -18 -32 -36 -66 -39 -74 -4 -12 -25 -16 -88 -19
-45 -1 -80 1 -77 6 58 104 90 152 105 156 15 5 123 -2 130 -8z m795 -79 c4
-10 -5 -15 -31 -19 -21 -2 -71 -21 -113 -40 -41 -20 -111 -49 -155 -66 -130
-48 -333 -160 -383 -211 -53 -54 -45 -37 22 48 50 63 75 82 150 108 23 8 62
28 88 45 44 28 143 67 314 124 83 28 101 30 108 11z m-3077 -106 c13 -8 30
-43 48 -99 15 -47 29 -92 32 -98 4 -9 -4 -9 -30 2 -19 8 -46 15 -58 15 -18 0
-33 17 -66 73 -23 39 -57 97 -76 128 l-34 56 82 -32 c44 -17 90 -37 102 -45z
m453 54 c9 -8 -45 -2 -64 6 -14 7 -8 8 20 3 22 -3 42 -7 44 -9z m167 -19 c49
-8 105 -17 124 -19 19 -2 -8 -2 -60 0 -105 6 -253 31 -189 33 19 1 76 -6 125
-14z m350 -21 c-3 -9 -6 -22 -6 -30 0 -10 -14 -14 -57 -14 -52 0 -59 3 -69 25
-11 22 -10 24 20 28 17 2 51 5 75 5 36 2 42 -1 37 -14z m1194 -82 c-10 -32
-24 -85 -30 -118 -10 -50 -15 -60 -33 -62 -12 -1 -62 -8 -112 -16 -49 -7 -91
-13 -92 -12 -1 1 25 59 59 129 l61 126 76 4 c42 1 79 4 82 5 4 1 -1 -24 -11
-56z m1075 -184 c10 -27 14 -54 10 -75 -7 -37 8 -73 30 -73 31 0 12 -18 -54
-51 l-69 -35 21 57 c26 72 20 89 -31 89 l-39 0 -27 -72 c-39 -110 -53 -183
-37 -202 23 -27 76 -19 152 24 39 22 72 40 74 40 1 0 5 -9 8 -20 7 -29 43 -26
54 5 7 23 10 19 27 -36 l20 -60 -30 -24 c-16 -13 -33 -24 -38 -25 -4 0 -55
-20 -112 -45 -56 -25 -107 -45 -111 -45 -9 0 -88 197 -102 255 -5 22 -15 63
-22 90 -7 28 -23 72 -36 100 -21 45 -22 51 -7 62 9 6 46 15 82 18 70 7 140 26
182 50 35 20 36 20 55 -27z m-3165 -3 c27 -8 41 -22 58 -57 24 -48 71 -252 61
-263 -3 -3 -32 11 -63 31 -38 25 -58 46 -62 63 -17 76 -35 142 -53 194 l-20
58 22 -7 c12 -4 38 -12 57 -19z m2036 -77 c-15 -96 -25 -117 -64 -137 -36 -18
-200 -57 -208 -49 -6 7 36 172 47 183 5 5 57 17 117 26 59 9 109 17 111 18 2
0 1 -18 -3 -41z m-3381 -73 c0 -65 2 -70 23 -73 20 -3 22 0 22 52 0 54 12 80
24 50 7 -19 8 -82 0 -109 -9 -35 -57 -48 -141 -41 -44 4 -81 13 -90 22 -8 7
-18 14 -21 14 -4 0 -3 28 2 63 9 59 12 64 45 79 21 10 58 16 86 15 l50 -2 0
-70z m4033 -117 c25 -43 35 -97 21 -115 -10 -11 -18 -7 -45 24 -37 41 -40 58
-22 98 15 33 22 32 46 -7z m-718 -64 c-10 -36 -22 -69 -26 -74 -25 -21 -207
-140 -211 -137 -7 7 16 210 25 219 4 4 46 15 92 24 47 8 92 20 100 25 35 20
39 10 20 -57z m-3418 15 c9 -5 25 -9 36 -9 33 0 43 -44 33 -145 -9 -93 -6
-110 22 -100 17 7 32 118 26 199 -4 38 -1 46 16 50 10 3 21 4 22 2 2 -2 -3
-45 -12 -97 -8 -52 -15 -142 -15 -200 l0 -105 -84 0 c-79 1 -85 2 -83 21 2 21
-8 23 -63 14 -25 -4 -25 -3 -24 66 1 75 21 279 30 307 4 13 13 15 42 11 20 -3
45 -10 54 -14z m1555 -67 c29 -25 33 -35 46 -125 9 -68 10 -97 3 -94 -85 35
-97 41 -101 61 -11 49 -35 189 -35 203 0 12 4 12 28 -2 15 -9 41 -28 59 -43z
m2544 -56 c-8 -9 -17 -16 -21 -16 -16 0 -50 68 -44 85 6 14 12 12 42 -18 30
-30 33 -38 23 -51z m-77 -71 c-11 -8 -22 -15 -25 -15 -11 0 -16 58 -6 76 8 14
12 12 29 -15 20 -31 20 -32 2 -46z m776 -25 c26 -81 70 -232 70 -243 0 -5 -19
-7 -42 -5 l-42 3 -23 108 c-12 59 -27 116 -33 127 -5 10 -10 26 -10 35 0 19
42 57 52 47 4 -4 16 -36 28 -72z m-1482 -178 c-40 -37 -95 -87 -122 -112 -31
-28 -47 -38 -42 -26 4 11 12 67 18 125 7 75 16 111 28 124 9 10 55 44 101 76
l84 58 3 -90 3 -89 -73 -66z m652 141 c0 -5 -7 -17 -15 -27 -15 -20 -15 -20
-15 0 0 12 3 24 7 27 9 9 23 9 23 0z m908 -24 c-3 -8 -7 -3 -11 10 -4 17 -3
21 5 13 5 -5 8 -16 6 -23z m-3278 -54 c38 -20 50 -50 50 -123 0 -36 6 -66 16
-80 23 -33 10 -27 -54 24 -68 56 -68 55 -76 119 -4 28 -10 60 -13 73 -5 21 -3
22 21 12 14 -5 40 -17 56 -25z m3329 -82 c2 -43 -16 -23 -32 37 -10 33 -17 65
-16 72 1 21 48 -85 48 -109z m139 -112 c30 -27 50 -51 45 -54 -21 -11 -63 -17
-63 -7 0 12 -37 13 -44 1 -9 -13 -76 55 -76 77 0 23 13 30 55 31 22 0 44 -13
83 -48z m-5128 13 c0 -8 -4 -14 -10 -14 -5 0 -10 9 -10 21 0 11 5 17 10 14 6
-3 10 -13 10 -21z m4768 14 c5 -7 12 -21 14 -31 3 -20 -46 -40 -189 -76 -135
-33 -399 -168 -462 -235 -18 -20 -27 -23 -33 -14 -28 45 9 94 154 203 160 119
205 136 428 158 70 7 78 7 88 -5z m-4690 -56 c4 -24 -7 -29 -26 -10 -18 18
-15 40 6 36 9 -2 18 -13 20 -26z m82 -26 c-1 -21 -1 -21 -15 -2 -19 25 -19 37
0 30 8 -4 15 -16 15 -28z m171 -16 c5 0 9 -9 9 -20 0 -17 -3 -18 -25 -8 -27
12 -36 44 -9 34 9 -3 20 -6 25 -6z m4473 -32 c3 -18 7 -58 9 -89 l3 -56 -115
-16 c-216 -31 -430 -86 -533 -138 -49 -25 -58 -27 -58 -13 0 61 329 252 502
291 38 8 91 24 116 34 64 25 70 24 76 -13z m-4390 16 c15 -6 23 -44 10 -44
-10 0 -34 28 -34 39 0 13 3 13 24 5z m4545 -20 c2 -2 9 -32 15 -68 11 -57 11
-64 -3 -64 -9 1 -37 -2 -63 -7 l-48 -7 0 63 c0 35 -3 74 -6 85 -5 21 -4 21 48
11 29 -5 55 -11 57 -13z m98 -14 c10 0 19 -28 29 -101 5 -33 3 -37 -19 -41
-24 -5 -26 -2 -41 76 -20 101 -20 103 2 83 10 -10 23 -17 29 -17z m-4508 14
c45 -9 40 -34 -7 -34 -26 0 -41 6 -50 20 -11 17 -10 20 7 20 10 0 33 -3 50 -6z
m-319 -66 c-1 -35 -7 -90 -15 -123 -8 -33 -15 -89 -15 -125 0 -36 -6 -85 -14
-110 -11 -39 -17 -45 -44 -48 -17 -2 -41 2 -52 8 -25 13 -26 5 40 185 27 72
53 157 60 190 14 77 17 85 30 85 6 0 10 -26 10 -62z m455 52 c18 0 23 -5 22
-20 -2 -33 -36 -26 -67 14 -14 18 -13 19 3 13 10 -4 29 -7 42 -7z m4136 -217
c7 -38 6 -38 -138 -53 -138 -14 -402 -89 -515 -146 l-48 -24 0 38 c0 35 4 40
53 69 52 31 178 75 252 88 22 4 66 14 99 22 80 20 225 42 261 40 24 -2 30 -7
36 -34z m349 -19 l5 -51 -52 -2 c-46 -1 -53 2 -53 18 0 11 -4 23 -10 26 -5 3
-10 17 -10 30 0 21 5 24 43 28 71 6 72 6 77 -49z"/>
<path d="M3090 6606 c0 -3 23 -39 50 -81 28 -41 62 -98 75 -127 24 -52 34
-128 16 -128 -18 0 -107 77 -134 117 -69 99 -339 169 -496 128 -67 -17 -249
-104 -339 -161 -29 -19 -63 -34 -77 -34 -27 0 -104 -27 -120 -43 -6 -6 21 -7
79 -3 86 7 91 9 165 59 42 29 123 73 181 97 l105 45 125 0 c113 0 132 -3 205
-29 72 -27 88 -38 160 -111 83 -86 121 -112 171 -117 l29 -3 0 71 c0 62 -5 80
-38 145 -49 97 -107 173 -135 177 -12 2 -22 1 -22 -2z"/>
<path d="M3300 6553 c0 -6 9 -18 21 -29 45 -40 86 -145 100 -254 5 -40 12 -77
17 -82 13 -13 34 9 36 39 3 49 95 146 215 226 l24 16 -27 7 c-38 9 -66 -8
-152 -91 l-72 -70 -16 58 c-18 65 -57 147 -78 164 -19 16 -68 27 -68 16z"/>
<path d="M3759 6403 c-97 -105 -159 -215 -159 -283 0 -32 19 -40 39 -16 14 17
117 36 194 36 36 0 92 -11 150 -30 52 -16 97 -30 101 -30 3 0 6 9 6 19 0 14
-14 25 -52 39 -111 40 -145 45 -269 39 l-119 -6 16 32 c23 45 89 134 138 185
34 35 38 44 26 52 -22 14 -24 14 -71 -37z"/>
<path d="M4237 6023 c-18 -17 -2 -33 56 -56 84 -34 154 -47 243 -47 69 0 74 1
65 18 -7 14 -32 20 -115 30 -65 7 -128 21 -167 37 -68 27 -72 28 -82 18z"/>
<path d="M4650 5810 c-42 -23 -178 -66 -237 -75 -34 -5 -43 -11 -43 -27 0 -17
5 -20 35 -16 33 4 41 -3 173 -137 77 -77 149 -158 160 -181 20 -40 42 -161 42
-234 l0 -38 -30 11 c-16 6 -32 8 -36 5 -3 -4 1 -61 10 -127 16 -126 62 -292
103 -374 13 -27 22 -51 20 -54 -8 -7 -56 23 -132 82 -75 59 -83 63 -91 40 -4
-9 14 -34 45 -65 27 -29 55 -68 62 -88 6 -21 19 -50 29 -67 20 -33 48 -132 61
-210 13 -86 10 -152 -11 -207 -33 -87 -20 -188 24 -188 6 0 27 -16 46 -35 19
-19 37 -35 41 -35 4 0 20 -5 36 -11 22 -8 24 -12 13 -19 -8 -6 -33 -10 -56
-10 -45 0 -117 40 -164 92 -41 45 -69 20 -33 -31 12 -17 16 -42 14 -86 -2 -49
4 -79 28 -141 17 -44 42 -96 57 -118 l26 -38 -23 7 c-89 28 -137 53 -180 93
-30 28 -49 55 -49 68 0 31 -24 49 -40 29 -14 -17 -7 -57 19 -94 10 -14 23 -53
30 -86 19 -84 47 -152 88 -208 19 -27 32 -55 29 -62 -2 -7 11 -28 30 -46 19
-18 34 -36 34 -39 0 -3 -15 -11 -34 -18 -71 -26 -331 9 -403 54 -19 12 -24 12
-38 -2 -14 -14 -14 -19 -2 -33 25 -28 37 -82 37 -159 l0 -74 -34 28 c-19 16
-52 41 -74 57 -23 15 -42 37 -44 50 -5 36 -42 29 -46 -8 -6 -71 -14 -94 -37
-109 -23 -15 -27 -15 -77 16 -64 38 -115 84 -134 121 -16 31 -54 38 -54 9 0
-10 6 -27 14 -38 8 -11 17 -37 21 -57 7 -37 7 -37 -20 -27 -74 28 -145 90
-145 128 0 17 -5 23 -17 20 -24 -4 -28 -51 -7 -82 20 -32 14 -33 -83 -10 -65
15 -113 44 -113 69 0 6 27 16 59 23 76 16 187 71 230 116 l33 34 30 -33 c33
-38 109 -68 160 -63 54 5 41 30 -22 43 -90 19 -130 51 -130 107 0 15 -4 30
-10 33 -5 3 -10 38 -10 76 0 93 -13 97 -91 25 -33 -31 -64 -56 -70 -56 -5 0 9
36 31 81 41 80 45 119 14 119 -8 0 -42 -14 -76 -31 -78 -39 -142 -59 -193 -59
-67 0 -71 16 -17 75 26 29 61 82 77 119 25 56 33 65 50 60 114 -34 180 -43
219 -28 21 8 20 19 -3 68 -19 39 -47 203 -37 213 2 3 44 -24 93 -59 116 -82
233 -144 258 -135 16 7 17 15 12 70 -3 34 -14 84 -23 110 -9 26 -14 50 -12 52
2 3 47 -11 99 -29 l94 -34 -2 -37 c-4 -53 -60 -188 -118 -279 -28 -44 -85
-119 -127 -167 -43 -49 -78 -95 -78 -103 0 -22 101 -32 175 -17 113 23 166 55
270 162 52 54 95 105 95 113 0 37 -26 21 -112 -69 -50 -53 -110 -106 -132
-117 -54 -28 -131 -48 -185 -48 l-43 0 51 58 c112 124 215 308 243 433 6 30
12 55 13 56 1 2 24 -3 51 -11 93 -27 138 -29 164 -8 l23 19 -25 34 c-36 48
-60 94 -83 163 -11 33 -25 61 -31 63 -35 11 -15 -94 35 -182 17 -30 31 -57 31
-60 0 -9 -44 -5 -95 9 -150 43 -206 61 -270 91 -65 29 -75 38 -109 94 -29 46
-43 61 -61 61 -24 0 -40 -24 -28 -43 4 -7 25 -35 48 -62 22 -28 48 -70 57 -95
17 -44 48 -156 48 -172 0 -22 -187 94 -275 171 -38 33 -66 51 -80 49 -19 -3
-20 -9 -17 -93 2 -49 9 -115 17 -145 7 -30 15 -62 17 -70 2 -12 -6 -14 -42
-12 -49 3 -150 45 -150 61 0 6 -5 11 -11 11 -18 0 -81 59 -112 104 -24 36
-102 254 -94 262 2 2 18 -1 36 -6 52 -15 166 -23 215 -16 36 6 46 11 46 26 0
11 -7 23 -16 28 -9 5 -38 47 -64 93 -26 46 -55 85 -64 87 -26 5 -19 -23 24
-102 22 -40 40 -76 40 -79 0 -11 -121 -8 -165 4 -70 19 -213 185 -250 290 -8
23 -15 59 -15 80 0 32 -3 39 -20 39 -17 0 -20 -7 -20 -40 0 -22 -5 -48 -11
-58 -7 -12 -8 -56 -1 -147 5 -71 6 -133 3 -137 -9 -11 -104 36 -151 73 -120
96 -218 307 -251 536 -14 102 2 288 32 372 34 94 33 91 11 91 -25 0 -55 -60
-73 -145 -17 -83 -17 -293 0 -397 14 -86 14 -88 -11 -135 -30 -60 -59 -79
-195 -134 -125 -50 -174 -90 -193 -159 -15 -55 -2 -151 29 -211 l21 -40 -22 6
c-70 22 -117 48 -120 68 -2 16 -10 22 -28 22 -30 0 -196 108 -211 138 -16 28
-4 98 25 154 40 78 151 254 196 310 40 50 45 73 15 73 -7 0 -28 -18 -45 -40
-60 -76 -192 -145 -324 -170 -84 -16 -231 -8 -301 16 -61 20 -78 34 -43 34 26
0 214 72 297 114 59 31 99 72 84 87 -8 8 -19 6 -40 -8 -39 -28 -113 -65 -218
-108 -71 -29 -109 -38 -180 -44 -73 -5 -90 -9 -93 -23 -2 -12 17 -26 75 -53
112 -52 171 -65 298 -65 121 0 199 15 289 55 l59 26 -15 -23 c-148 -226 -164
-336 -61 -411 21 -15 58 -41 83 -57 25 -16 57 -40 72 -52 l27 -23 -21 -63
c-30 -90 -81 -144 -167 -176 -94 -36 -153 -42 -231 -22 -78 20 -170 61 -170
75 0 6 4 11 8 11 17 0 147 128 214 212 99 123 101 126 93 138 -15 24 -38 4
-125 -105 -88 -110 -173 -191 -239 -227 -40 -22 -34 -36 32 -76 176 -106 365
-108 521 -4 38 25 105 126 106 159 0 6 4 23 9 36 l10 25 38 -19 c41 -20 213
-60 226 -52 18 11 3 32 -44 61 -61 39 -90 95 -91 180 -1 105 27 135 187 197
115 45 148 65 183 114 l29 40 31 -75 c65 -155 170 -278 283 -328 74 -33 102
-38 124 -22 16 12 17 18 7 57 -10 38 -22 199 -15 199 1 0 10 -15 19 -32 9 -18
43 -67 76 -109 52 -67 64 -94 107 -222 58 -172 85 -221 157 -285 l54 -47 -39
-80 c-24 -49 -57 -97 -85 -125 -25 -24 -46 -50 -46 -58 0 -7 11 -24 25 -37 20
-21 33 -25 87 -25 65 0 132 16 188 45 17 9 34 14 37 12 3 -3 -14 -41 -36 -84
-23 -43 -41 -87 -41 -96 0 -43 49 -28 138 42 28 23 54 41 57 41 3 0 5 -26 5
-59 0 -55 -3 -61 -40 -99 -42 -44 -114 -85 -189 -108 -43 -13 -101 -19 -101
-10 0 2 11 24 25 47 28 50 31 74 10 83 -10 4 -22 -8 -36 -37 -12 -23 -30 -54
-40 -69 -24 -33 -24 -64 -1 -70 16 -5 18 -13 15 -64 -3 -36 -12 -70 -24 -86
-10 -15 -19 -33 -19 -41 0 -15 -44 -59 -77 -76 -30 -15 -80 -14 -140 4 -56 17
-107 65 -142 134 -37 71 -54 65 -64 -20 -6 -45 -41 -131 -72 -173 -14 -18 -15
-18 -57 7 -68 40 -125 97 -161 162 -43 78 -71 86 -88 23 -11 -44 -8 -157 7
-192 7 -18 3 -19 -72 -13 -59 5 -95 15 -143 38 -78 38 -155 111 -146 138 3 10
-1 24 -9 30 -22 19 -35 68 -38 144 -2 59 1 72 20 92 12 12 22 27 22 33 0 5
-16 33 -35 62 -19 29 -35 56 -35 61 0 5 -9 9 -20 9 -30 0 -25 -28 15 -88 l36
-52 -36 0 c-20 0 -49 7 -64 15 -40 20 -107 103 -137 170 -47 103 -77 84 -71
-46 3 -74 7 -93 35 -142 18 -31 30 -57 27 -57 -22 0 -106 38 -131 59 -69 57
-130 158 -155 255 -18 70 -7 240 16 266 13 15 15 24 8 31 -20 20 -48 4 -62
-36 -21 -58 -20 -256 2 -314 10 -24 17 -54 17 -66 0 -13 11 -37 25 -53 22 -26
25 -39 25 -108 0 -50 7 -103 20 -144 11 -36 20 -66 20 -67 1 -22 -161 58 -188
92 -11 14 -24 47 -28 73 -3 26 -11 53 -16 59 -14 18 5 89 47 177 24 52 31 74
23 83 -39 47 -115 -160 -106 -286 4 -59 3 -63 -24 -82 -31 -22 -37 -56 -12
-66 11 -4 23 2 34 17 l17 23 31 -34 c31 -33 31 -34 12 -48 -23 -15 -26 -37 -7
-44 6 -2 28 4 47 13 33 17 37 17 67 1 31 -16 32 -17 13 -29 -22 -14 -17 -42 9
-42 9 0 30 9 46 20 17 11 42 20 57 20 15 0 31 6 35 13 4 8 28 19 53 25 49 12
67 8 29 -7 -31 -12 -101 -89 -118 -129 -18 -42 -9 -60 33 -67 29 -6 47 0 113
36 97 55 100 56 203 85 76 21 85 22 94 7 18 -32 76 -90 108 -107 29 -16 33
-23 34 -59 1 -46 19 -88 59 -136 22 -25 30 -29 46 -21 18 10 18 13 -11 67 -39
73 -40 96 -2 87 15 -4 27 -7 28 -8 0 -1 13 -22 28 -49 33 -58 99 -106 124 -90
27 17 20 37 -21 56 -29 14 -57 48 -57 70 0 1 29 2 64 2 71 0 86 7 68 33 -7 9
-17 28 -22 41 -14 33 -25 141 -14 141 5 0 19 -18 32 -40 23 -41 120 -128 172
-155 53 -27 77 -20 110 33 17 26 38 68 47 95 10 26 20 47 23 47 3 0 14 -14 25
-30 58 -88 228 -131 312 -79 19 12 36 19 38 17 3 -3 -2 -29 -11 -58 -16 -56
-74 -120 -117 -130 -13 -4 -22 -14 -22 -25 0 -15 8 -21 32 -23 27 -3 41 5 81
42 44 41 50 53 71 135 13 50 21 97 17 106 -3 9 3 34 14 55 11 22 20 53 20 70
0 59 29 25 50 -58 12 -48 5 -174 -12 -206 -23 -45 -92 -118 -134 -142 -24 -14
-44 -29 -44 -34 0 -16 30 -31 49 -25 39 12 118 83 154 138 34 51 37 62 41 144
3 51 0 102 -7 120 -6 18 -8 35 -4 39 3 4 41 1 84 -6 43 -7 92 -14 108 -15 17
-2 46 -10 66 -19 19 -8 53 -16 75 -18 34 -3 39 0 42 19 3 21 7 20 97 -28 90
-48 95 -49 127 -36 29 12 38 12 75 -5 23 -10 54 -32 70 -48 46 -49 93 -34 54
17 l-21 26 22 21 c25 24 65 21 94 -8 20 -20 34 -12 34 19 0 26 -42 55 -80 55
-11 0 -20 5 -20 11 0 7 10 9 28 5 87 -22 100 -27 105 -46 6 -22 43 -28 49 -8
16 46 -17 71 -129 98 -55 12 -75 33 -25 25 15 -2 54 -6 87 -9 71 -6 133 -29
156 -58 12 -16 23 -19 43 -14 37 9 32 30 -11 57 -64 39 -124 59 -213 69 -60 7
-89 15 -97 27 -18 24 -12 25 38 7 24 -8 99 -20 166 -25 111 -8 127 -7 173 10
97 37 126 72 77 90 -26 10 -53 39 -44 48 4 3 -14 28 -38 55 -50 56 -93 137
-102 193 -6 35 -4 38 13 30 10 -4 74 -28 141 -53 163 -59 194 -48 105 38 -65
63 -86 95 -116 174 -23 61 -35 146 -21 146 3 0 23 -9 45 -20 58 -30 139 -27
201 6 80 44 72 68 -27 84 -50 8 -64 15 -94 48 -19 22 -43 42 -52 45 -24 9 -23
54 3 119 18 46 21 67 16 163 -5 107 -14 146 -59 260 -35 89 -36 87 6 70 19 -8
46 -15 58 -15 13 0 50 -14 83 -30 66 -33 87 -37 104 -17 13 17 -4 37 -31 37
-48 0 -130 72 -168 148 -28 56 -78 219 -86 281 -5 39 -3 49 10 54 36 14 46 66
36 191 -12 140 -15 155 -50 226 -20 39 -66 92 -154 180 l-126 125 77 26 c43
14 93 34 111 43 28 14 31 20 22 36 -6 11 -12 20 -13 20 -1 -1 -18 -9 -37 -20z
m-2675 -2580 c17 -22 48 -52 70 -67 49 -33 95 -74 95 -84 0 -10 -80 -22 -111
-17 l-24 4 28 12 c15 6 27 16 27 21 0 6 -12 17 -27 25 -39 20 -78 65 -92 105
-13 40 -13 41 -3 41 4 -1 21 -19 37 -40z m-140 -134 c33 -17 65 -26 97 -26 27
0 48 -4 48 -9 0 -13 -49 -20 -100 -14 -25 2 -64 0 -88 -5 -40 -9 -42 -9 -48
14 -4 16 -1 31 10 43 15 16 15 19 1 24 -8 4 -15 14 -15 23 0 15 3 15 23 -3 12
-11 44 -32 72 -47z m26 -112 l34 6 -35 -13 c-71 -28 -90 -29 -90 -8 0 21 39
34 51 18 4 -5 22 -6 40 -3z m2429 -144 c24 -15 7 -19 -20 -5 -15 8 -19 14 -10
14 8 1 22 -3 30 -9z"/>
<path d="M963 5327 c-8 -17 -7 -29 3 -48 9 -15 13 -59 14 -125 0 -97 -1 -103
-28 -134 -16 -17 -64 -53 -108 -80 -69 -41 -79 -52 -82 -79 l-3 -31 58 0 c32
0 75 5 96 11 45 12 56 7 36 -17 -18 -23 -89 -53 -142 -62 -34 -6 -43 -12 -45
-31 -4 -22 -2 -23 40 -16 105 18 175 60 208 125 23 45 26 70 7 70 -7 0 -50 -9
-95 -21 -45 -11 -87 -19 -93 -17 -6 2 17 19 52 38 73 41 125 98 140 154 15 56
4 186 -20 241 -11 25 -22 45 -24 45 -2 0 -9 -10 -14 -23z"/>
<path d="M3169 4815 c-137 -138 -163 -176 -129 -183 19 -3 300 290 300 313 0
33 -33 9 -171 -130z"/>
<path d="M773 4554 c-9 -24 8 -33 47 -25 21 4 36 14 38 24 3 14 -4 17 -38 17
-28 0 -43 -5 -47 -16z"/>
<path d="M1136 4493 c-81 -34 -231 -65 -294 -61 -48 3 -52 1 -52 -19 0 -20 6
-22 63 -25 l62 -3 -41 -22 c-65 -35 -73 -46 -64 -93 10 -55 18 -61 87 -69 l58
-6 9 -54 c12 -72 -7 -167 -40 -202 -26 -28 -32 -59 -10 -59 32 0 206 234 206
279 0 38 -28 22 -62 -36 l-33 -58 -11 50 c-16 67 -16 95 -1 96 6 0 66 1 132 3
181 5 476 80 529 135 39 41 16 49 -48 17 -29 -15 -115 -43 -192 -63 -122 -32
-160 -37 -319 -44 -99 -5 -190 -9 -203 -10 -35 -2 -92 11 -92 21 0 5 28 25 62
46 33 21 75 49 92 64 18 14 65 35 111 48 83 24 130 50 130 72 0 21 -16 19 -79
-7z"/>
<path d="M2568 4161 c-63 -31 -74 -101 -33 -221 31 -92 45 -113 125 -185 36
-33 66 -67 68 -76 2 -13 -11 -22 -50 -35 -75 -26 -325 -27 -340 -1 -5 9 -16
17 -24 17 -8 0 -27 14 -41 30 -27 33 -48 38 -57 14 -10 -26 -7 -32 30 -73 50
-56 114 -76 229 -74 l90 2 1 -82 c0 -67 5 -94 29 -147 35 -80 52 -100 118
-136 47 -26 61 -29 142 -29 81 0 96 3 151 32 38 20 65 41 72 58 18 39 34 173
30 244 -4 70 -3 71 105 71 37 0 82 6 101 14 41 17 106 74 106 92 0 24 -28 27
-58 8 -82 -56 -239 -80 -322 -49 -25 9 -56 20 -70 23 -29 8 -110 61 -110 72 0
5 19 38 43 74 86 135 95 152 112 208 25 86 21 95 -60 131 -67 30 -76 31 -213
33 -114 1 -149 -2 -174 -15z m360 -70 c3 -21 1 -23 -20 -18 -12 4 -26 7 -30 7
-5 0 -8 9 -8 21 0 32 54 23 58 -10z m-103 -482 c-4 -12 -7 -76 -8 -143 -1
-137 18 -206 55 -206 22 0 22 -2 -1 85 -12 45 -14 170 -4 229 l6 38 40 -6 c21
-4 52 -13 68 -21 15 -8 39 -15 53 -15 22 0 26 -6 32 -46 8 -54 -12 -220 -31
-249 -25 -40 -95 -65 -183 -65 -74 0 -87 3 -132 31 -72 44 -100 105 -107 225
l-5 91 33 7 c48 9 139 47 139 57 0 5 12 9 26 9 21 0 24 -3 19 -21z"/>
<path d="M1065 3836 c-123 -71 -126 -74 -102 -94 9 -8 24 -5 56 13 l42 25 -7
-23 c-4 -12 -18 -37 -32 -54 -24 -33 -24 -69 1 -61 40 14 107 168 85 196 -12
14 -16 14 -43 -2z"/>
<path d="M1386 3733 c-40 -79 -141 -173 -226 -210 -67 -30 -66 -29 -51 -47 11
-13 19 -13 64 5 29 12 72 37 96 56 33 28 42 32 38 17 -35 -117 -54 -244 -44
-286 4 -12 14 -28 24 -34 17 -10 18 -5 19 70 1 105 32 225 89 344 25 52 45
102 45 113 0 35 -29 20 -54 -28z"/>
<path d="M792 1048 c-7 -7 -12 -20 -12 -31 0 -13 6 -18 23 -15 16 2 22 10 22
27 0 28 -15 37 -33 19z"/>
<path d="M1374 2180 c-24 -10 -64 -61 -64 -82 0 -8 21 -32 46 -54 26 -21 70
-60 98 -85 28 -26 70 -56 93 -68 24 -12 103 -83 185 -166 79 -81 151 -151 161
-156 26 -15 77 39 77 80 0 50 -105 226 -164 275 -27 22 -64 55 -81 71 -64 65
-163 133 -237 163 -83 35 -83 35 -114 22z m95 -64 c70 -28 127 -67 197 -133
28 -26 74 -67 102 -90 30 -26 64 -68 87 -110 21 -37 46 -82 56 -99 16 -26 17
-33 5 -49 -12 -17 -19 -11 -92 66 -120 128 -194 196 -244 226 -25 14 -66 44
-91 67 -26 23 -66 56 -89 75 l-43 35 23 18 c27 22 19 23 89 -6z"/>
<path d="M1235 1949 c-46 -89 -30 -114 111 -172 44 -19 114 -59 155 -90 76
-57 105 -67 127 -45 22 22 12 53 -41 117 -50 62 -120 120 -216 179 -24 15 -53
35 -63 45 -29 27 -44 20 -73 -34z m84 -33 c58 -31 204 -147 233 -187 32 -44
26 -43 -37 6 -54 43 -102 70 -149 85 -49 16 -106 49 -106 62 0 12 19 48 26 48
3 0 17 -6 33 -14z"/>
<path d="M3825 1893 c-32 -8 -45 -24 -45 -54 0 -34 31 -69 60 -69 33 0 88 27
99 48 17 32 14 41 -21 62 -32 20 -53 22 -93 13z m59 -52 c6 -10 -16 -21 -41
-21 -13 0 -13 3 -3 15 14 17 36 20 44 6z"/>
<path d="M3650 1842 c-47 -5 -60 -18 -60 -58 0 -47 35 -70 83 -55 44 15 63 52
45 89 -15 29 -19 30 -68 24z m10 -57 c10 -12 10 -15 -4 -15 -9 0 -16 7 -16 15
0 8 2 15 4 15 2 0 9 -7 16 -15z"/>
<path d="M2907 1829 c-53 -12 -80 -33 -127 -95 -69 -92 -84 -134 -77 -228 14
-209 86 -289 288 -322 108 -17 165 -8 266 41 91 45 130 91 145 175 13 68 0
165 -31 235 -63 141 -289 235 -464 194z m19 -59 c6 -6 23 -6 47 2 28 8 46 8
74 0 22 -7 41 -8 48 -2 16 13 117 -31 169 -74 69 -56 103 -156 93 -268 -6 -71
-36 -114 -104 -153 -82 -46 -153 -59 -245 -45 -152 22 -216 70 -242 180 -34
144 -16 222 74 320 46 49 67 59 86 40z"/>
<path d="M2909 1705 c-42 -27 -66 -73 -81 -155 -13 -68 -2 -119 34 -165 30
-39 119 -75 199 -82 59 -5 72 -3 116 21 65 36 100 69 118 113 31 74 11 135
-72 215 -64 61 -107 78 -202 77 -62 0 -82 -4 -112 -24z m232 -46 c29 -16 100
-93 119 -128 10 -19 9 -31 -5 -68 -14 -35 -29 -52 -73 -80 -53 -34 -58 -35
-121 -30 -123 11 -191 60 -191 141 0 101 54 195 105 182 12 -3 34 -2 50 3 34
9 78 1 116 -20z"/>
<path d="M4666 1629 c-59 -31 -114 -67 -121 -79 -3 -5 -17 -10 -29 -10 -34 0
-42 -17 -45 -92 -2 -58 0 -67 17 -72 27 -9 45 0 70 33 11 16 56 49 100 75 78
46 132 90 132 108 0 16 -49 58 -67 58 -10 0 -36 -9 -57 -21z m64 -36 c0 -9
-95 -71 -147 -97 -17 -8 -41 -28 -52 -42 -12 -15 -21 -22 -21 -16 0 6 23 33
51 59 73 68 169 123 169 96z"/>
<path d="M1212 1552 c-93 -40 -100 -63 -29 -95 20 -10 37 -25 37 -33 0 -8 11
-19 25 -24 28 -11 115 -117 115 -141 0 -9 8 -19 18 -21 9 -3 43 -43 75 -89 32
-46 69 -99 83 -118 41 -57 27 -59 -23 -2 -44 50 -92 81 -128 81 -28 0 -16 -29
23 -54 43 -28 173 -160 191 -194 19 -36 6 -37 -19 -2 -12 17 -43 43 -68 58
-31 18 -47 34 -47 47 0 17 -9 21 -55 26 -30 3 -86 16 -125 27 -94 28 -137 34
-154 23 -24 -16 -5 -38 39 -45 76 -12 235 -60 243 -73 4 -7 30 -24 56 -37 53
-27 106 -83 127 -132 9 -22 14 -73 14 -144 0 -61 4 -130 9 -153 5 -23 14 -67
20 -97 30 -160 35 -175 59 -178 26 -4 27 5 7 85 -8 32 -17 82 -20 111 -3 29
-10 64 -15 78 -6 14 -10 69 -10 123 0 93 1 99 31 139 32 44 45 49 167 73 56
11 69 10 132 -10 88 -28 123 -66 191 -209 51 -105 68 -180 69 -298 0 -38 4
-54 16 -58 32 -12 37 5 31 99 -8 126 -20 170 -72 278 -78 161 -124 207 -248
243 -56 17 -62 16 -160 -5 -78 -16 -108 -28 -129 -48 l-28 -27 0 32 c0 22 5
32 16 32 13 0 14 8 9 48 -4 26 -13 52 -21 58 -16 13 -19 70 -4 79 6 3 10 15
10 26 0 10 -4 19 -10 19 -5 0 -10 23 -10 50 0 45 -7 61 -62 147 -35 53 -61
105 -60 115 2 12 -6 21 -22 27 -13 6 -35 25 -48 44 -40 59 -85 105 -109 112
-13 4 -33 14 -44 21 -24 17 -18 18 -93 -14z m64 -60 c-21 -21 -27 -23 -40 -12
-22 18 -20 25 12 36 44 17 58 5 28 -24z m72 -59 c-23 -22 -29 -24 -43 -13 -14
12 -13 16 12 42 24 25 29 27 42 13 14 -14 13 -18 -11 -42z m71 -92 c-17 -23
-26 -28 -35 -20 -25 20 -26 48 -3 79 l23 30 19 -29 c18 -30 18 -30 -4 -60z
m91 -67 c0 -6 -11 -21 -24 -33 l-24 -22 -16 22 c-20 30 -20 31 6 64 l21 27 18
-23 c10 -13 19 -29 19 -35z m53 -78 c15 -22 14 -25 -9 -47 -25 -24 -26 -24
-40 -5 -18 25 -18 35 3 58 21 24 28 23 46 -6z m42 -151 l7 -50 -25 45 c-18 35
-21 49 -13 62 14 23 21 8 31 -57z"/>
<path d="M5003 1404 c-8 -20 17 -36 34 -22 10 8 10 14 2 24 -15 18 -28 18 -36
-2z"/>
<path d="M5022 1248 c-22 -22 -14 -40 16 -36 19 2 27 9 27 23 0 23 -25 31 -43
13z"/>
<path d="M5036 1131 c-20 -22 -14 -41 13 -41 24 0 45 25 37 45 -8 21 -29 19
-50 -4z"/>
<path d="M3340 1123 c-25 -1 -99 -7 -165 -13 -66 -5 -190 -11 -275 -12 -85 0
-184 -4 -220 -7 l-64 -6 -9 -40 c-6 -28 -4 -62 7 -110 8 -38 20 -117 26 -175
18 -169 29 -223 49 -250 16 -21 26 -25 67 -23 27 1 168 6 314 11 146 5 272 12
280 16 8 3 86 10 172 14 95 6 163 14 172 21 29 24 26 530 -3 565 -11 14 -35
16 -160 14 -80 -1 -166 -3 -191 -5z m324 -145 c3 -56 3 -167 0 -248 l-7 -147
-136 -7 c-75 -3 -162 -10 -193 -16 -32 -5 -160 -12 -285 -15 -126 -4 -246 -11
-267 -17 -52 -13 -63 1 -71 90 -7 85 -24 210 -37 287 -6 33 -13 76 -15 96 l-5
36 52 7 c28 4 173 11 321 15 149 5 273 12 276 15 4 3 86 6 183 6 l177 0 7
-102z"/>
<path d="M3460 1035 c-17 -20 3 -45 36 -45 34 0 40 20 13 41 -29 23 -33 23
-49 4z"/>
<path d="M3285 1030 c-3 -5 -1 -19 5 -30 13 -25 60 -28 60 -4 0 30 -51 57 -65
34z"/>
<path d="M3065 1020 c-9 -15 4 -47 22 -54 26 -10 38 9 25 39 -12 25 -36 33
-47 15z"/>
<path d="M2727 1013 c-14 -13 -6 -43 14 -53 45 -25 68 15 24 44 -28 18 -29 19
-38 9z"/>
<path d="M2881 1011 c-7 -5 -11 -19 -9 -32 2 -20 9 -24 37 -24 19 0 36 5 38
11 6 17 -50 54 -66 45z"/>
<path d="M4210 804 c-57 -30 -115 -65 -128 -77 -44 -41 -89 -112 -113 -177
-21 -58 -23 -82 -24 -223 0 -159 5 -185 35 -167 12 7 14 41 15 167 0 141 3
165 23 219 35 92 95 154 209 215 l96 52 89 -6 90 -6 67 -63 c36 -35 71 -72 78
-84 17 -29 34 -217 32 -342 -2 -113 9 -144 37 -107 13 16 15 44 11 150 -9 216
-21 299 -54 350 -15 25 -36 48 -46 51 -11 3 -34 23 -53 44 -40 44 -93 60 -197
60 -56 0 -73 -6 -167 -56z"/>
<path d="M1432 348 c3 -20 10 -23 61 -26 51 -3 57 -1 57 16 0 24 -18 32 -77
32 -40 0 -44 -2 -41 -22z"/>
</g>
</svg>
