<?xml version="1.0" encoding="UTF-8"?>
<!-- Generated by Pixelmator Pro 3.3.9 -->
<svg width="16" height="20" viewBox="0 0 16 20" xmlns="http://www.w3.org/2000/svg">
    <path id="path1" fill="currentColor" stroke="none" d="M 4.80612 0.775589 C 3.23554 1.71472 2.52965 3.27994 2.35318 6.24342 C 2.26495 7.82951 2.2473 7.91298 1.82377 7.97559 C 0.90612 8.1425 0.88848 8.2469 0.99436 12.1912 C 1.13554 16.552999 1.36495 18.4104 1.82377 18.952999 C 2.07083 19.245199 2.47671 19.391199 3.27083 19.453899 C 3.88848 19.5165 4.45318 19.6626 4.52377 19.7878 C 4.62965 19.9547 4.70024 19.9547 4.77083 19.746 C 4.82377 19.558201 5.60024 19.4956 7.7002 19.474701 C 11.2473 19.474701 14.3179 19.2034 14.5826 18.8904 C 14.7061 18.744301 14.812 17.6591 14.864901 16.1565 C 14.9002 14.7791 14.988501 13.6521 15.0767 13.6521 C 15.1649 13.6521 15.2355 13.4225 15.2355 13.1304 C 15.2355 12.8382 15.1649 12.6086 15.059099 12.6086 C 14.953199 12.6086 14.882601 11.7739 14.882601 10.5426 C 14.882601 8.1843 14.794399 8.0173 13.5767 7.87125 C 12.694401 7.74603 12.8002 8.0591 12.482599 4.6782 C 12.3591 3.259069 11.4767 1.40168 10.6826 0.85907 C 10.2591 0.5669 9.6414 0.462549 7.8767 0.37907 C 5.75907 0.274719 5.56495 0.31646 4.80612 0.775589 Z M 9.3591 3.217331 C 10.2591 3.86429 10.4885 4.448639 10.5238 6.28516 L 10.5591 7.91298 L 7.912 7.93385 C 4.15318 7.93385 4.40024 8.0591 4.52377 6.20168 C 4.70024 3.530371 5.31789 2.883419 7.7355 2.82081 C 8.4944 2.79994 8.9532 2.904289 9.3591 3.217331 Z M 8.9532 12.2539 C 9.3061 12.8173 9.3061 12.8591 9.0061 13.4643 C 8.8473 13.8191 8.7061 14.528601 8.7061 15.029499 C 8.7061 15.968599 8.7061 15.968599 8.1414 15.906 C 7.5944 15.843399 7.5591 15.7808 7.5061 14.987801 C 7.4708 14.319901 7.3649 14.090401 7.1002 14.006901 C 6.6238 13.8608 6.6414 12.6712 7.1532 12.0452 C 7.6826 11.3773 8.4591 11.4608 8.9532 12.2539 Z"/>
</svg>
