<svg width="24" height="24" viewBox="0 0 24 24" fill="none" xmlns="http://www.w3.org/2000/svg">
  <path d="M8.80612 2.77559C7.23554 3.71472 6.52965 5.27994 6.35318 8.24342C6.26495 9.82951 6.2473 9.91298 5.82377 9.97559C4.90612 10.1425 4.88848 10.2469 4.99436 14.1912C5.13554 18.553 5.36495 20.4104 5.82377 20.953C6.07083 21.2452 6.47671 21.3912 7.27083 21.4539C7.88848 21.5165 8.45318 21.6626 8.52377 21.7878C8.62965 21.9547 8.70024 21.9547 8.77083 21.746C8.82377 21.5582 9.60024 21.4956 11.7002 21.4747C15.2473 21.4747 18.3179 21.2034 18.5826 20.8904C18.7061 20.7443 18.812 19.6591 18.8649 18.1565C18.9002 16.7791 18.9885 15.6521 19.0767 15.6521C19.1649 15.6521 19.2355 15.4225 19.2355 15.1304C19.2355 14.8382 19.1649 14.6086 19.0591 14.6086C18.9532 14.6086 18.8826 13.7739 18.8826 12.5426C18.8826 10.1843 18.7944 10.0173 17.5767 9.87125C16.6944 9.74603 16.8002 10.0591 16.4826 6.6782C16.3591 5.25907 15.4767 3.40168 14.6826 2.85907C14.2591 2.5669 13.6414 2.46255 11.8767 2.37907C9.75907 2.27472 9.56495 2.31646 8.80612 2.77559ZM13.3591 5.21733C14.2591 5.86429 14.4885 6.44864 14.5238 8.28516L14.5591 9.91298L11.912 9.93385C8.15318 9.93385 8.40024 10.0591 8.52377 8.20168C8.70024 5.53037 9.31789 4.88342 11.7355 4.82081C12.4944 4.79994 12.9532 4.90429 13.3591 5.21733ZM12.9532 14.2539C13.3061 14.8173 13.3061 14.8591 13.0061 15.4643C12.8473 15.8191 12.7061 16.5286 12.7061 17.0295C12.7061 17.9686 12.7061 17.9686 12.1414 17.906C11.5944 17.8434 11.5591 17.7808 11.5061 16.9878C11.4708 16.3199 11.3649 16.0904 11.1002 16.0069C10.6238 15.8608 10.6414 14.6712 11.1532 14.0452C11.6826 13.3773 12.4591 13.4608 12.9532 14.2539Z" fill="currentColor"/>
</svg>
