<?xml version="1.0" standalone="no"?>
<!DOCTYPE svg PUBLIC "-//W3C//DTD SVG 20010904//EN"
 "http://www.w3.org/TR/2001/REC-SVG-20010904/DTD/svg10.dtd">
<svg version="1.0" xmlns="http://www.w3.org/2000/svg"
 width="119.000000pt" height="112.000000pt" viewBox="0 0 119.000000 112.000000"
 preserveAspectRatio="xMidYMid meet">
<metadata>
Created by potrace 1.16, written by Peter Selinger 2001-2019
</metadata>
<g transform="translate(0.000000,112.000000) scale(0.100000,-0.100000)"
fill="#000000" stroke="none">
<path d="M276 994 c-21 -8 -45 -19 -51 -24 -19 -16 -65 -117 -65 -143 0 -26
35 -105 56 -128 13 -15 13 -24 -6 -80 -27 -79 -60 -245 -60 -300 0 -38 24
-107 39 -111 37 -9 87 -12 204 -11 185 0 182 -3 174 153 -6 121 -22 194 -58
271 l-21 46 20 39 c25 48 37 122 28 169 -9 48 -70 110 -121 124 -52 14 -91 13
-139 -5z"/>
<path d="M615 1002 c-10 -2 -29 -11 -42 -19 -22 -15 -22 -16 -6 -46 28 -52 24
-159 -10 -231 l-27 -59 20 -32 c11 -18 26 -73 35 -131 25 -167 28 -179 39
-186 18 -12 83 -9 158 8 l70 16 -4 97 c-6 112 -35 213 -74 254 l-26 28 20 22
c36 40 44 65 36 123 -11 88 -54 135 -138 154 -17 3 -40 4 -51 2z"/>
<path d="M837 983 c-35 -6 -45 -28 -22 -53 27 -29 31 -111 10 -180 -17 -56
-17 -61 0 -107 9 -26 28 -91 42 -143 14 -52 27 -97 29 -99 2 -2 28 0 58 3 54
7 56 8 62 43 9 50 -12 156 -46 233 -24 54 -27 67 -16 80 26 30 38 86 26 129
-9 36 -58 91 -80 91 -5 0 -14 2 -22 3 -7 2 -26 2 -41 0z"/>
</g>
</svg>
