<?xml version="1.0" encoding="UTF-8"?>
<!-- Generated by Pixelmator Pro 3.3.9 -->
<svg width="14" height="12" viewBox="0 0 14 12" xmlns="http://www.w3.org/2000/svg">
    <path id="path1" fill="currentColor" stroke="none" d="M 7.2599 0.209949 C 6.2699 0.41995 5.5499 1.679951 5.5199 3.41995 L 5.4599 4.95 L 2.81993 7.11 C 0.08993 9.36 -0.18007 9.72 0.11993 10.98 C 0.26993 11.549999 0.50993 11.700001 1.19993 11.700001 C 1.73993 11.700001 2.09993 11.549999 2.09993 11.309999 C 2.09993 11.07 2.36993 10.65 2.66993 10.379999 C 3.23993 9.87 3.26993 9.87 3.59993 10.469999 C 3.98993 11.219999 5.3399 11.309999 5.6099 10.620001 C 5.6999 10.379999 5.4899 9.87 5.1299 9.48 C 4.4999 8.82 4.4999 8.79 5.0399 8.31 C 5.5499 7.83 5.6399 7.86 6.2999 8.55 C 6.6899 8.97 7.1699 9.3 7.4099 9.3 C 7.9499 9.3 7.8899 8.1 7.2899 7.44 C 6.6299 6.69 7.1399 6.09 8.0399 6.57 C 8.3699 6.75 9.2699 6.9 10.019899 6.9 C 11.909901 6.9 12.8999 6 13.1099 4.11 C 13.2899 2.69995 13.259899 2.63995 11.849899 1.31995 C 10.3799 -0.03005 9.5699 -0.240049 7.2599 0.209949 Z M 10.829901 3.32995 C 11.2199 4.08 10.679899 5.1 9.8699 5.1 C 9.1499 5.1 7.9199 4.32 7.6799 3.71995 C 7.2299 2.51995 8.6699 1.589951 9.8399 2.33995 C 10.1999 2.57995 10.6499 3.02995 10.829901 3.32995 Z"/>
</svg>
