<svg width="24" height="24" viewBox="0 0 24 24" fill="none" xmlns="http://www.w3.org/2000/svg">
  <path d="M13.2599 6.20995C12.2699 6.41995 11.5499 7.67995 11.5199 9.41995L11.4599 10.95L8.81993 13.11C6.08993 15.36 5.81993 15.72 6.11993 16.98C6.26993 17.55 6.50993 17.7 7.19993 17.7C7.73993 17.7 8.09993 17.55 8.09993 17.31C8.09993 17.07 8.36993 16.65 8.66993 16.38C9.23993 15.87 9.26993 15.87 9.59993 16.47C9.98993 17.22 11.3399 17.31 11.6099 16.62C11.6999 16.38 11.4899 15.87 11.1299 15.48C10.4999 14.82 10.4999 14.79 11.0399 14.31C11.5499 13.83 11.6399 13.86 12.2999 14.55C12.6899 14.97 13.1699 15.3 13.4099 15.3C13.9499 15.3 13.8899 14.1 13.2899 13.44C12.6299 12.69 13.1399 12.09 14.0399 12.57C14.3699 12.75 15.2699 12.9 16.0199 12.9C17.9099 12.9 18.8999 12 19.1099 10.11C19.2899 8.69995 19.2599 8.63995 17.8499 7.31995C16.3799 5.96995 15.5699 5.75995 13.2599 6.20995ZM16.8299 9.32995C17.2199 10.08 16.6799 11.1 15.8699 11.1C15.1499 11.1 13.9199 10.32 13.6799 9.71995C13.2299 8.51995 14.6699 7.58995 15.8399 8.33995C16.1999 8.57995 16.6499 9.02995 16.8299 9.32995Z" fill="currentColor"/>
</svg>
