<?xml version="1.0" standalone="no"?>
<!DOCTYPE svg PUBLIC "-//W3C//DTD SVG 20010904//EN"
 "http://www.w3.org/TR/2001/REC-SVG-20010904/DTD/svg10.dtd">
<svg version="1.0" xmlns="http://www.w3.org/2000/svg"
 width="64.000000pt" height="54.000000pt" viewBox="0 0 64.000000 54.000000"
 preserveAspectRatio="xMidYMid meet">
<metadata>
Created by potrace 1.16, written by Peter Selinger 2001-2019
</metadata>
<g transform="translate(0.000000,54.000000) scale(0.100000,-0.100000)"
fill="#000000" stroke="none">
<path d="M317 493 c-4 -3 -7 -44 -7 -90 l0 -83 -100 0 c-91 0 -100 -2 -100
-19 0 -24 26 -31 123 -31 l77 0 0 -83 c0 -94 15 -132 44 -108 12 11 16 33 16
102 l0 89 84 0 c57 0 87 4 95 13 21 26 -9 37 -96 37 l-83 0 0 74 c0 41 -3 81
-6 90 -6 16 -35 22 -47 9z"/>
</g>
</svg>
