<?xml version="1.0" encoding="UTF-8"?>
<!-- Generated by Pixelmator Pro 3.3.9 -->
<svg width="61" height="58" viewBox="0 0 61 58" xmlns="http://www.w3.org/2000/svg">
    <g id="g1">
        <path id="path1" fill="#000000" stroke="none" d="M 28.266666 1.26667 C 27.733334 1.666664 27.333332 7.133335 27.333332 13.266666 L 27.333332 24.333332 L 14 24.333332 C 1.866667 24.333332 0.666667 24.599998 0.666667 26.866665 C 0.666667 30.066666 4.133333 31 17.066668 31 L 27.333332 31 L 27.333332 42.066666 C 27.333332 54.599998 29.333332 59.666668 33.200001 56.466667 C 34.799999 55 35.333332 52.066666 35.333332 42.866669 L 35.333332 31 L 46.533333 31 C 54.133331 31 58.133331 30.466667 59.199997 29.266666 C 62 25.799999 58 24.333332 46.400002 24.333332 L 35.333332 24.333332 L 35.333332 14.466667 C 35.333332 9 34.933334 3.666668 34.533333 2.466667 C 33.733334 0.333336 29.866665 -0.466667 28.266666 1.26667 Z"/>
    </g>
</svg>
