<svg width="24" height="24" viewBox="0 0 24 24" fill="none" xmlns="http://www.w3.org/2000/svg">
  <path d="M8.19004 5.84995C4.65004 7.61995 3.81004 11.67 6.39004 14.58C6.87004 15.15 7.68004 15.84 8.19004 16.11C9.21004 16.62 11.61 16.77 13.23 16.41C14.22 16.17 14.37 16.26 15.9 17.67C16.8 18.51 17.55 19.2 17.58 19.2C17.64 19.2 18.09 18.78 18.6 18.24C19.35 17.49 19.47 17.25 19.11 17.07C18.87 16.92 18.18 16.2 17.58 15.45L16.44 14.1L16.98 12.75C18 10.05 16.8 7.25995 14.07 5.87995C12 4.85995 10.23 4.85995 8.19004 5.84995ZM12.54 7.34995C14.52 7.94995 15 8.63995 15 10.98C15 13.02 14.7 13.44 12.81 14.25C11.28 14.88 9.87004 14.82 8.67004 14.01C6.51004 12.57 6.84004 8.66995 9.24004 7.34995C10.29 6.80995 10.65 6.80995 12.54 7.34995Z" fill="currentColor"/>
  <path d="M11.7002 8.3699C11.7002 8.6399 13.2602 9.8999 13.6202 9.8999C14.0102 9.8999 13.7702 9.0599 13.2602 8.6099C12.6602 8.0699 11.7002 7.9199 11.7002 8.3699Z" fill="currentColor"/>
</svg>
