<?xml version="1.0" encoding="UTF-8"?>
<!-- Generated by Pixelmator Pro 3.3.9 -->
<svg width="16" height="15" viewBox="0 0 16 15" xmlns="http://www.w3.org/2000/svg">
    <path id="path1" fill="#000000" stroke="none" d="M 4.19004 0.849949 C 0.65004 2.619949 -0.18996 6.67 2.39004 9.58 C 2.87004 10.15 3.68004 10.84 4.19004 11.110001 C 5.21004 11.620001 7.61 11.77 9.23 11.41 C 10.22 11.17 10.37 11.26 11.9 12.67 C 12.799999 13.51 13.549999 14.200001 13.58 14.200001 C 13.639999 14.200001 14.09 13.780001 14.6 13.24 C 15.35 12.49 15.469999 12.25 15.110001 12.07 C 14.870001 11.92 14.18 11.200001 13.58 10.45 L 12.440001 9.1 L 12.98 7.75 C 14 5.05 12.799999 2.259951 10.07 0.87995 C 8 -0.140049 6.23 -0.140049 4.19004 0.849949 Z M 8.54 2.349949 C 10.52 2.949951 11 3.63995 11 5.98 C 11 8.02 10.7 8.44 8.81 9.25 C 7.28 9.88 5.87004 9.82 4.67004 9.01 C 2.51004 7.57 2.84004 3.66995 5.24004 2.349949 C 6.29 1.80995 6.65 1.80995 8.54 2.349949 Z"/>
    <path id="path2" fill="#000000" stroke="none" d="M 7.7002 3.3699 C 7.7002 3.6399 9.2602 4.8999 9.6202 4.8999 C 10.0102 4.8999 9.7702 4.0599 9.2602 3.6099 C 8.6602 3.0699 7.7002 2.919899 7.7002 3.3699 Z"/>
</svg>
