<?xml version="1.0" standalone="no"?>
<!DOCTYPE svg PUBLIC "-//W3C//DTD SVG 20010904//EN"
 "http://www.w3.org/TR/2001/REC-SVG-20010904/DTD/svg10.dtd">
<svg version="1.0" xmlns="http://www.w3.org/2000/svg"
 width="87.000000pt" height="89.000000pt" viewBox="0 0 87.000000 89.000000"
 preserveAspectRatio="xMidYMid meet">
<metadata>
Created by potrace 1.16, written by Peter Selinger 2001-2019
</metadata>
<g transform="translate(0.000000,89.000000) scale(0.100000,-0.100000)"
fill="#000000" stroke="none">
<path d="M193 674 c-6 -16 18 -138 36 -187 l11 -27 120 0 121 0 -3 -27 -3 -28
-121 -3 -121 -3 -23 -94 c-23 -91 -24 -95 -6 -114 18 -20 20 -19 267 105 166
82 249 129 249 140 0 10 -32 30 -87 56 -49 22 -161 75 -251 119 -90 43 -167
79 -173 79 -5 0 -12 -7 -16 -16z"/>
</g>
</svg>
