<?xml version="1.0" encoding="UTF-8"?>
<!-- Generated by Pixelmator Pro 3.3.9 -->
<svg width="71" height="68" viewBox="0 0 71 68" xmlns="http://www.w3.org/2000/svg">
    <g id="g1">
        <path id="path1" fill="#000000" stroke="none" d="M 0.733334 2.133331 C -0.066668 4.26667 3.133333 20.533333 5.533333 27.066666 L 7 30.666668 L 23 30.666668 L 39.133331 30.666668 L 38.733334 34.266666 L 38.333332 38 L 22.200001 38.400002 L 6.066668 38.799999 L 3 51.333332 C -0.066668 63.466667 -0.200001 64 2.200001 66.533333 C 4.6 69.199997 4.866667 69.066666 37.799999 52.533333 C 59.933334 41.599998 71 35.333332 71 33.866665 C 71 32.533333 66.73333 29.866665 59.400002 26.400002 C 52.866669 23.466667 37.933334 16.400002 25.933334 10.533333 C 13.933334 4.800003 3.666666 0 2.866667 0 C 2.200001 0 1.266666 0.933334 0.733334 2.133331 Z"/>
    </g>
</svg>
