<?xml version="1.0" encoding="UTF-8"?>
<!-- Generated by Pixelmator Pro 3.3.9 -->
<svg width="18" height="16" viewBox="0 0 18 16" xmlns="http://www.w3.org/2000/svg">
    <path id="path1" fill="currentColor" stroke="none" d="M 7.7098 0.709949 C 7.5898 0.79995 7.4998 1.12995 7.4998 1.429951 C 7.4998 2.05995 5.33976 2.89995 5.15976 2.32995 C 5.09976 2.14995 4.79976 1.87995 4.52976 1.699951 C 4.10976 1.48995 3.77976 1.63995 3.02976 2.41995 L 2.03976 3.439949 L 2.69976 4.03995 C 3.26976 4.54995 3.32976 4.78995 3.05976 5.50995 C 2.81976 6.2 2.63976 6.3499 1.85976 6.29 C 1.01976 6.2 0.95976 6.29 0.80976 7.34 C 0.62976 8.78 0.71976 8.9 1.97976 8.9 C 2.81976 8.9 2.99976 9.02 2.99976 9.53 C 2.99976 9.86 3.14976 10.4 3.29976 10.7 C 3.53976 11.15 3.47976 11.33 2.99976 11.6 C 2.21976 12.02 2.24976 12.440001 3.02976 13.309999 C 3.68976 13.969999 3.68976 13.969999 4.49976 13.4 C 5.27976 12.83 5.30976 12.83 6.53976 13.459999 C 7.3498 13.85 7.7998 14.27 7.7998 14.629999 C 7.7998 15.110001 8.0098 15.200001 9.1198 15.200001 C 10.3498 15.200001 10.4698 15.139999 10.5598 14.42 C 10.6798 13.370001 12.3598 12.59 13.049801 13.280001 C 13.619801 13.879999 14.5198 13.58 15.149799 12.59 C 15.6598 11.84 15.629801 11.81 14.9098 11.18 C 14.219801 10.58 14.1898 10.49 14.5798 9.71 C 14.879801 9.17 15.2698 8.9 15.7498 8.9 C 16.229799 8.9 16.4998 8.72 16.4998 8.45 C 16.4998 8.21 16.649799 8 16.799801 8 C 16.979799 8 17.0998 7.73 17.0998 7.43 C 17.0998 6.83 16.559799 6.5 15.569799 6.5 C 15.209801 6.5 14.8498 6.11 14.549801 5.38995 C 14.129801 4.42995 14.129801 4.24995 14.549801 3.79995 C 14.9398 3.349949 14.9098 3.22995 14.069799 2.41995 L 13.139799 1.54995 L 12.6898 2.179951 C 12.3298 2.74995 12.1498 2.80995 11.2498 2.509951 C 10.4698 2.269951 10.1998 2.029949 10.1998 1.519951 C 10.1998 1.099949 9.9598 0.79995 9.5398 0.679951 C 8.6398 0.439949 7.9498 0.439949 7.7098 0.709949 Z M 9.8998 6.8 C 10.2298 7.13 10.4998 7.52 10.4998 7.67 C 10.4998 8.36 10.0498 8.96 9.3898 9.23 C 7.8898 9.8 6.74976 8.3 7.6198 6.95 C 8.2198 6.05 9.0898 5.98995 9.8998 6.8 Z"/>
</svg>
