<svg width="21" height="20" viewBox="0 0 21 20" xmlns="http://www.w3.org/2000/svg">
    <path id="path1" fill="currentColor" stroke="none" d="M 1.21174 0.21736 C 1.18844 0.28693 1.11854 0.347799 1.04863 0.347799 C 0.947663 0.347799 0.932129 0.530411 0.932129 1.608669 C 0.932129 2.304319 0.963197 2.869541 0.994265 2.869541 C 1.0331 2.869541 1.11854 3.008671 1.18844 3.182579 C 1.35155 3.55649 1.56902 3.55649 1.81757 3.19128 C 1.95737 2.973881 1.98067 2.81736 1.98067 2.03475 L 1.98067 1.130409 L 2.74184 1.130409 C 3.3865 1.130409 3.51854 1.104321 3.65058 0.95649 C 3.82145 0.76519 3.79038 0.59128 3.5496 0.278231 C 3.40203 0.095619 3.33213 0.086929 2.32242 0.086929 C 1.45252 0.086929 1.25058 0.11301 1.21174 0.21736 Z"/>
    <path id="path2" fill="currentColor" stroke="none" d="M 6.56318 3.93037 C 4.52823 3.999939 4.46609 4.008629 4.07774 4.226021 C 3.54959 4.530371 3.23114 4.89559 3.01366 5.42602 C 2.83502 5.860809 2.83502 5.93907 2.81172 9.0695 C 2.78842 12.0434 2.79619 12.313 2.94376 12.8782 C 3.1224 13.5999 3.38648 14.025999 3.8059 14.260799 C 4.10104 14.426001 4.27192 14.4347 9.24279 14.4347 C 12.8622 14.4347 14.369 14.4608 14.369 14.530399 C 14.369 14.7652 13.8875 16.1217 13.7088 16.3825 C 13.3826 16.869499 13.468 17.1304 13.9729 17.1304 C 14.2991 17.1304 14.6875 16.8608 15.3632 16.1738 C 15.837 15.695601 16.0389 15.426001 16.186501 15.0434 C 16.380699 14.573799 16.403999 14.539101 16.7146 14.4869 C 17.273899 14.3825 17.9884 13.7825 18.268 13.1825 C 18.423401 12.8434 18.423401 12.7217 18.384501 9.3565 C 18.3535 6.12167 18.3379 5.834721 18.190399 5.347759 C 18.0117 4.75646 17.685499 4.391239 17.048599 4.043409 L 16.6525 3.826019 L 15.1457 3.89559 C 14.3146 3.93037 13.2117 3.93907 12.6991 3.90428 C 11.503 3.826019 9.21949 3.834721 6.56318 3.93037 Z M 14.9205 6.43472 C 15.0991 6.54776 15.1146 6.80863 14.9515 6.95646 C 14.8661 7.03472 14.3302 7.09559 13.2583 7.13907 C 12.3962 7.18254 10.936 7.25211 10.0195 7.29559 C 9.10298 7.34776 7.7826 7.38254 7.09133 7.39124 C 5.86415 7.39124 5.83308 7.38254 5.77871 7.19994 C 5.73988 7.06081 5.77094 6.97385 5.88745 6.8695 C 6.07386 6.70428 7.40201 6.61733 9.93405 6.59994 C 10.7729 6.59994 11.9302 6.54776 12.5049 6.48689 C 13.8486 6.33907 14.7263 6.32167 14.9205 6.43472 Z M 15.0991 8.5217 C 15.1535 8.5825 15.1535 8.6869 15.0991 8.8434 C 15.0292 9.0695 14.9904 9.0869 14.6797 9.0608 C 14.4855 9.0434 14.0661 9.0782 13.7476 9.1217 C 13.4292 9.1738 12.7923 9.2782 12.3418 9.3478 C 11.8836 9.4173 11.0836 9.4782 10.5476 9.4782 C 10.0195 9.4782 9.31269 9.513 8.97094 9.5652 C 8.6292 9.6086 7.8292 9.6869 7.18454 9.7304 C 5.93405 9.8173 5.71658 9.7738 5.76318 9.4521 C 5.80201 9.1738 6.2991 9.0521 7.8059 8.9565 C 10.936 8.7652 11.9845 8.6782 13.0098 8.5217 C 14.0894 8.3565 14.9515 8.3565 15.0991 8.5217 Z M 14.9981 10.9565 C 15.0913 11.0173 15.1457 11.1391 15.1457 11.2956 L 15.1457 11.5391 L 13.0719 11.5999 C 11.9224 11.6347 10.6797 11.6956 10.2913 11.7478 C 9.22726 11.8782 6.85056 12.0869 6.43114 12.0869 C 6.10493 12.0869 6.05832 12.0608 6.01172 11.8782 C 5.98842 11.7652 6.00395 11.5825 6.05832 11.4869 C 6.13599 11.313 6.19813 11.3043 7.44085 11.3043 C 8.15541 11.3043 8.86221 11.2608 9.00978 11.2086 C 9.15735 11.1652 10.1671 11.0869 11.2544 11.0434 C 12.3341 10.9999 13.2428 10.9478 13.2661 10.9217 C 13.3438 10.8347 14.8428 10.8695 14.9981 10.9565 Z"/>
    <path id="path3" fill="currentColor" stroke="none" d="M 19.8682 16.234699 C 19.697399 16.452101 19.627501 16.7391 19.580799 17.4347 L 19.534201 18.0434 L 18.6488 18.086901 C 17.8022 18.1304 17.7556 18.139099 17.608 18.356501 C 17.437201 18.625999 17.483801 18.904301 17.716801 19.052099 C 17.8022 19.0956 18.408001 19.1478 19.068199 19.1565 C 20.0935 19.173901 20.2876 19.1565 20.3964 19.025999 C 20.5051 18.913 20.5284 18.6782 20.5362 17.6695 C 20.544001 16.5826 20.5284 16.4347 20.3964 16.269501 C 20.217699 16.0434 20.0236 16.0347 19.8682 16.234699 Z"/>
</svg>
