<?xml version="1.0" standalone="no"?>
<!DOCTYPE svg PUBLIC "-//W3C//DTD SVG 20010904//EN"
 "http://www.w3.org/TR/2001/REC-SVG-20010904/DTD/svg10.dtd">
<svg version="1.0" xmlns="http://www.w3.org/2000/svg"
 width="79.000000pt" height="82.000000pt" viewBox="0 0 79.000000 82.000000"
 preserveAspectRatio="xMidYMid meet">
<metadata>
Created by potrace 1.16, written by Peter Selinger 2001-2019
</metadata>
<g transform="translate(0.000000,82.000000) scale(0.100000,-0.100000)"
fill="#000000" stroke="none">
<path d="M462 654 l-75 -77 -66 72 c-37 39 -75 71 -84 71 -10 0 -42 -18 -72
-40 -30 -22 -59 -40 -65 -40 -24 0 -5 -33 71 -121 l82 -94 -78 -73 c-76 -72
-77 -73 -65 -103 14 -33 103 -99 134 -99 19 0 67 44 112 103 l22 28 42 -50
c62 -73 83 -85 127 -70 51 17 123 67 117 83 -3 7 -35 40 -72 73 -37 33 -73 72
-81 87 -14 26 -13 28 72 115 81 83 98 111 79 136 -9 13 -106 75 -117 75 -4 0
-42 -34 -83 -76z"/>
</g>
</svg>
