<?xml version="1.0" encoding="UTF-8"?>
<!-- Generated by Pixelmator Pro 3.3.9 -->
<svg width="78" height="78" viewBox="0 0 78 78" xmlns="http://www.w3.org/2000/svg">
    <g id="g1">
        <path id="path1" fill="currentColor" stroke="none" d="M 49.599998 10.800003 L 39.599998 21.066666 L 30.799999 11.466667 C 25.866665 6.26667 20.799999 2 19.6 2 C 18.266666 2 14 4.400002 10 7.333336 C 6 10.26667 2.133333 12.666664 1.333333 12.666664 C -1.866667 12.666664 0.666667 17.066666 10.799999 28.800003 L 21.733334 41.333332 L 11.333334 51.066666 C 1.2 60.666668 1.066667 60.799999 2.666667 64.800003 C 4.533333 69.199997 16.4 78 20.533333 78 C 23.066666 78 29.466667 72.133331 35.466667 64.266663 L 38.400002 60.533333 L 44 67.199997 C 52.26667 76.933334 55.066666 78.533333 60.933334 76.533333 C 67.73333 74.266663 77.333336 67.599998 76.533333 65.466667 C 76.133331 64.533333 71.866669 60.133335 66.933334 55.733334 C 62 51.333332 57.199997 46.133335 56.133331 44.133335 C 54.26667 40.666668 54.400002 40.400002 65.73333 28.800003 C 76.533333 17.73333 78.800003 14 76.26667 10.666664 C 75.066666 8.933334 62.133331 0.666664 60.666664 0.666664 C 60.133331 0.666664 55.066666 5.199997 49.599998 10.800003 Z"/>
    </g>
</svg>
