<!DOCTYPE svg>
<svg width="24" height="24" viewBox="0 0 24 24" fill="none">
	<path
		d="M8.76018 4.80009C6.00018 5.31009 3.48018 6.90009 2.49018 8.82009C1.50018 10.7401 2.61018 13.6801 4.80018 14.8201C5.22018 15.0301 5.97018 15.4501 6.45018 15.7201C6.96018 15.9901 7.65018 16.2001 8.01018 16.2001C8.94018 16.2001 9.60018 16.5001 9.60018 16.9501C9.60018 17.6401 12.0302 19.2001 13.1102 19.2001C13.6502 19.2001 14.1002 19.3201 14.1002 19.5001C14.1002 19.9801 15.2102 19.8301 15.4202 19.3201C15.5402 19.0201 15.3302 18.6301 14.8802 18.2701C14.4902 17.9701 14.1002 17.4301 14.0102 17.1301C13.8902 16.6201 14.0402 16.5001 14.9702 16.3501C17.2502 15.9601 19.7402 14.5201 20.7602 12.9901C21.1202 12.4201 21.3002 11.5801 21.3002 10.5001C21.3002 8.13009 20.6102 7.17009 17.9702 5.82009C16.0502 4.86009 15.5102 4.74009 13.0802 4.65009C11.5802 4.59009 9.63018 4.65009 8.76018 4.80009ZM17.2802 6.57009C18.2702 7.05009 19.3802 7.80009 19.7402 8.25009C20.5802 9.30009 20.6102 11.2201 19.8002 12.5101C19.0502 13.7701 16.5602 15.1801 14.6702 15.4201C12.9902 15.6601 12.6902 16.0501 13.1402 17.4001C13.3802 18.0601 13.3802 18.3001 13.1102 18.3001C12.4802 18.3001 10.8602 17.1601 10.4702 16.4401C9.99018 15.5401 9.63018 15.3001 8.61018 15.3001C7.62018 15.3001 4.02018 13.3801 3.63018 12.6601C3.48018 12.3601 3.27018 11.5801 3.15018 10.8901C2.97018 9.75009 3.03018 9.54009 4.08018 8.40009C6.09018 6.18009 7.35018 5.76009 12.0002 5.73009C15.2102 5.70009 15.5702 5.76009 17.2802 6.57009Z"
		fill="currentColor" />
</svg>