<?xml version="1.0" encoding="UTF-8"?>
<!-- Generated by Pixelmator Pro 3.3.9 -->
<svg width="75" height="43" viewBox="0 0 75 43" xmlns="http://www.w3.org/2000/svg">
    <g id="Regular-S-">
        <path id="path1" fill="currentColor" stroke="none" stroke-width="0.5" d="M 3.95752 34.244141 C 3.225098 34.927734 2.785645 35.953125 2.785645 37.076172 C 2.785645 39.371094 4.543457 41.128906 6.838379 41.128906 C 7.961426 41.128906 8.986816 40.689453 9.67041 39.957031 L 39.11377 10.367188 L 34.572754 10.367188 L 64.016113 39.957031 C 64.699707 40.689453 65.822754 41.128906 66.896973 41.128906 C 69.191895 41.128906 70.900879 39.371094 70.900879 37.076172 C 70.900879 35.953125 70.461426 34.927734 69.729004 34.244141 L 39.748535 4.068359 C 39.016113 3.238281 37.941895 2.847656 36.867676 2.847656 C 35.744629 2.847656 34.719238 3.238281 33.986816 4.068359 Z"/>
    </g>
</svg>
