<?xml version="1.0" encoding="UTF-8"?>
<!-- Generated by Pixelmator Pro 3.3.9 -->
<svg width="66" height="40" viewBox="0 0 66 40" xmlns="http://www.w3.org/2000/svg">
    <g id="Ultralight-S-">
        <path id="path1" fill="currentColor" stroke="none" stroke-width="0.5" d="M 3.639893 35.194824 C 3.407043 35.469727 3.194641 35.677734 3.194641 36.028809 C 3.194641 36.643555 3.68103 37.175293 4.341125 37.175293 C 4.601379 37.175293 4.945618 37.099121 5.1297 36.866211 L 33.755676 5.27832 L 31.666809 5.27832 L 60.247375 36.866211 C 60.476868 37.099121 60.782593 37.175293 61.084778 37.175293 C 61.699585 37.175293 62.227905 36.643555 62.227905 36.028809 C 62.227905 35.677734 62.060913 35.515137 61.828003 35.240234 L 33.890991 4.337891 C 33.52179 3.961914 33.174194 3.662109 32.690308 3.662109 C 32.203003 3.662109 31.858704 3.916504 31.534973 4.29248 Z"/>
    </g>
</svg>
