<?xml version="1.0" encoding="UTF-8"?>
<!-- Generated by Pixelmator Pro 3.3.9 -->
<svg width="181" height="222" viewBox="0 0 181 222" xmlns="http://www.w3.org/2000/svg">
    <g id="g1">
        <path id="path1" fill="currentColor" stroke="none" d="M 60.666672 1.866669 C 48.133331 5.333344 42.666672 15.733337 42.666672 36 L 42.666672 45.333344 L 31.066666 45.333344 C 16.400002 45.333344 9.73333 48.133331 4.400002 56.133331 L 0.666664 61.866669 L 0.666664 133.199997 C 0.666664 213.066666 0.26667 209.333328 10.26667 216.933334 L 15.066666 220.666656 L 65.199997 221.066666 C 92.800003 221.333344 117.333328 221.066666 119.733337 220.666656 C 125.066666 219.733337 133.199997 212.800003 135.46666 207.066666 C 136.53334 204.666672 137.333328 198 137.333328 192.133331 C 137.333328 177.199997 137.199997 177.333328 148.53334 177.333328 C 160.133331 177.333328 166.666656 175.600006 172 171.066666 C 180.666656 163.866669 180.666656 164 180.666656 114 L 180.666656 68.533325 L 177.333344 62.266663 C 173.200012 54.399994 126 6.666656 118.933334 3.200012 C 114.800003 1.066681 110.133331 0.666656 90.666672 0.399994 C 74 0.133331 65.46666 0.533325 60.666672 1.866669 Z M 109.333328 42.933319 L 110 68 L 113.733337 71.600006 L 117.333328 75.333344 L 140.800003 75.733337 L 164.133331 76.133331 L 163.733337 114.666672 C 163.333344 152.666672 163.333344 153.333328 160.399994 156.266663 C 158 158.666672 155.46666 159.333328 148.133331 159.733337 L 138.933334 160.266663 L 138.399994 137.199997 C 138 118.266663 137.46666 113.199997 135.600006 109.600006 C 132.53334 103.866669 80.666672 51.066681 75.333328 48.266663 C 73.199997 47.066681 68.933334 45.866669 66 45.466675 L 60.666672 44.666656 L 60.666672 34.399994 C 60.800003 26.399994 61.333328 23.600006 63.199997 21.466675 C 66.266663 18 69.066666 17.733337 90.666672 17.866669 L 108.666672 18 L 109.333328 42.933319 Z M 143.066666 61.066681 C 133.733337 61.200012 125.333328 61.066681 124.399994 60.799988 C 123.066666 60.266663 122.666672 55.600006 122.666672 41.733337 L 122.666672 23.333344 L 141.333328 42 L 160 60.666656 L 143.066666 61.066681 Z M 57.333328 89.333328 C 57.199997 118.800003 58.266663 123.333328 65.066666 126.800003 C 67.600006 128.133331 76.133331 128.800003 94.933334 129.066666 L 121.199997 129.46666 L 121.333328 163.46666 L 121.333328 197.46666 L 118.133331 200.666672 L 114.800003 204 L 70.133331 204 C 45.600006 204 24.533333 203.600006 23.333336 203.199997 C 17.599998 200.933334 17.333336 198 17.333336 133.46666 C 17.333336 91.199997 17.73333 71.066681 18.800003 68.799988 C 21.066666 63.866669 24.800003 62.799988 41.600006 62.799988 L 57.333328 62.666656 L 57.333328 89.333328 Z M 97.600006 113.066666 C 86.800003 113.199997 76.666672 113.066666 75.066666 112.666672 C 72 112 72 111.733337 72 89.333328 L 72 66.799988 L 94.53334 89.733337 L 117.066666 112.666672 L 97.600006 113.066666 Z"/>
    </g>
</svg>
