<?xml version="1.0" standalone="no"?>
<!DOCTYPE svg PUBLIC "-//W3C//DTD SVG 20010904//EN"
 "http://www.w3.org/TR/2001/REC-SVG-20010904/DTD/svg10.dtd">
<svg version="1.0" xmlns="http://www.w3.org/2000/svg"
 width="143.000000pt" height="40.000000pt" viewBox="0 0 143.000000 40.000000"
 preserveAspectRatio="xMidYMid meet">
<metadata>
Created by potrace 1.16, written by Peter Selinger 2001-2019
</metadata>
<g transform="translate(0.000000,40.000000) scale(0.100000,-0.100000)"
fill="currentColor" stroke="none">
<path d="M53 377 c-55 -38 -71 -113 -33 -155 22 -23 89 -45 123 -40 28 4 67
72 67 118 0 32 -5 38 -54 68 -30 17 -58 32 -63 31 -4 0 -22 -11 -40 -22z"/>
<path d="M862 393 c-17 -6 -42 -57 -42 -83 0 -33 39 -100 65 -112 58 -26 115
29 115 113 0 59 -29 89 -86 88 -21 0 -45 -3 -52 -6z"/>
<path d="M436 348 c-20 -28 -21 -108 -2 -133 11 -16 27 -20 77 -20 60 0 64 1
86 34 14 21 23 49 23 72 0 52 -26 69 -107 69 -53 0 -64 -3 -77 -22z"/>
<path d="M1265 180 c-20 -39 -20 -143 1 -164 16 -16 90 -22 109 -8 19 14 55
97 55 127 0 39 -52 75 -110 75 -34 0 -42 -4 -55 -30z"/>
</g>
</svg>
