<?xml version="1.0" encoding="UTF-8"?>
<!-- Generated by Pixelmator Pro 3.3.9 -->
<svg width="16" height="14" viewBox="0 0 16 14" xmlns="http://www.w3.org/2000/svg">
    <path id="path1" fill="currentColor" stroke="none" d="M 12.110001 0.300119 C 11.63 0.450119 11.09 0.75012 10.91 0.99012 C 10.7 1.23012 9.53 2.19012 8.3 3.18012 C 7.07 4.1401 5.08998 5.7901 3.91998 6.8401 C 1.96998 8.5801 1.72998 8.9401 1.39998 10.4701 C 1.18998 11.400101 0.88998 12.3001 0.73998 12.510099 C 0.55998 12.7201 0.55998 13.080099 0.73998 13.3801 C 0.97998 13.8001 1.03998 13.8001 1.18998 13.410101 C 1.27998 13.1401 1.96998 12.8701 2.95998 12.750099 C 5.23998 12.420099 5.44998 12.330099 8.75 9.6001 C 13.43 5.7901 15.799999 3.51012 15.799999 2.91012 C 15.799999 2.37012 15.559999 2.01012 14.389999 0.720119 C 13.67 -0.059879 13.43 -0.08988 12.110001 0.300119 Z M 14.209999 2.01012 C 14.360001 2.49012 14.42 3.09012 14.360001 3.39012 C 14.27 3.84012 14.09 3.75012 13.25 2.79012 C 11.99 1.380119 11.96 1.200119 13.07 1.200119 C 13.76 1.200119 14 1.380119 14.209999 2.01012 Z M 12.32 3.03012 C 13.219999 4.0801 13.280001 4.5601 12.65 5.1001 C 12.26 5.4301 12.02 5.3101 11.18 4.3201 C 10.25 3.24012 10.19 3.12012 10.61 2.61012 C 11.27 1.92012 11.42 1.950119 12.32 3.03012 Z M 9.23 4.0201 C 9.05 4.2301 8.06 5.0701 7.01 5.8501 C 5.98998 6.6601 5.41998 6.9901 5.74998 6.6301 C 6.38 5.8801 9.14 3.60012 9.41 3.60012 C 9.5 3.60012 9.41 3.78012 9.23 4.0201 Z M 9.5 5.5501 C 8.09 7.0201 5.11998 9.3001 4.90998 9.1201 C 4.75998 8.9701 10.04 4.5301 10.37 4.5001 C 10.46 4.5001 10.07 4.9801 9.5 5.5501 Z M 11.3 5.9701 C 11.3 6.2101 6.35 10.500099 6.05 10.500099 C 5.50998 10.500099 6.2 9.6901 8.36 7.8301 C 10.7 5.7601 11.3 5.4001 11.3 5.9701 Z M 4.99998 7.3201 C 4.99998 7.3801 4.75998 7.6201 4.48998 7.8301 C 4.00998 8.2201 3.97998 8.1901 4.36998 7.7101 C 4.75998 7.2301 4.99998 7.0801 4.99998 7.3201 Z M 4.78998 11.430099 C 4.48998 11.5501 3.79998 11.670099 3.25998 11.670099 C 2.35998 11.7001 2.29998 11.6401 2.47998 10.8601 C 2.59998 10.410101 2.80998 9.7201 2.95998 9.3601 C 3.19998 8.6701 3.22998 8.6701 4.27998 9.9301 C 5.23998 11.1001 5.29998 11.250099 4.78998 11.430099 Z"/>
</svg>
