<?xml version="1.0" encoding="UTF-8"?>
<!-- Generated by Pixelmator Pro 3.3.9 -->
<svg width="100" height="100" viewBox="0 0 100 100" xmlns="http://www.w3.org/2000/svg">
    <path id="path1" fill="currentColor" stroke="none" d="M 45.111301 22.2295 C 45.037231 22.382767 44.247101 22.658638 43.3582 22.873169 C 39.876732 23.700768 36.173035 27.716103 35.308834 31.608795 C 35.160667 32.1912 34.963135 32.681602 34.839699 32.681602 C 34.691532 32.681602 34.592766 34.122231 34.592766 36.053265 C 34.592766 38.014935 34.691532 39.4249 34.839699 39.4249 C 34.963135 39.4249 35.185368 39.945965 35.3335 40.6203 C 35.777966 42.735233 37.012535 45.708332 37.827335 46.720001 C 38.592766 47.639332 39.3829 48.222 40.839699 48.896332 C 41.852032 49.386665 41.926098 50.061001 41.061901 51.164333 C 40.173035 52.359665 39.3582 54.321335 38.345867 57.815666 C 37.037235 62.382668 36.814999 64.222 36.814999 70.964996 L 36.814999 77.095329 L 37.506367 77.555328 C 37.876732 77.769669 38.5434 78.076332 38.987835 78.198997 C 39.432266 78.290665 39.777966 78.597336 39.777966 78.842667 C 39.777966 79.210335 40.716232 79.271667 45.456966 79.271667 C 50.543335 79.271667 51.901333 79.087662 50.839664 78.566666 C 50.667 78.47467 50.963001 78.38266 51.506332 78.351997 C 56.246998 78.137665 59.531002 77.831001 59.703999 77.647003 C 59.802666 77.493996 59.876667 74.33667 59.876667 70.597328 C 59.852001 63.976669 59.827332 63.700668 59.111332 60.666332 C 58.568001 58.367332 57.876667 56.497665 56.568001 53.677666 C 54.592667 49.417332 54.592667 49.570335 56.395332 48.130001 C 58.962997 46.106998 60.765667 41.754398 60.765667 37.616467 C 60.765667 33.509201 59.679333 30.352097 57.259331 27.378937 C 55.457001 25.172028 52.197666 22.873169 50.864334 22.873169 C 50.493999 22.873169 50.024998 22.658638 49.802666 22.413399 C 49.531002 22.076233 48.889 21.953636 47.3335 21.953636 C 46.173035 21.953636 45.185368 22.076233 45.111301 22.2295 Z M 44.765598 33.509201 C 45.777966 34.980469 45.308834 36.666267 43.901402 36.666267 C 42.864368 36.666267 42.493999 36.206501 42.493999 34.827202 C 42.493999 34.214165 42.617466 33.570503 42.790298 33.355934 C 43.234734 32.804199 44.345867 32.896172 44.765598 33.509201 Z M 53.062 34.15287 C 53.160667 35.470871 52.518665 36.421062 51.654667 36.298466 C 50.839664 36.175869 50.419998 34.888496 50.839664 33.754402 C 51.086666 33.080063 51.259335 32.957466 52.074333 33.049431 C 52.913666 33.141365 52.987999 33.23333 53.062 34.15287 Z M 52.321331 40.283134 C 52.419998 41.570499 51.629665 43.225666 50.641998 43.716 C 50.197666 43.930668 49.259335 44.053333 48.296467 43.961334 C 46.938469 43.869335 46.592766 43.716 45.950798 42.949802 C 45.061901 41.907665 44.790298 40.834866 45.210068 40.1912 C 45.679199 39.516869 46.173035 39.639465 47.111301 40.650967 C 47.629799 41.202667 48.222401 41.570499 48.667 41.570499 C 49.580334 41.570499 50.148335 41.294632 50.148335 40.834866 C 50.148335 40.007267 50.938332 39.087734 51.580334 39.179699 C 52.123665 39.241001 52.271667 39.455566 52.321331 40.283134 Z"/>
    <path id="path2" fill="currentColor" stroke="none" d="M 68.927048 14.593414 C 68.773865 14.708298 68.658981 16.278389 68.658981 18.039955 L 68.658981 21.21843 L 64.829491 21.21843 C 61.344654 21.21843 61 21.295021 61 21.946037 C 61 22.865112 61.995667 23.133179 65.710274 23.133179 L 68.658981 23.133179 L 68.658981 26.311653 C 68.658981 29.911377 69.233406 31.366585 70.343956 30.44751 C 70.803497 30.02626 70.956673 29.183777 70.956673 26.541428 L 70.956673 23.133179 L 74.173447 23.133179 C 76.356255 23.133179 77.505104 22.980003 77.811462 22.635345 C 78.615654 21.639679 77.466812 21.21843 74.135155 21.21843 L 70.956673 21.21843 L 70.956673 18.384613 C 70.956673 16.814522 70.841789 15.282722 70.726906 14.938072 C 70.497139 14.325356 69.386581 14.095581 68.927048 14.593414 Z"/>
</svg>
