<?xml version="1.0" standalone="no"?>
<!DOCTYPE svg PUBLIC "-//W3C//DTD SVG 20010904//EN"
 "http://www.w3.org/TR/2001/REC-SVG-20010904/DTD/svg10.dtd">
<svg version="1.0" xmlns="http://www.w3.org/2000/svg"
 width="626.000000pt" height="626.000000pt" viewBox="0 0 626.000000 626.000000"
 preserveAspectRatio="xMidYMid meet">
<metadata>
Created by potrace 1.16, written by Peter Selinger 2001-2019
</metadata>
<g transform="translate(0.000000,626.000000) scale(0.100000,-0.100000)"
fill="currentColor" stroke="none">
<path d="M2943 6236 c-39 -13 -102 -44 -140 -69 -37 -25 -333 -290 -658 -588
l-590 -541 -220 6 c-121 4 -240 11 -265 16 -64 13 -307 12 -331 -1 -70 -37
-79 -87 -50 -265 15 -94 22 -183 23 -327 l3 -198 -318 -291 c-175 -160 -316
-292 -315 -294 20 -19 487 -179 628 -214 47 -11 127 -35 178 -51 51 -17 95
-29 98 -26 3 2 0 42 -6 88 -14 117 -38 591 -38 786 -1 89 -5 188 -11 220 -6
32 -13 127 -16 212 l-5 153 73 -5 c374 -30 496 -30 1027 -2 146 8 335 17 420
20 85 3 254 12 375 20 299 19 438 24 870 30 204 3 431 10 505 15 74 5 210 9
302 10 91 0 168 4 170 9 2 5 119 11 260 13 l257 4 6 -41 c2 -22 18 -276 35
-565 16 -289 32 -552 35 -585 2 -33 10 -152 16 -265 11 -202 18 -240 42 -240
7 0 71 16 142 36 72 20 175 48 230 64 77 20 360 114 504 166 10 3 -10 27 -59
72 -41 37 -218 199 -395 361 -176 161 -323 296 -327 300 -8 7 -22 194 -38 506
-16 299 -17 309 -46 340 l-25 27 -412 -8 -412 -7 -275 253 c-151 140 -358 328
-460 419 -101 91 -214 193 -250 226 -127 117 -177 155 -256 192 -103 49 -176
54 -281 19z"/>
<path d="M1215 4570 c3 -5 8 -10 11 -10 2 0 4 5 4 10 0 6 -5 10 -11 10 -5 0
-7 -4 -4 -10z"/>
<path d="M3130 4552 c-22 -18 -23 -24 -21 -158 1 -168 10 -391 17 -421 l4 -23
-366 0 -366 0 -29 -31 c-16 -17 -29 -42 -29 -56 0 -27 40 -72 67 -74 10 -1
178 0 374 1 l355 2 18 -314 c13 -232 21 -319 32 -335 29 -46 105 -39 124 12 6
16 6 123 0 293 -5 147 -10 284 -10 305 l0 37 318 1 c174 0 325 3 334 7 33 14
60 60 53 92 -13 61 -21 63 -385 61 l-329 -2 -5 23 c-3 13 -10 131 -16 263 -14
274 -20 312 -56 325 -37 14 -59 12 -84 -8z"/>
<path d="M14 2088 c-13 -2013 -13 -2069 7 -2081 9 -5 28 -7 42 -3 19 4 415
423 1281 1354 690 741 1256 1352 1258 1357 1 6 -51 27 -117 48 -66 21 -183 61
-260 88 -682 243 -844 294 -1149 360 -77 17 -206 52 -286 79 -199 66 -312 99
-540 158 -108 28 -202 54 -211 57 -14 5 -17 -129 -25 -1417z"/>
<path d="M6095 3339 c-82 -27 -159 -49 -171 -49 -23 0 -241 -65 -354 -105
-131 -47 -224 -75 -247 -75 -29 0 -1448 -422 -1461 -434 -3 -3 26 -41 65 -83
38 -43 532 -602 1098 -1243 1163 -1317 1192 -1350 1210 -1350 7 0 16 7 19 16
8 21 5 3374 -3 3373 -3 0 -73 -23 -156 -50z"/>
<path d="M3079 2831 c-13 -10 -35 -22 -47 -26 -58 -18 -124 -75 -255 -220 -30
-33 -579 -624 -1221 -1314 -641 -689 -1166 -1257 -1166 -1262 0 -5 1137 -9
2765 -9 1521 0 2765 3 2765 8 0 4 -506 581 -1124 1282 -619 701 -1142 1295
-1163 1319 -80 92 -192 198 -219 208 -65 23 -129 33 -218 33 -76 0 -98 -3
-117 -19z"/>
</g>
</svg>
