<?xml version="1.0" encoding="UTF-8"?>
<!-- Generated by Pixelmator Pro 3.3.9 -->
<svg width="319" height="425" viewBox="0 0 319 425" xmlns="http://www.w3.org/2000/svg">
    <g id="g1">
        <path id="path1" fill="currentColor" stroke="none" d="M 98.800003 4 C 97.066666 4 84.26667 8.933319 83.333336 10 C 82.400002 11.066681 80.800003 12 79.73333 12 C 78.666664 12 75.466667 13.733337 72.800003 15.866669 C 70.133331 17.866669 66.800003 20 65.199997 20.533325 C 63.599998 20.933319 61.333336 23.866669 60 26.799988 C 58.666672 29.733337 55.200001 34 52.400002 36.133331 C 47.066666 40.399994 42 50 42 56 C 42 58 39.466667 64.933319 36.400002 71.466675 L 30.666668 83.333344 L 30.266666 112.799988 L 29.866669 142.266663 L 33.599998 143.866669 C 35.599998 144.666656 40.400002 145.866669 44 146.666656 C 58.533333 149.600006 63.466667 147.600006 63.866669 146.799988 C 64.400002 146.133331 68 144.799988 72 144 L 77 140 L 79.333336 134.266663 C 79.333336 125.066681 84.933334 111.600006 85.066666 98.399994 C 85.066666 92 85.887665 88.145508 86.26667 87.466675 C 86.920303 86.29599 89.368347 82.733826 90 81.200012 C 92.081665 76.145203 101.73333 62.266663 109.866669 58.399994 C 114.26667 56.266663 115.539864 55.230011 118.533333 54.933319 C 126.370163 54.156555 128.703735 53.824951 146.53334 51.866669 C 147.24707 51.788269 151.733337 50.933319 158.933334 51.066681 C 171.199997 51.466675 172.666672 51.733337 183.600006 57.066681 C 190 60.133331 209.46666 74.799988 210.800003 78 C 212.133331 81.333344 213.600006 84 214.133331 84 C 214.800003 84 215.066666 87.333344 214.800003 91.333344 C 214.53334 95.466675 220.933334 110.799988 220.53334 124 C 220.133331 132.933319 221.199997 150 220.933334 170.799988 C 220.666672 184.933334 220 197.733337 219.333328 199.199997 C 218.399994 202 218 202 148.53334 202.133331 C 110.133331 202.266663 72.666664 202.266663 65.333336 202.133331 C 28.799999 202 14.799999 202.800003 9.066667 205.600006 C 1.866667 208.933334 0.666667 212.800003 0.666667 232.666672 C 0.666667 242.666672 0 249 0 261 C 0 272.466675 0.666667 279.866669 0.666667 284.266663 C 0.666667 288.133331 1.6 297.333313 2.666667 304.533325 C 3.733334 311.866669 4.666667 322 4.666667 327.200012 C 4.666667 332.399994 5.333334 342.399994 6.133333 349.333344 C 6.8 356.266663 8 367.733337 8.666667 374.666656 C 10.4 391.333344 14.133333 405.066681 18.933332 412.266663 C 22 416.933319 24.4 418.666656 31.333332 421.333344 L 40 424.666656 L 134 424.533325 C 204.266663 424.399994 229.866669 424 235.333328 422.799988 C 239.333328 421.866669 254.133331 420.533325 268 419.866669 C 304 418.133331 307.866669 417.600006 311.200012 414.133331 C 312.933319 412.266663 314.799988 407.200012 316.133331 399.866669 C 318 390.399994 318.399994 376.399994 318.799988 308 C 319.066681 263.600006 318.666656 223.733337 318 219.46666 C 316.266663 207.866669 313.733337 205.199997 301.866669 202.399994 C 296.399994 201.199997 288 200.133331 283.066681 200 C 275.866669 200 273.200012 196.133331 272.399994 196.266663 C 271.066681 196.53334 270.799988 190.800003 271.200012 170 C 271.466675 155.333344 271.733337 139.333344 271.866669 134.399994 C 271.866669 129.600006 267.866669 116.666656 267.600006 105.733337 C 267.066681 93.200012 263.866669 83.066681 262.799988 69.200012 C 262.133331 60.133331 261.600006 58.533325 257.866669 54.533325 C 255.466675 52 250.93335 44.533325 247.733337 38 C 241.066666 24.266663 237.600006 20.266663 227.333328 13.600006 C 214 4.799988 211.600006 4 200.266663 4 C 191.46666 4 185.600006 0 144.933334 0.133331 C 119.466667 0.133331 102.133331 4 98.800003 4 Z M 176 276.666687 C 181.199997 280.533325 188.666672 291.466675 188.666672 295.06665 C 188.666672 300.799988 185.333328 308.533325 180.933334 312.399994 L 176.399994 316.666656 L 177.066666 334.93335 C 177.333328 344.93335 177.199997 353.866669 176.53334 354.799988 C 175.066666 357.333344 160.933334 357.200012 156 354.666656 L 152 352.666656 L 151.333328 338 C 150.666672 322.533325 149.866669 320 146.266663 320 C 145.066666 320 142 318.799988 139.733337 317.333344 C 139.733337 317.333344 138.296478 316.309937 137 314 C 135.129257 310.66687 135.333328 303.200012 135.333328 303.200012 C 135.333328 290.133331 136 288.266663 144.666672 279.600006 L 152 275 L 161.333328 273.333313 C 170.399994 273.333313 172.266663 273.733337 176 276.666687 Z"/>
    </g>
</svg>
