<?xml version="1.0" standalone="no"?>
<!DOCTYPE svg PUBLIC "-//W3C//DTD SVG 20010904//EN"
 "http://www.w3.org/TR/2001/REC-SVG-20010904/DTD/svg10.dtd">
<svg version="1.0" xmlns="http://www.w3.org/2000/svg"
 width="1423.000000pt" height="1409.000000pt" viewBox="0 0 1423.000000 1409.000000"
 preserveAspectRatio="xMidYMid meet">
<metadata>
Created by potrace 1.16, written by Peter Selinger 2001-2019
</metadata>
<g transform="translate(0.000000,1409.000000) scale(0.100000,-0.100000)"
fill="currentColor" stroke="none">
<path d="M6820 14083 c-1511 -45 -2992 -591 -4175 -1538 -1033 -827 -1794
-1895 -2242 -3145 -55 -154 -125 -380 -148 -480 -9 -41 -21 -79 -25 -85 -14
-19 -98 -399 -134 -615 -69 -406 -91 -691 -91 -1180 l0 -405 34 -80 c18 -44
44 -111 58 -150 14 -38 29 -74 33 -80 9 -12 84 -190 95 -224 30 -98 161 -333
236 -423 21 -25 44 -59 51 -75 7 -15 34 -59 60 -97 26 -38 48 -80 48 -93 0
-15 8 -26 23 -32 28 -11 187 -25 187 -17 0 4 -11 24 -24 44 -13 21 -44 79 -69
128 -25 49 -71 134 -102 189 -57 100 -120 274 -145 400 -31 155 -41 207 -56
300 -8 55 -32 177 -51 270 -38 176 -56 308 -73 530 -15 192 -27 279 -39 283
-14 5 -14 145 0 194 7 27 17 40 35 44 40 10 54 -11 54 -80 0 -33 7 -88 16
-121 8 -33 19 -123 24 -200 15 -258 53 -459 161 -850 17 -63 35 -112 40 -109
5 3 9 11 9 18 0 7 21 55 46 107 85 175 100 228 129 474 8 72 22 175 31 230 30
195 27 641 -6 765 -5 19 -16 110 -24 201 -9 91 -25 210 -37 265 -32 150 -46
247 -58 400 -6 76 -16 177 -21 224 -5 47 -12 162 -16 255 -7 199 5 273 66 425
66 164 149 342 188 404 21 34 76 122 122 196 99 159 176 264 280 380 42 47 91
106 109 133 23 33 39 47 55 47 27 0 52 -25 61 -60 7 -31 -38 -105 -144 -235
-39 -47 -71 -88 -71 -90 0 -3 54 37 119 88 66 51 169 120 229 155 172 99 402
315 432 406 7 22 26 62 42 89 44 75 76 158 93 244 23 109 97 321 150 428 74
149 295 392 520 570 28 21 79 64 115 95 74 64 178 139 230 165 19 9 44 25 55
35 11 10 76 55 145 100 69 44 145 94 168 110 45 29 67 30 89 2 16 -20 3 -44
-39 -71 -18 -11 -55 -37 -83 -57 l-50 -36 40 7 c128 21 237 89 407 253 57 55
70 64 92 58 20 -5 26 -13 26 -34 0 -63 -293 -301 -414 -337 -127 -37 -265 -73
-305 -80 -88 -15 -179 -70 -336 -204 -49 -42 -106 -89 -125 -103 -19 -15 -64
-54 -100 -86 l-64 -59 49 -22 c28 -12 67 -35 88 -52 20 -17 54 -36 74 -43 33
-11 44 -10 97 11 51 20 77 23 186 23 171 0 193 9 295 117 151 159 345 345 401
385 32 22 79 48 106 59 128 50 195 94 235 153 69 103 222 259 312 320 91 61
224 103 491 155 105 21 257 58 272 67 4 3 8 11 8 19 0 24 88 83 173 116 l82
32 175 -6 c96 -3 198 -11 226 -18 45 -10 57 -9 105 9 162 63 244 101 241 112
-9 38 -3 141 8 155 19 23 76 45 115 45 39 0 71 -34 80 -84 12 -62 -46 -156
-96 -156 -10 0 -26 -11 -35 -24 -10 -16 -38 -32 -77 -46 -138 -46 -115 -54
136 -47 155 4 208 10 272 27 44 12 87 23 95 24 8 1 29 8 45 15 47 21 191 32
280 22 44 -4 139 -25 210 -46 125 -36 138 -37 322 -42 251 -7 274 1 136 47
-39 14 -67 30 -77 46 -9 13 -25 24 -35 24 -50 0 -108 94 -96 156 9 50 41 84
80 84 39 0 96 -22 115 -45 11 -14 17 -117 8 -155 -3 -11 79 -49 241 -112 48
-18 60 -19 105 -9 28 7 130 15 226 18 l175 6 82 -32 c85 -33 173 -92 173 -116
0 -8 4 -16 8 -19 15 -9 167 -46 272 -67 267 -52 400 -94 491 -155 90 -61 243
-217 312 -320 40 -59 107 -103 235 -153 27 -11 74 -37 106 -59 56 -40 250
-226 401 -385 102 -108 124 -117 295 -117 109 0 135 -3 186 -23 54 -22 63 -23
98 -11 20 8 55 27 76 44 21 17 60 40 86 52 l48 21 -64 59 c-36 32 -81 71 -100
86 -19 14 -75 61 -125 103 -118 101 -248 187 -293 194 -38 6 -272 67 -354 92
-82 25 -211 118 -345 247 -48 45 -63 67 -63 88 0 21 6 29 26 34 22 6 35 -3 92
-58 170 -164 279 -232 407 -253 l40 -7 -50 36 c-27 20 -65 46 -83 57 -47 31
-57 54 -32 79 24 24 52 16 115 -31 40 -30 261 -177 319 -213 83 -50 187 -125
246 -175 36 -31 88 -75 115 -96 225 -178 446 -421 520 -570 53 -107 127 -319
150 -428 17 -86 49 -169 93 -244 16 -27 35 -67 42 -89 30 -91 260 -307 432
-406 60 -35 163 -104 229 -155 65 -51 119 -91 119 -88 0 2 -32 43 -71 90 -106
130 -151 204 -144 235 9 35 34 60 61 60 16 0 32 -14 55 -47 18 -27 67 -86 109
-133 104 -116 181 -221 280 -380 46 -74 101 -162 122 -196 39 -62 122 -240
188 -404 61 -152 73 -226 66 -425 -4 -93 -11 -208 -16 -255 -5 -47 -15 -148
-21 -225 -6 -77 -17 -183 -25 -235 -8 -52 -19 -135 -24 -185 -5 -49 -17 -126
-25 -170 -36 -187 -61 -437 -70 -700 -5 -138 -3 -189 20 -365 60 -467 65 -487
159 -679 25 -52 46 -100 46 -107 0 -7 4 -15 9 -18 5 -3 23 46 40 109 108 391
146 592 161 850 5 77 16 167 24 200 9 33 16 87 16 120 0 77 25 104 69 76 17
-11 17 -142 1 -306 -6 -55 -15 -154 -20 -220 -19 -220 -36 -349 -73 -520 -19
-93 -43 -215 -51 -270 -15 -93 -25 -145 -56 -300 -25 -126 -88 -300 -145 -400
-31 -55 -77 -140 -102 -189 -25 -49 -56 -107 -69 -128 -13 -20 -24 -40 -24
-44 0 -8 159 6 188 17 14 6 22 17 22 32 0 13 22 55 48 93 26 38 53 82 60 97 7
16 30 50 51 75 75 90 206 325 236 423 11 34 86 212 95 224 4 6 19 42 33 80 14
39 40 106 58 150 l34 80 0 405 c0 413 -7 548 -46 870 -95 782 -328 1558 -680
2263 -351 702 -771 1289 -1314 1832 -1221 1224 -2785 1939 -4520 2065 -142 11
-663 19 -845 13z m-4952 -2641 c22 -28 11 -126 -18 -157 -50 -53 -120 -22
-120 53 0 100 89 167 138 104z m10581 12 c46 -33 66 -128 35 -172 -21 -31 -73
-30 -103 2 -42 45 -41 159 2 176 32 13 40 12 66 -6z m-12116 -3287 c10 -6 20
-28 23 -48 5 -32 2 -42 -28 -74 -56 -61 -118 -45 -118 29 0 54 12 78 44 92 39
17 58 17 79 1z m13636 2 c35 -12 51 -41 51 -93 0 -76 -62 -93 -118 -31 -30 32
-33 42 -28 74 5 35 27 61 51 61 7 0 27 -5 44 -11z"/>
<path d="M7020 13550 c0 -5 -9 -10 -20 -10 -12 0 -76 -17 -143 -37 l-122 -38
-340 0 -340 0 -100 -28 c-55 -16 -122 -36 -150 -44 -29 -9 -118 -18 -215 -22
-141 -7 -184 -13 -300 -43 -74 -20 -169 -41 -210 -48 -167 -28 -361 -89 -429
-133 -50 -33 -190 -165 -223 -211 -20 -26 -20 -28 -2 -19 71 37 197 93 242
109 60 21 85 13 90 -28 4 -31 -8 -40 -83 -62 -33 -10 -112 -45 -175 -79 -63
-33 -191 -94 -285 -136 -224 -101 -234 -108 -487 -352 -74 -72 -61 -99 15 -31
84 76 106 90 127 85 33 -9 44 -40 25 -69 -8 -13 -20 -24 -25 -24 -5 0 -34 -22
-64 -49 -34 -31 -73 -55 -107 -66 -30 -9 -101 -38 -159 -63 l-105 -47 -150 -5
c-82 -3 -158 -9 -167 -14 -32 -15 -8 -26 58 -26 84 0 134 -20 134 -54 0 -35
-14 -40 -100 -38 -135 5 -270 59 -330 134 -18 21 -34 37 -37 34 -3 -3 -22 3
-42 13 -20 10 -57 20 -84 22 l-47 4 -86 -100 c-98 -115 -142 -196 -207 -390
-47 -137 -61 -185 -53 -185 3 0 27 33 53 73 140 209 178 257 204 257 26 0 40
-24 46 -84 5 -50 3 -59 -34 -123 -101 -171 -151 -245 -164 -238 -4 3 -18 -12
-30 -32 -13 -21 -77 -94 -144 -163 -66 -69 -149 -160 -184 -202 -35 -43 -68
-78 -72 -78 -5 0 -43 -31 -84 -69 -63 -58 -140 -111 -295 -202 -48 -27 -146
-103 -244 -188 -127 -111 -295 -240 -321 -247 -36 -9 -119 -163 -230 -424 -79
-185 -88 -237 -81 -445 4 -93 9 -215 13 -270 l6 -100 33 130 c49 191 61 227
121 365 99 226 115 250 155 229 33 -18 31 -36 -12 -136 -64 -148 -106 -273
-149 -443 -7 -25 -21 -79 -33 -120 -19 -69 -21 -101 -22 -375 l0 -300 38 -140
c48 -173 54 -248 48 -625 -3 -240 -7 -298 -24 -365 -11 -44 -21 -89 -24 -100
-2 -11 -8 -40 -13 -65 -6 -25 -14 -70 -19 -100 -5 -30 -31 -131 -57 -225 -26
-93 -55 -201 -64 -240 -17 -75 -57 -147 -92 -165 -14 -8 -18 -17 -14 -28 6
-15 25 -79 96 -321 67 -230 182 -489 248 -559 31 -32 81 -104 81 -115 0 -5 24
-38 53 -74 28 -35 77 -95 107 -133 30 -37 79 -100 109 -139 30 -39 56 -69 58
-67 8 8 -93 206 -162 319 -41 68 -75 134 -75 145 0 12 11 29 25 38 23 15 27
15 49 0 14 -8 27 -24 30 -34 3 -10 25 -34 49 -54 30 -25 58 -65 92 -130 26
-51 55 -104 65 -118 42 -60 204 -387 245 -496 55 -144 63 -173 80 -289 7 -49
20 -117 28 -150 21 -85 35 -169 43 -250 3 -38 17 -105 30 -148 13 -43 24 -86
24 -96 0 -10 6 -31 14 -47 8 -16 20 -51 27 -79 6 -27 15 -57 20 -65 5 -8 19
-35 30 -60 62 -138 76 -164 96 -177 12 -8 36 -40 54 -71 18 -31 53 -89 80
-128 43 -65 53 -73 101 -88 115 -38 328 -161 446 -259 35 -28 103 -79 152
-112 93 -63 537 -487 626 -597 51 -63 50 -62 259 -98 66 -12 168 -50 334 -126
41 -19 91 -39 110 -44 165 -41 335 -134 706 -387 39 -27 106 -71 150 -100 44
-28 134 -89 200 -133 66 -45 174 -109 240 -141 118 -58 122 -59 255 -72 85 -9
183 -27 265 -49 244 -67 404 -98 495 -98 82 0 169 18 196 41 7 6 25 9 41 7 21
-2 29 -9 31 -26 9 -60 -101 -103 -265 -104 -112 -1 -219 18 -512 94 -144 37
-257 56 -352 61 -66 3 -89 10 -183 55 -59 28 -124 64 -144 80 -34 27 -373 257
-671 454 -211 141 -441 242 -473 210 -7 -7 -19 -12 -27 -12 -8 0 -79 -32 -157
-70 -103 -51 -165 -75 -224 -87 -99 -20 -153 -11 -158 25 -6 39 13 49 100 55
76 5 92 10 227 77 l146 72 -40 19 c-157 73 -257 108 -330 119 -112 15 -263 52
-380 94 -97 35 -104 36 -242 36 -79 0 -143 -3 -143 -6 0 -3 10 -19 23 -35 28
-36 73 -102 136 -200 27 -42 71 -101 98 -130 26 -30 59 -70 73 -89 13 -19 57
-73 98 -120 41 -47 86 -104 101 -126 14 -23 63 -81 108 -130 45 -49 101 -116
126 -149 79 -107 110 -129 306 -220 381 -178 833 -338 1236 -439 459 -114 902
-181 1360 -203 193 -10 687 -10 880 0 894 44 1790 266 2596 642 196 91 225
112 308 221 25 33 70 90 100 125 29 35 66 80 82 99 71 89 142 169 190 215 28
28 58 65 65 83 8 17 37 57 65 88 28 31 73 91 100 133 63 98 108 164 137 200
12 16 22 32 22 35 0 3 -64 6 -143 6 -138 0 -145 -1 -242 -36 -117 -42 -268
-79 -380 -94 -73 -11 -173 -46 -330 -119 l-40 -19 146 -72 c135 -67 151 -72
227 -77 87 -6 106 -16 100 -55 -5 -36 -59 -45 -158 -25 -59 12 -121 36 -224
87 -78 38 -149 70 -157 70 -8 0 -20 5 -27 12 -33 33 -262 -69 -473 -210 -64
-42 -235 -156 -380 -253 -145 -97 -295 -193 -332 -213 -38 -21 -83 -50 -100
-65 -54 -47 -78 -55 -167 -58 -101 -2 -216 -22 -371 -61 -400 -103 -548 -119
-680 -74 -75 26 -102 49 -97 84 2 17 10 24 31 26 16 2 34 -1 41 -7 27 -23 114
-41 196 -41 87 0 328 46 398 77 18 8 43 15 55 15 12 0 67 11 122 24 55 13 150
28 212 34 107 11 117 14 230 70 65 32 172 95 238 140 66 44 156 105 200 133
44 29 111 73 150 100 371 253 541 346 706 387 19 5 69 25 110 44 166 76 268
114 334 126 209 36 208 35 259 98 89 110 533 534 626 597 49 33 117 84 152
112 118 98 331 221 446 259 48 15 58 23 101 88 27 39 62 97 80 128 18 31 42
63 54 71 20 13 34 39 96 177 11 25 25 52 30 60 5 8 14 38 20 65 7 28 19 63 27
79 8 16 14 37 14 47 0 10 11 53 24 96 13 43 27 110 30 148 8 81 22 165 43 250
8 33 21 101 28 150 17 116 25 145 80 289 43 114 184 398 256 516 62 100 244
320 266 320 12 0 14 -8 18 -65 0 -11 -28 -67 -63 -125 -56 -90 -162 -300 -162
-318 0 -8 53 55 100 119 19 26 69 89 111 140 114 143 241 324 292 419 43 81
115 271 156 411 71 242 90 306 96 321 4 11 0 20 -14 28 -35 18 -75 90 -92 165
-9 39 -38 147 -64 240 -26 94 -52 195 -57 225 -5 30 -13 75 -19 100 -5 25 -11
54 -13 65 -3 11 -14 56 -25 100 -17 65 -21 111 -21 248 0 298 30 673 65 817
24 97 36 233 25 288 -5 28 -9 102 -9 164 1 77 -6 148 -20 223 -12 61 -26 137
-32 170 -21 119 -77 289 -149 458 -43 100 -45 118 -12 136 40 21 56 -3 155
-229 60 -138 72 -174 121 -365 l33 -130 6 100 c4 55 9 177 13 270 7 208 -2
260 -81 445 -111 261 -194 415 -230 424 -26 7 -194 136 -321 247 -128 110
-205 168 -279 209 -132 73 -225 143 -330 247 -160 159 -377 391 -412 443 -41
60 -223 419 -223 440 0 21 19 40 40 40 25 0 64 -50 203 -257 26 -40 50 -73 53
-73 15 0 -84 289 -136 395 -38 79 -198 281 -220 279 -5 -1 -28 -2 -49 -2 -27
-2 -54 -13 -87 -37 -186 -132 -234 -154 -369 -165 -101 -8 -125 -1 -125 36 0
34 50 54 134 54 66 0 90 11 58 26 -9 5 -84 11 -167 14 l-150 5 -105 47 c-58
25 -129 54 -159 63 -34 11 -73 35 -107 66 -30 27 -59 49 -64 49 -5 0 -17 11
-25 24 -19 29 -8 60 25 69 21 5 43 -9 127 -85 76 -68 89 -41 15 31 -253 244
-263 251 -487 352 -93 42 -222 103 -285 136 -63 34 -142 69 -175 79 -75 22
-87 31 -83 62 5 41 30 49 90 28 45 -16 171 -72 242 -109 18 -9 18 -7 -2 19
-33 46 -173 178 -223 211 -68 44 -262 105 -429 133 -41 7 -136 28 -210 48
-116 30 -159 36 -300 43 -97 4 -186 13 -215 22 -27 8 -95 28 -150 44 l-100 28
-340 0 -340 0 -122 38 c-67 20 -131 37 -143 37 -11 0 -20 5 -20 10 0 6 -38 10
-95 10 -57 0 -95 -4 -95 -10z m582 -324 c31 -3 74 -9 95 -15 21 -5 97 -17 168
-26 1087 -136 2166 -599 3015 -1294 874 -715 1508 -1615 1889 -2681 127 -358
218 -727 276 -1125 27 -185 31 -245 30 -380 -2 -102 1 -162 8 -167 15 -9 15
-705 -1 -918 -7 -96 -19 -206 -27 -245 -18 -88 -41 -231 -50 -310 -4 -33 -10
-64 -15 -70 -4 -5 -10 -32 -14 -60 -4 -27 -20 -93 -36 -145 -16 -52 -41 -142
-56 -200 -37 -144 -120 -395 -189 -570 -63 -163 -145 -352 -156 -360 -4 -3
-24 -45 -46 -95 -82 -190 -230 -449 -404 -708 -644 -956 -1570 -1726 -2609
-2171 -74 -32 -148 -64 -165 -71 -144 -63 -547 -193 -757 -244 -532 -129 -913
-176 -1443 -176 -530 0 -911 47 -1443 176 -210 51 -613 181 -757 244 -16 7
-91 39 -165 71 -1039 445 -1965 1215 -2609 2171 -174 259 -322 518 -404 708
-22 50 -42 92 -46 95 -21 15 -184 419 -256 634 -45 135 -118 384 -130 446 -4
19 -11 37 -15 40 -10 7 -66 270 -80 380 -6 47 -27 193 -47 325 -36 235 -37
247 -37 540 -1 279 8 630 19 735 3 25 7 72 11 105 3 33 17 137 30 230 121 847
442 1689 922 2420 782 1192 1966 2074 3317 2470 346 101 678 171 930 195 66 6
134 15 150 20 17 5 74 12 128 15 53 4 100 12 104 18 6 10 725 4 865 -7z
m-6121 -3047 c18 -18 20 -29 15 -67 -3 -24 -6 -62 -6 -83 0 -56 -24 -76 -104
-84 -56 -6 -70 -5 -86 10 -25 22 -26 70 -3 127 21 56 38 75 87 98 54 24 72 24
97 -1z m11361 1 c53 -23 69 -41 91 -98 23 -57 22 -105 -3 -127 -16 -15 -30
-16 -86 -10 -80 8 -104 28 -104 84 0 21 -3 59 -6 83 -5 38 -3 49 15 67 26 26
37 26 93 1z m-11836 -3961 c35 -37 38 -93 8 -155 -22 -45 -55 -55 -103 -29
-41 21 -61 63 -61 126 0 69 18 89 80 89 39 0 51 -5 76 -31z m12356 14 c23 -21
25 -111 3 -153 -18 -36 -66 -62 -103 -58 -34 4 -65 62 -66 124 -1 34 5 49 28
73 25 26 38 31 75 31 27 0 51 -6 63 -17z m-11097 -2850 c8 -10 32 -38 53 -63
61 -72 72 -92 72 -135 0 -46 -6 -57 -37 -73 -50 -27 -111 27 -168 150 -29 61
-32 100 -9 122 21 21 70 20 89 -1z m9789 1 c23 -22 20 -61 -9 -122 -57 -123
-118 -177 -168 -150 -31 16 -37 27 -37 73 0 43 11 63 72 135 21 25 45 53 53
63 19 21 68 22 89 1z"/>
<path d="M6879 13133 l-56 -4 -6 -82 c-4 -45 -10 -120 -13 -167 -4 -47 -8 -86
-9 -88 -2 -2 -171 221 -228 302 -13 17 -19 18 -120 5 -59 -7 -112 -16 -118
-19 -7 -5 9 -46 45 -117 30 -61 52 -113 49 -116 -3 -3 9 -30 27 -59 18 -29 44
-73 58 -98 13 -25 37 -68 53 -96 l28 -51 -47 -33 c-26 -18 -74 -51 -107 -74
-33 -22 -74 -51 -91 -65 -17 -14 -40 -32 -51 -40 -25 -17 -20 -52 14 -85 14
-14 70 -48 126 -77 82 -42 208 -117 224 -133 2 -2 -11 -44 -31 -94 -54 -140
-98 -319 -113 -458 -6 -49 16 -64 52 -37 13 10 71 56 130 101 58 46 108 82
109 80 10 -11 46 -370 51 -508 8 -195 51 -766 60 -780 7 -11 19 -167 35 -440
6 -96 21 -267 35 -380 13 -113 36 -317 50 -455 42 -410 48 -449 67 -453 22 -4
24 16 43 548 14 402 46 857 74 1044 5 34 12 160 15 281 11 391 44 1103 54
1157 l7 37 80 -70 c44 -38 84 -69 89 -69 6 0 21 -11 35 -24 15 -14 40 -27 56
-30 25 -5 32 -1 43 21 19 42 14 77 -16 119 -32 45 -188 361 -215 436 -5 13 32
41 178 134 101 64 192 125 200 135 20 21 34 10 -165 124 -74 43 -153 92 -176
111 l-41 33 63 188 c35 103 76 216 90 251 15 34 24 65 21 68 -5 6 -122 16
-202 18 l-39 1 -61 -120 c-34 -66 -76 -154 -95 -195 -18 -41 -35 -69 -38 -62
-2 7 1 18 7 26 8 9 6 56 -5 167 -21 220 -11 199 -97 197 -39 -1 -97 -3 -128
-5z m161 -729 c16 -40 12 -149 -5 -164 -24 -20 -49 -7 -72 40 -25 48 -29 84
-13 124 8 21 16 26 45 26 29 0 37 -5 45 -26z"/>
<path d="M7505 12808 c-13 -29 -23 -53 -22 -54 1 -1 74 -9 162 -18 865 -89
1669 -365 2400 -825 844 -531 1535 -1284 1996 -2176 308 -595 515 -1270 589
-1920 16 -147 21 -175 28 -175 4 0 30 13 58 29 l51 29 -14 129 c-92 867 -422
1776 -913 2508 -798 1191 -1985 2025 -3385 2376 -285 71 -746 149 -886 149
-38 0 -41 -2 -64 -52z"/>
<path d="M6200 12818 c-183 -31 -391 -73 -495 -99 -1290 -321 -2402 -1061
-3196 -2124 -566 -760 -941 -1669 -1078 -2620 -34 -232 -37 -302 -16 -325 26
-29 41 -25 74 20 22 31 30 55 35 112 36 375 146 865 279 1238 106 300 280 677
437 950 383 665 946 1284 1580 1737 635 454 1406 793 2130 937 14 3 61 12 105
21 44 9 136 25 204 35 68 11 126 22 130 25 3 4 -6 27 -21 53 -25 44 -29 47
-70 49 -24 0 -68 -3 -98 -9z"/>
<path d="M8724 12372 c-24 -15 -25 -68 -3 -131 11 -34 19 -64 16 -67 -2 -2
-16 0 -31 6 -33 12 -86 13 -104 1 -8 -5 -12 -21 -10 -37 2 -24 10 -32 46 -44
23 -8 42 -18 42 -23 0 -14 -74 -77 -92 -77 -21 0 -48 -37 -48 -66 0 -16 9 -25
31 -33 38 -13 67 0 124 57 48 47 91 76 98 65 5 -9 18 -65 42 -173 9 -41 24
-81 33 -87 22 -18 59 -16 66 3 9 23 7 82 -3 88 -4 3 -14 34 -20 68 -7 35 -14
70 -17 79 -4 14 3 15 44 11 60 -5 91 9 88 41 -4 37 -12 44 -57 50 -22 3 -43 8
-47 11 -8 9 27 33 68 47 59 20 80 57 50 84 -27 25 -83 15 -148 -25 -29 -18
-54 -31 -56 -29 -11 13 -36 108 -36 135 0 18 -3 35 -7 37 -19 10 -59 16 -69 9z"/>
<path d="M5036 12144 c-19 -19 -19 -43 -2 -109 8 -27 12 -51 11 -53 -2 -2 -18
6 -36 17 -40 24 -58 26 -84 8 -31 -23 -12 -62 46 -95 l50 -29 -49 -21 c-51
-22 -62 -36 -62 -78 0 -35 39 -41 95 -15 25 12 47 21 50 21 3 0 5 -16 5 -36 0
-50 28 -96 55 -88 42 13 56 34 49 81 -7 50 2 54 53 22 37 -23 77 -20 87 7 11
28 -5 63 -35 76 -37 16 -36 22 2 38 33 14 60 60 52 91 -10 35 -96 36 -107 1
-3 -10 -20 -23 -37 -29 -35 -13 -31 -21 -54 92 -23 106 -51 138 -89 99z"/>
<path d="M7560 11828 c0 -3 18 -44 39 -90 l40 -86 103 -11 c375 -44 819 -157
1173 -299 118 -47 371 -163 435 -200 25 -13 81 -45 125 -70 44 -25 96 -55 115
-67 230 -146 385 -258 565 -406 121 -100 452 -429 558 -556 304 -362 572 -804
747 -1233 89 -217 205 -595 198 -643 -2 -12 2 -26 8 -32 14 -11 67 -273 85
-417 l12 -97 90 -36 c49 -20 91 -34 93 -33 4 5 -33 278 -46 344 -6 28 -10 55
-9 60 1 5 0 16 -4 24 -3 8 -15 62 -27 120 -31 148 -112 427 -171 588 -203 555
-465 1013 -834 1457 -109 131 -374 402 -500 511 -44 38 -82 71 -85 74 -46 46
-308 242 -430 322 -511 334 -1045 559 -1635 688 -208 45 -645 105 -645 88z"/>
<path d="M6328 11795 c-690 -103 -1341 -353 -1938 -743 -122 -80 -384 -276
-430 -322 -3 -3 -41 -36 -85 -74 -217 -188 -501 -496 -681 -741 -412 -561
-704 -1219 -838 -1888 -34 -169 -71 -406 -64 -412 4 -4 168 42 175 49 2 2 12
59 23 127 99 644 335 1258 695 1804 194 294 334 465 599 731 286 286 485 443
856 679 19 12 71 42 115 67 44 25 100 57 125 70 64 37 317 153 435 200 285
115 648 216 940 263 94 15 181 30 194 33 24 7 33 26 66 135 17 57 33 55 -187
22z"/>
<path d="M9740 11763 c-40 -15 -50 -35 -50 -105 0 -64 2 -70 36 -108 40 -44
57 -48 109 -26 45 19 59 51 51 111 -6 38 -16 55 -54 91 -44 42 -60 49 -92 37z"/>
<path d="M7986 11465 c-16 -41 -36 -60 -36 -35 0 6 -9 19 -20 30 -24 24 -77
26 -108 4 -33 -23 -65 -93 -65 -143 0 -37 5 -48 29 -67 44 -36 75 -44 117 -29
33 11 37 11 37 -5 0 -18 36 -38 60 -33 9 2 27 21 40 43 l25 40 18 -36 c20 -38
67 -64 115 -64 15 0 45 -3 67 -6 29 -3 50 0 75 14 34 19 35 19 67 -1 28 -16
44 -18 93 -13 59 7 60 7 60 -18 0 -49 60 -61 97 -18 l24 27 -6 -46 c-5 -36 -3
-49 10 -62 22 -22 73 -21 110 1 l30 19 -3 -38 c-3 -32 0 -38 20 -45 44 -15 49
-12 78 34 l30 47 0 -42 c0 -68 26 -87 107 -80 l65 5 -6 -32 c-4 -17 -10 -52
-13 -78 -5 -44 -4 -47 21 -54 38 -9 54 0 72 43 28 65 30 68 59 71 16 2 39 10
51 19 26 17 64 73 64 94 0 18 -97 89 -122 89 -10 0 -17 4 -13 9 5 9 -13 18
-54 26 -12 2 -21 1 -21 -3 0 -21 -90 -102 -113 -102 -5 0 -6 24 -2 53 8 65 -6
104 -40 113 -14 3 -29 11 -33 18 -4 6 -29 19 -57 28 l-50 17 -25 -32 c-14 -17
-35 -43 -47 -57 l-22 -25 2 47 c2 60 -17 82 -73 83 -23 0 -40 5 -40 11 0 17
-22 32 -53 38 -21 4 -31 -1 -43 -19 -14 -22 -70 -55 -93 -55 -6 0 -8 12 -5 30
8 36 -9 60 -42 60 -13 0 -24 6 -24 13 0 15 -41 37 -68 37 -29 0 -78 -36 -103
-76 -43 -72 -63 -65 -65 22 -1 64 -16 85 -63 86 -30 1 -31 3 -25 34 5 26 2 34
-14 43 -40 22 -58 13 -76 -34z m-92 -101 c23 -9 20 -21 -10 -40 -21 -15 -27
-15 -34 -4 -9 15 5 50 20 50 4 0 15 -3 24 -6z"/>
<path d="M6115 11465 c-5 -2 -39 -9 -74 -16 -57 -12 -66 -18 -94 -56 -31 -44
-43 -52 -45 -30 -1 14 -9 51 -17 76 -5 16 -11 17 -52 8 -30 -7 -48 -17 -51
-29 -2 -10 -15 -21 -28 -24 -25 -6 -44 -31 -44 -57 0 -8 -16 -31 -35 -51 -19
-21 -35 -41 -35 -45 0 -3 -14 -15 -31 -25 -31 -19 -59 -16 -59 6 -1 17 -41 63
-69 78 -19 10 -34 6 -102 -26 -44 -21 -84 -45 -89 -53 -9 -17 24 -131 53 -188
31 -59 79 -66 111 -18 15 23 16 69 1 116 -9 26 7 24 35 -6 55 -58 121 -54 199
13 l44 38 22 -22 c12 -12 40 -27 60 -33 58 -16 92 6 145 89 l45 69 18 -29 c22
-35 78 -63 111 -54 26 6 56 43 56 67 0 7 11 24 24 36 l24 22 22 -39 c47 -83
145 -64 139 26 -5 67 -28 96 -108 133 -39 19 -150 34 -176 24z"/>
<path d="M3741 11202 c-17 -16 -33 -48 -40 -80 -12 -47 -11 -56 6 -89 23 -43
41 -50 84 -32 38 15 119 119 119 152 0 13 -9 36 -21 51 -17 22 -28 26 -70 26
-42 0 -55 -5 -78 -28z"/>
<path d="M9363 10940 c-40 -30 -103 -115 -103 -139 0 -26 35 -71 67 -86 37
-18 62 -13 105 16 29 21 32 19 42 -23 8 -36 79 -82 126 -82 22 0 40 -6 48 -18
7 -10 26 -25 42 -33 26 -13 30 -13 55 7 26 20 29 20 97 5 l71 -15 -54 54 c-30
30 -66 60 -81 67 -16 6 -28 17 -28 24 0 7 -16 24 -36 39 l-35 27 -22 -26 c-12
-15 -36 -30 -54 -33 -29 -6 -33 -3 -39 21 -4 15 -2 44 5 65 6 20 11 40 11 43
0 13 -140 117 -157 117 -11 0 -38 -14 -60 -30z m80 -77 c4 -3 -12 -19 -35 -34
-52 -35 -64 -27 -20 12 33 30 44 34 55 22z"/>
<path d="M11076 10832 c-8 -15 -17 -45 -21 -66 -7 -34 -9 -36 -23 -22 -9 9
-21 30 -26 48 -9 27 -17 34 -42 36 -59 6 -77 -43 -38 -105 19 -30 18 -30 -15
-36 -58 -12 -63 -77 -9 -96 17 -6 40 -11 51 -11 14 0 17 -4 11 -17 -4 -10 -9
-34 -12 -55 -3 -31 -1 -37 20 -44 50 -17 61 -10 78 51 7 25 18 45 24 45 15 -1
67 -49 89 -83 19 -30 33 -33 72 -15 32 14 32 35 0 78 -26 35 -24 46 10 52 27
4 34 57 9 75 -10 7 -44 13 -77 13 -50 0 -58 2 -53 16 3 9 6 20 6 25 0 6 4 8 9
5 12 -8 31 40 31 79 0 34 -7 40 -59 50 -15 3 -25 -4 -35 -23z"/>
<path d="M4714 10812 c-29 -26 -56 -30 -80 -11 -23 18 -64 -9 -85 -56 -21 -48
-34 -61 -44 -45 -3 5 -21 10 -39 10 -28 0 -36 -5 -46 -29 -10 -26 -8 -35 21
-86 l32 -58 75 7 c42 3 78 8 80 11 3 3 6 26 7 52 4 78 3 76 29 69 35 -9 65 5
114 53 46 45 52 69 24 94 -27 24 -53 21 -88 -11z"/>
<path d="M2916 10625 c-3 -8 -1 -15 4 -15 6 0 10 7 10 15 0 8 -2 15 -4 15 -2
0 -6 -7 -10 -15z"/>
<path d="M4316 10578 c-28 -40 -21 -48 42 -48 32 0 62 3 65 7 12 11 -45 63
-69 63 -13 0 -30 -10 -38 -22z"/>
<path d="M4367 10324 c-4 -4 -69 -9 -145 -10 -238 -5 -327 -25 -357 -83 -14
-28 -14 -33 1 -56 9 -14 21 -25 26 -25 7 0 7 -4 0 -12 -11 -15 -1 -229 17
-368 10 -75 30 -299 61 -675 16 -193 39 -387 50 -430 6 -22 15 -121 19 -220 6
-130 13 -191 24 -218 l17 -39 102 7 c287 19 593 -1 768 -51 30 -9 105 -29 165
-44 61 -16 130 -36 155 -45 25 -9 54 -19 65 -22 11 -3 25 -9 30 -14 6 -4 42
-19 80 -33 63 -23 111 -46 255 -124 89 -49 189 -137 237 -211 20 -31 50 -72
68 -91 37 -41 105 -135 105 -145 0 -4 15 -42 34 -84 23 -49 39 -106 47 -162
10 -76 10 -92 -6 -140 -10 -30 -21 -96 -24 -147 -5 -79 -10 -97 -27 -111 -12
-9 -28 -32 -38 -51 -25 -55 -118 -173 -151 -193 -221 -138 -333 -198 -409
-219 -114 -31 -324 -79 -411 -93 -44 -7 -136 -22 -205 -33 -139 -23 -546 -62
-655 -63 -38 0 -103 -4 -143 -8 -114 -11 -107 10 -126 -367 -2 -45 -9 -112
-14 -150 -6 -38 -18 -170 -27 -294 -15 -219 -24 -313 -46 -510 -45 -412 -57
-633 -39 -720 22 -106 21 -105 65 -104 22 1 58 8 80 17 35 14 117 16 660 17
629 0 1092 12 1172 30 25 6 58 23 75 39 l31 29 2 193 c4 362 76 827 162 1054
51 136 209 458 271 554 60 94 150 187 221 227 25 15 69 41 97 60 82 53 274 85
384 64 67 -13 170 -60 207 -94 27 -26 227 -165 281 -197 59 -34 132 -153 198
-319 20 -52 47 -113 60 -135 12 -22 43 -101 69 -175 46 -132 54 -171 91 -450
30 -235 34 -281 43 -531 10 -283 15 -308 74 -334 23 -10 111 -17 312 -25 158
-6 343 -19 425 -30 80 -10 210 -24 290 -31 153 -12 917 -18 960 -8 14 4 28 7
32 8 4 0 14 14 23 31 12 23 15 71 15 252 0 266 -24 819 -45 1043 -8 88 -20
255 -26 370 -6 116 -15 219 -20 230 -5 11 -10 45 -11 75 l-3 55 -90 3 c-49 2
-171 5 -270 8 -99 2 -210 8 -247 14 -37 5 -93 10 -125 10 -37 0 -88 10 -143
29 -47 16 -118 31 -158 35 -39 3 -118 15 -175 26 -56 11 -113 20 -127 20 -36
0 -96 23 -166 63 -79 45 -107 64 -255 177 -148 114 -229 187 -279 255 -31 42
-133 261 -154 330 -8 26 21 122 72 246 57 138 95 193 250 367 51 57 70 72 92
72 19 0 67 26 140 76 173 118 270 154 580 220 328 69 561 101 811 110 172 7
177 6 206 -16 25 -18 34 -20 52 -11 25 14 41 42 46 84 3 18 9 57 14 87 6 30
15 132 21 225 6 94 16 199 21 235 6 36 10 178 9 315 -2 208 1 273 18 385 11
74 23 191 26 260 3 69 11 191 18 272 13 165 11 173 -51 236 -31 31 -37 34 -90
31 -33 -2 -66 2 -80 10 -28 15 -214 11 -441 -10 -75 -6 -211 -9 -340 -5 -118
3 -411 2 -650 -3 -399 -7 -438 -9 -467 -26 -33 -19 -50 -59 -35 -78 17 -21 25
-175 26 -487 1 -366 -12 -480 -78 -660 -13 -36 -26 -74 -30 -85 -4 -11 -18
-49 -31 -85 -13 -36 -32 -90 -41 -120 -27 -86 -79 -170 -195 -315 -94 -118
-165 -181 -217 -196 -26 -6 -99 -32 -162 -57 -115 -45 -115 -45 -245 -45 -135
-1 -185 9 -306 61 -47 20 -137 111 -166 167 -9 17 -37 62 -63 100 -98 147
-187 314 -232 440 -41 112 -106 355 -119 445 -5 41 -21 129 -34 195 -45 230
-71 440 -81 652 -10 201 15 186 -317 195 -248 6 -325 13 -442 38 -61 13 -275
29 -485 36 -424 14 -506 15 -513 8z"/>
<path d="M2736 10151 c-9 -10 -16 -30 -16 -44 0 -23 -4 -27 -29 -27 -32 0 -61
-22 -61 -46 0 -22 38 -54 65 -54 33 0 32 -15 -2 -29 -39 -17 -83 -57 -83 -76
0 -29 20 -55 43 -55 25 0 80 33 71 42 -8 8 34 30 45 24 4 -3 11 -29 14 -58 5
-40 13 -59 32 -75 33 -29 41 -29 61 2 12 19 15 36 10 70 -8 49 3 58 40 30 28
-21 51 -18 69 9 20 31 12 48 -36 75 -36 20 -38 24 -23 38 17 17 12 62 -9 76
-11 7 -43 5 -76 -4 -10 -3 -19 11 -27 40 -7 24 -18 49 -24 56 -18 21 -48 24
-64 6z"/>
<path d="M3483 9795 c-28 -20 -42 -63 -38 -124 2 -45 0 -51 -17 -51 -29 0 -75
-30 -87 -56 -22 -48 -23 -93 -5 -143 17 -47 17 -51 1 -69 -9 -10 -17 -23 -17
-28 0 -6 -16 -10 -35 -10 -42 0 -43 7 -10 50 30 39 32 65 6 93 -32 34 -62 20
-111 -54 -36 -55 -41 -70 -37 -100 7 -42 33 -65 66 -57 19 4 22 2 17 -11 -3
-9 -6 -27 -6 -40 l0 -24 -25 24 c-27 28 -33 29 -69 16 -29 -12 -38 -55 -18
-88 14 -22 13 -23 -19 -23 -67 -1 -83 -29 -104 -186 -17 -129 -20 -141 -63
-314 -31 -125 -29 -178 8 -212 20 -19 17 -53 -6 -62 -7 -3 -18 3 -24 13 -13
25 -55 34 -80 19 -26 -17 -89 -149 -97 -204 -8 -58 10 -100 45 -107 16 -3 33
0 42 8 16 14 60 10 60 -5 0 -5 8 -11 18 -14 10 -3 35 -22 55 -41 46 -44 98
-48 122 -11 9 13 13 31 9 42 -8 23 -44 64 -56 64 -5 0 -31 16 -59 35 -28 19
-56 35 -63 35 -6 0 8 11 32 25 34 19 48 22 68 15 39 -15 50 -12 82 20 52 52
51 130 -2 144 -17 4 -25 14 -28 36 -4 27 -2 30 22 28 63 -5 99 53 79 126 -13
48 -45 69 -86 57 -34 -10 -35 -5 -11 45 9 19 14 21 44 13 45 -13 101 10 110
46 14 56 10 117 -11 168 -5 13 -2 17 15 17 36 0 58 18 80 68 17 37 41 160 38
192 -2 28 5 35 34 34 18 -1 41 4 50 10 17 10 33 62 30 99 0 10 6 21 14 24 30
11 32 45 7 106 -13 33 -22 61 -20 64 3 2 23 -1 45 -6 51 -14 85 -2 101 36 11
28 9 55 -15 131 -5 19 -3 21 12 16 11 -4 26 -13 34 -20 24 -19 88 -53 92 -48
3 2 1 31 -4 65 -6 44 -14 66 -30 80 -13 10 -27 18 -31 19 -5 0 -20 9 -34 20
-31 24 -90 26 -120 5z m-378 -855 c3 -5 1 -10 -4 -10 -6 0 -11 5 -11 10 0 6 2
10 4 10 3 0 8 -4 11 -10z m-255 -784 c0 -2 -7 -6 -15 -10 -8 -3 -15 -1 -15 4
0 6 7 10 15 10 8 0 15 -2 15 -4z"/>
<path d="M10853 9704 c-19 -30 -11 -51 28 -71 19 -10 27 -9 41 4 16 14 15 17
-9 54 -14 21 -29 39 -34 39 -5 0 -16 -12 -26 -26z"/>
<path d="M10742 9581 c-31 -26 -36 -28 -79 -19 -25 6 -69 7 -99 3 -69 -8 -104
-45 -104 -110 0 -50 9 -56 93 -58 40 -1 68 7 121 32 46 21 79 31 100 28 l31
-4 -32 -1 c-22 -1 -33 -7 -33 -17 0 -8 -17 -19 -42 -26 -45 -13 -88 -44 -88
-64 0 -18 34 -45 58 -45 12 0 44 9 71 20 57 22 73 19 91 -16 11 -20 11 -36 1
-87 -14 -71 -7 -99 33 -136 15 -15 26 -35 26 -51 0 -33 22 -53 75 -72 30 -10
41 -19 43 -37 3 -30 -9 -21 91 -71 l83 -41 -27 -29 c-20 -21 -29 -42 -32 -77
-4 -41 -1 -52 21 -76 14 -15 26 -32 26 -37 0 -21 -48 -33 -122 -31 -71 2 -80
0 -103 -23 -33 -33 -36 -109 -6 -126 32 -16 99 -12 142 11 l40 20 45 -41 c34
-31 52 -40 72 -38 23 2 28 8 30 37 3 26 -3 40 -25 63 l-28 30 25 20 c24 19 37
19 115 2 42 -9 50 9 36 78 -7 35 -14 65 -16 66 -2 2 -34 5 -71 6 -52 2 -70 6
-78 20 -9 13 -7 20 9 31 41 29 45 37 45 85 0 44 -4 52 -33 74 -19 15 -38 26
-43 26 -5 0 -20 9 -34 20 -19 15 -21 20 -9 20 34 0 41 88 10 117 -10 10 -22
32 -25 49 -8 37 -54 62 -127 71 -45 5 -48 4 -54 -20 -6 -23 -9 -24 -26 -14
-26 16 -29 27 -17 81 l10 47 70 -7 c77 -7 88 -2 88 48 0 24 -4 27 -47 33 -66
8 -115 22 -137 38 -19 14 -18 15 2 35 12 12 31 22 41 22 45 0 71 18 71 49 0
35 -25 53 -61 45 -13 -2 -45 -2 -70 1 -43 6 -46 8 -41 32 9 50 -54 58 -106 14z
m288 -535 c0 -3 -4 -8 -10 -11 -5 -3 -10 -1 -10 4 0 6 5 11 10 11 6 0 10 -2
10 -4z"/>
<path d="M6991 9194 c0 -11 3 -14 6 -6 3 7 2 16 -1 19 -3 4 -6 -2 -5 -13z"/>
<path d="M12004 9090 c-29 -12 -74 -72 -74 -99 0 -22 16 -61 29 -71 4 -3 19
-30 34 -61 33 -68 63 -87 107 -69 54 22 70 53 70 137 0 86 -13 116 -66 151
-35 23 -64 27 -100 12z"/>
<path d="M1944 8666 c-48 -51 -57 -91 -26 -118 33 -30 84 -49 120 -46 45 4 73
46 75 114 2 39 -2 49 -23 65 -14 10 -42 21 -63 25 -36 5 -42 2 -83 -40z"/>
<path d="M12027 8209 c4 -13 8 -18 11 -10 2 7 -1 18 -6 23 -8 8 -9 4 -5 -13z"/>
<path d="M2651 8031 c-35 -22 -3 -111 40 -111 20 0 226 -104 248 -125 12 -12
6 -13 -42 -8 l-57 6 0 -30 c0 -26 5 -31 39 -41 52 -16 78 -15 111 5 23 13 30
26 35 65 6 43 4 51 -17 71 -12 12 -34 28 -48 34 -98 46 -118 56 -140 68 -14 8
-32 15 -41 15 -8 0 -25 14 -37 30 -23 31 -61 40 -91 21z"/>
<path d="M1844 7814 c-10 -15 -31 -41 -45 -58 -14 -17 -43 -58 -65 -91 -82
-121 -108 -155 -113 -146 -4 5 -56 33 -116 61 -61 28 -147 69 -192 91 -46 21
-85 39 -88 39 -3 0 -5 -70 -5 -155 l0 -155 108 -55 c59 -31 98 -53 87 -49 -11
3 -24 6 -30 5 -5 -1 -49 -4 -97 -7 l-88 -6 0 -149 0 -149 65 0 c45 0 65 -4 65
-12 0 -10 2 -10 9 0 5 9 26 12 67 10 l59 -3 -123 -64 c-138 -73 -133 -65 -111
-187 17 -98 17 -98 45 -79 13 8 63 26 111 39 49 13 106 31 128 40 l40 17 37
-42 c21 -23 75 -105 119 -183 116 -201 109 -191 125 -175 7 8 50 86 95 174 45
88 87 168 93 177 11 15 25 11 146 -46 164 -77 371 -166 386 -166 7 0 14 -10
18 -23 5 -23 42 -47 71 -47 7 0 15 -5 17 -10 2 -6 20 -12 41 -13 51 -4 77 -47
28 -47 -25 0 -46 -28 -58 -76 -12 -50 -1 -76 51 -118 36 -28 36 -29 16 -46
-26 -23 -38 -101 -18 -118 9 -7 13 -25 12 -45 -3 -38 17 -61 83 -97 45 -24 71
-25 94 -4 16 14 18 14 29 -5 7 -14 7 -21 0 -21 -5 0 -10 -9 -10 -20 0 -11 -4
-20 -10 -20 -5 0 -10 -7 -10 -16 0 -17 0 -17 -83 12 -45 16 -49 16 -67 -1 -31
-28 -26 -71 10 -90 16 -8 34 -15 41 -15 7 0 32 -12 57 -26 42 -25 43 -27 25
-42 -11 -11 -35 -17 -63 -17 l-45 0 1 -37 c2 -49 16 -65 65 -73 21 -4 39 -11
39 -16 0 -5 8 -9 17 -9 9 0 13 -3 10 -6 -9 -9 21 -58 44 -72 16 -10 26 -9 57
7 34 17 41 18 77 4 61 -22 96 -29 136 -28 38 2 89 34 101 63 11 28 9 79 -4 89
-23 18 -87 35 -136 35 -26 1 -38 3 -27 5 49 11 60 72 19 100 -22 14 -35 15
-85 7 -51 -9 -62 -8 -74 6 -21 23 -19 53 6 97 30 53 32 97 6 141 -12 20 -20
49 -18 64 3 33 -26 78 -63 98 -17 9 -26 22 -26 38 0 24 -31 59 -102 117 l-37
29 25 17 c57 37 74 95 45 152 -25 50 -14 55 82 36 95 -18 107 -18 139 -1 32
19 52 82 36 118 -19 40 -73 54 -159 40 -44 -8 -46 -7 -58 22 -13 32 -46 66
-71 74 -45 15 -72 -49 -44 -103 15 -30 15 -33 0 -45 -28 -20 -93 13 -161 82
-62 62 -140 162 -133 169 14 15 347 32 1068 55 173 6 371 17 440 25 290 35
592 56 1010 70 532 19 552 21 548 43 -4 19 -43 25 -453 67 -137 14 -342 37
-455 50 -113 14 -284 29 -380 35 -273 16 -429 28 -440 35 -14 9 -585 52 -785
60 -93 4 -257 17 -364 31 -106 13 -201 24 -210 24 -10 1 -4 7 15 18 32 18 254
230 254 242 0 4 -8 18 -18 29 -16 21 -21 22 -84 11 -37 -5 -158 -37 -268 -70
-110 -33 -206 -60 -213 -60 -8 0 -51 57 -97 128 -45 70 -96 146 -111 170 -16
23 -29 49 -29 57 0 27 -55 18 -76 -11z m208 -607 c13 -20 9 -54 -9 -76 -21
-25 -69 -29 -130 -12 -40 11 -43 14 -43 46 0 52 29 68 110 60 35 -3 68 -11 72
-18z m1086 -1672 c-10 -8 -68 -13 -68 -5 0 10 39 18 58 12 7 -3 12 -6 10 -7z"/>
<path d="M12283 7768 c-18 -5 -37 -16 -42 -26 -21 -39 -223 -327 -229 -327
-28 2 -227 59 -327 94 -44 16 -116 37 -159 46 l-80 18 -19 -24 -19 -23 124
-122 c68 -67 137 -128 153 -137 19 -10 24 -16 14 -17 -9 0 -104 -11 -210 -24
-107 -14 -270 -27 -364 -31 -200 -8 -771 -51 -785 -60 -11 -7 -167 -19 -440
-35 -96 -6 -267 -21 -380 -35 -113 -13 -317 -36 -455 -50 -410 -42 -449 -48
-453 -67 -4 -22 16 -24 548 -43 402 -14 857 -46 1044 -74 34 -5 160 -12 281
-15 210 -6 394 -13 895 -36 124 -6 237 -14 252 -18 l28 -7 -73 -95 c-84 -112
-95 -129 -101 -167 -4 -23 -1 -30 21 -40 44 -21 77 -15 129 22 27 19 52 35 57
35 4 0 43 20 85 44 103 58 302 159 306 155 24 -31 78 -122 140 -235 42 -78 88
-151 101 -164 l23 -22 15 24 c8 12 51 86 95 163 44 77 96 158 115 180 l34 39
99 -33 c54 -19 132 -48 171 -67 l73 -33 10 42 c6 23 15 50 20 59 5 9 12 46 16
82 l7 66 -39 15 c-75 30 -218 115 -209 123 3 3 11 0 18 -7 11 -8 42 -8 128 2
l114 12 7 55 c3 30 6 92 7 137 l1 82 -32 5 c-71 12 -106 15 -171 17 -37 1 -67
3 -67 5 0 1 27 17 60 35 33 17 60 36 60 40 0 5 25 26 56 46 l56 37 -7 91 c-4
49 -10 109 -13 131 l-7 42 -155 -77 c-85 -42 -180 -91 -211 -108 l-56 -32 -33
47 c-18 26 -51 74 -74 107 -22 33 -51 74 -65 91 -14 18 -33 41 -41 51 -12 16
-21 18 -47 11z m102 -628 c34 -38 -6 -70 -89 -70 -50 0 -76 21 -59 48 26 43
117 57 148 22z"/>
<path d="M4968 7103 c7 -3 16 -2 19 1 4 3 -2 6 -13 5 -11 0 -14 -3 -6 -6z"/>
<path d="M9188 7053 c7 -3 16 -2 19 1 4 3 -2 6 -13 5 -11 0 -14 -3 -6 -6z"/>
<path d="M1448 6590 c-20 -11 -39 -24 -42 -29 -6 -8 42 -346 65 -461 149 -754
429 -1448 834 -2060 839 -1270 2139 -2148 3635 -2455 115 -24 420 -75 446 -75
6 0 27 24 47 54 l36 55 -57 6 c-315 35 -766 136 -1092 245 -1675 561 -2970
1860 -3536 3545 -110 329 -212 752 -199 822 4 21 -4 73 -20 141 -20 79 -25
120 -20 159 5 45 4 53 -14 62 -27 15 -40 13 -83 -9z"/>
<path d="M11834 6564 c-18 -14 -18 -14 6 -3 31 14 36 19 24 19 -6 0 -19 -7
-30 -16z"/>
<path d="M11840 6521 l-85 -47 -8 -60 c-11 -89 -54 -303 -88 -444 -143 -587
-426 -1176 -803 -1670 -238 -312 -567 -640 -881 -877 -299 -225 -671 -439
-1013 -583 -130 -54 -451 -165 -458 -157 -2 2 17 48 42 101 51 109 53 146 8
146 -14 0 -41 -7 -60 -16 -33 -16 -34 -16 -60 15 -36 43 -82 43 -118 0 -34
-40 -33 -64 6 -100 39 -35 90 -39 111 -9 14 20 74 47 84 37 5 -6 -85 -195 -96
-201 -14 -9 -326 -77 -436 -96 -65 -11 -188 -28 -273 -37 l-154 -17 -45 -89
-45 -90 104 6 c431 27 925 142 1388 324 1093 430 1986 1249 2505 2298 110 221
136 282 217 505 104 287 170 534 222 835 30 174 41 275 30 274 -5 -1 -47 -22
-94 -48z"/>
<path d="M12630 6518 c0 -45 -47 -341 -76 -483 -112 -535 -298 -1040 -564
-1530 -475 -872 -1177 -1600 -2050 -2125 -165 -99 -539 -287 -715 -360 -411
-169 -842 -293 -1256 -360 -161 -26 -459 -60 -526 -60 -28 0 -54 -4 -57 -9 -3
-4 4 -31 16 -60 22 -50 23 -51 65 -51 119 0 478 46 713 91 1234 238 2351 878
3178 1822 760 867 1221 1889 1386 3073 l6 42 -49 21 c-65 28 -71 27 -71 -11z"/>
<path d="M2300 6452 c0 -20 53 -310 76 -412 36 -164 103 -389 172 -580 81
-223 107 -284 217 -505 226 -457 514 -860 876 -1225 525 -529 1142 -914 1863
-1159 184 -63 363 -113 542 -150 157 -33 414 -74 421 -67 3 3 -5 43 -17 90
-25 93 -22 91 -110 101 -101 12 -394 74 -540 114 -1018 280 -1921 918 -2535
1791 -87 123 -134 198 -224 355 -266 469 -411 858 -524 1415 l-32 154 -85 42
c-90 45 -100 49 -100 36z"/>
<path d="M11560 6310 c-8 -5 -33 -17 -55 -26 -22 -9 -35 -18 -29 -21 13 -4 7
-43 -6 -43 -5 0 -12 9 -15 21 -6 17 -14 20 -48 17 -36 -3 -42 -6 -39 -23 6
-39 45 -107 66 -115 19 -8 19 -9 -7 -9 -15 -1 -41 -8 -57 -16 -25 -13 -29 -21
-35 -77 -4 -35 -2 -92 4 -128 15 -90 14 -100 -9 -100 -27 0 -68 -20 -74 -37
-3 -8 -1 -34 5 -58 9 -37 9 -47 -5 -60 -23 -24 -20 -39 19 -94 19 -26 35 -53
35 -60 0 -7 -19 -11 -49 -11 -42 0 -53 -4 -70 -26 -30 -38 -28 -47 32 -159 9
-16 15 -30 14 -31 -1 -2 -40 10 -85 27 -109 38 -129 38 -147 -3 -12 -29 -11
-34 5 -45 9 -7 30 -15 46 -18 16 -3 69 -18 119 -34 97 -32 112 -30 141 15 23
35 21 95 -5 138 l-23 36 22 0 c51 0 90 50 93 118 1 28 -8 51 -33 87 -18 28
-38 53 -43 56 -5 4 0 10 12 14 14 4 21 15 21 31 0 19 5 24 24 24 14 0 28 5 31
10 3 6 10 10 15 10 18 0 19 -33 1 -80 l-19 -50 25 -19 c40 -32 65 -10 97 86
20 60 15 87 -19 109 -19 12 -28 13 -45 4 -12 -6 -23 -10 -24 -8 -2 2 -6 27 -9
56 l-6 53 28 -21 c34 -23 49 -25 74 -6 24 19 21 49 -8 85 -23 26 -24 30 -7 28
35 -2 82 25 89 51 3 14 1 71 -5 126 -7 56 -12 120 -12 144 0 43 -4 48 -30 32z
m-40 -215 c0 -24 0 -24 -29 -7 -30 17 -25 32 12 32 11 0 17 -8 17 -25z"/>
<path d="M1972 6231 c-26 -16 -42 -64 -42 -125 0 -35 5 -67 12 -74 7 -7 36
-12 65 -12 53 0 54 1 83 47 31 49 38 99 20 133 -16 30 -108 51 -138 31z"/>
<path d="M12087 5925 c-27 -26 -37 -45 -38 -68 -3 -92 0 -110 23 -134 20 -22
29 -24 77 -20 47 3 59 9 89 41 31 34 33 42 28 82 -6 51 -32 91 -63 100 -12 3
-24 12 -27 20 -10 25 -52 15 -89 -21z m81 -107 c-5 -32 -28 -35 -28 -4 0 17 5
26 16 26 10 0 14 -7 12 -22z"/>
<path d="M7036 5552 c-5 -8 -14 -85 -51 -452 -14 -135 -37 -337 -50 -450 -14
-113 -29 -284 -35 -380 -16 -271 -28 -429 -35 -440 -9 -14 -43 -456 -61 -775
-8 -154 -23 -335 -32 -403 l-17 -123 -47 42 c-26 23 -45 47 -41 53 3 6 3 8 -2
4 -4 -4 -31 13 -59 39 -73 65 -92 76 -121 69 -21 -5 -25 -12 -25 -44 0 -57 41
-287 90 -501 15 -69 18 -97 9 -107 -6 -7 -45 -32 -87 -55 -115 -63 -231 -139
-242 -158 -6 -13 -3 -21 12 -32 12 -8 35 -26 52 -40 17 -14 58 -43 91 -65 33
-23 81 -56 107 -74 l47 -33 -40 -71 c-62 -113 -112 -216 -106 -222 5 -5 186
-33 219 -34 10 0 31 24 52 58 20 31 49 73 66 92 l30 35 -6 -96 c-5 -73 -4 -98
6 -104 7 -4 75 -10 151 -13 l139 -5 0 97 c0 97 9 119 28 69 65 -174 53 -164
187 -152 61 6 113 14 117 18 5 4 -1 29 -11 56 -11 28 -31 85 -44 128 l-24 78
41 35 c22 20 105 72 183 117 79 45 143 87 143 94 0 20 -62 61 -186 124 -65 33
-122 63 -128 68 -6 5 -28 14 -48 20 -21 7 -38 16 -38 19 0 9 91 216 136 309
20 39 62 109 95 154 61 85 69 113 47 162 -11 22 -18 25 -41 21 -16 -2 -45 -16
-65 -29 -203 -136 -200 -135 -206 -112 -8 31 -41 771 -52 1142 -3 121 -10 247
-15 281 -28 187 -60 642 -74 1044 -18 513 -21 550 -40 550 -8 0 -16 -3 -19 -8z
m-26 -3510 c21 -17 22 -23 16 -85 -8 -75 -25 -100 -65 -95 -26 3 -26 4 -26 84
0 108 23 138 75 96z"/>
<path d="M3218 4979 c-21 -12 -25 -74 -5 -86 7 -4 29 -29 49 -55 33 -44 132
-128 150 -128 13 0 9 -22 -7 -40 -24 -27 -25 -57 -4 -85 26 -31 39 -31 94 1
35 20 48 23 64 15 25 -14 18 -40 -20 -77 -34 -32 -38 -70 -10 -105 10 -13 26
-41 35 -61 31 -64 88 -85 99 -35 7 33 1 329 -7 354 -4 13 -21 26 -40 33 -27 9
-33 16 -33 37 0 15 -6 29 -12 31 -6 2 -11 10 -11 18 0 8 -8 15 -17 15 -10 1
-34 3 -54 4 -20 1 -46 11 -58 21 -39 34 -85 80 -118 117 -32 38 -62 46 -95 26z"/>
<path d="M6941 4974 c0 -11 3 -14 6 -6 3 7 2 16 -1 19 -3 4 -6 -2 -5 -13z"/>
<path d="M10741 4844 c-12 -15 -21 -30 -21 -35 0 -16 32 -39 56 -39 35 0 74
-28 74 -54 0 -54 59 -90 85 -53 37 52 10 118 -68 168 -71 46 -98 49 -126 13z"/>
<path d="M10401 4794 c-36 -46 -28 -73 43 -143 48 -48 65 -72 70 -100 3 -20
13 -49 21 -65 14 -27 14 -32 -6 -73 -12 -24 -19 -47 -16 -50 3 -3 -7 -16 -23
-30 -16 -13 -35 -42 -41 -63 -7 -22 -15 -37 -19 -35 -9 5 -34 -23 -43 -46 -3
-9 1 -42 9 -75 19 -80 18 -86 -8 -82 -21 3 -23 -1 -26 -57 -1 -39 1 -55 7 -46
6 10 20 12 49 8 30 -5 43 -3 55 11 19 21 39 105 30 128 -6 15 -4 15 20 -1 61
-40 114 20 65 73 -38 40 -61 80 -53 92 10 16 23 12 60 -16 41 -31 75 -29 92 6
11 23 9 28 -29 67 l-42 43 31 -9 c25 -7 35 -6 47 8 20 22 20 45 0 62 -8 7 -25
31 -36 53 l-20 39 53 -42 c62 -49 98 -52 113 -9 8 22 4 32 -21 65 -16 21 -33
46 -36 57 -6 16 -3 18 26 12 25 -5 37 -2 49 11 44 52 20 81 -69 85 -65 2 -95
-13 -108 -53 -5 -15 -10 -17 -24 -9 -19 10 -20 31 -7 107 7 38 5 45 -18 66
-27 25 -71 37 -138 37 -28 0 -42 -6 -57 -26z m114 -74 c3 -6 -1 -7 -9 -4 -18
7 -21 14 -7 14 6 0 13 -4 16 -10z"/>
<path d="M10990 4657 c-31 -25 -72 -96 -68 -119 3 -20 10 -15 60 46 42 50 54
72 45 78 -16 10 -19 10 -37 -5z"/>
<path d="M2618 4614 c-19 -10 -28 -23 -29 -42 -1 -21 -3 -23 -6 -6 -2 12 -16
27 -30 33 -21 10 -29 9 -44 -5 -29 -26 -24 -73 11 -116 l30 -37 -32 -3 c-30
-3 -33 -6 -33 -38 l0 -35 61 -3 62 -3 4 -74 c4 -92 20 -115 64 -93 26 12 29
19 34 77 l5 64 43 -37 c51 -42 53 -42 75 -18 25 27 21 50 -15 85 -18 18 -33
39 -33 47 -1 8 -2 23 -3 32 -1 12 -15 19 -46 23 l-44 7 -7 63 c-8 79 -27 100
-67 79z"/>
<path d="M11486 4555 c-4 -14 -17 -49 -30 -77 l-23 -51 -12 39 c-27 85 -32 94
-60 94 -49 0 -64 -35 -37 -88 7 -15 17 -37 20 -49 6 -20 4 -23 -21 -23 -30 0
-73 -31 -73 -52 0 -7 9 -21 20 -33 18 -19 27 -21 61 -15 40 8 40 7 33 -19 -12
-42 -12 -75 0 -83 21 -14 64 -8 70 9 6 13 11 10 32 -20 22 -33 29 -37 70 -37
37 0 46 4 53 22 10 27 -5 55 -34 62 -11 3 -30 24 -43 46 l-23 41 23 -6 c13 -2
34 -7 48 -11 17 -4 33 1 48 14 l22 19 -23 34 c-15 22 -32 35 -50 37 -30 4 -30
16 -1 74 19 37 18 84 -2 92 -36 14 -62 6 -68 -19z"/>
<path d="M3633 4263 c-16 -26 -17 -79 -3 -88 15 -9 22 17 18 66 -3 41 -4 42
-15 22z"/>
<path d="M4190 3753 c-95 -4 -106 -8 -86 -28 8 -8 22 -15 30 -15 9 0 16 -9 16
-20 0 -12 12 -32 27 -46 29 -26 28 -26 116 -5 35 8 37 8 31 -11 -13 -42 -11
-54 17 -92 16 -22 29 -46 29 -53 0 -39 112 -42 179 -6 24 13 46 21 49 18 3 -3
-4 -24 -16 -46 -28 -52 -28 -84 1 -113 18 -18 21 -29 16 -51 -17 -62 50 -99
101 -55 l23 20 16 -33 c20 -41 56 -58 101 -50 40 7 110 43 110 57 0 5 7 17 16
27 22 24 28 94 9 109 -8 7 -15 18 -15 25 0 15 -38 42 -74 51 -14 3 -26 12 -26
19 0 6 -8 22 -19 33 -22 26 -67 29 -98 7 -20 -14 -21 -13 -27 23 -6 39 -31 69
-76 92 -14 7 -29 19 -33 26 -4 8 -17 14 -27 14 -11 0 -20 4 -20 9 0 5 -21 8
-46 7 -41 -1 -47 2 -60 26 -28 54 -97 70 -264 61z m671 -448 c1 -17 -18 -17
-25 0 -4 11 -1 15 10 13 8 -2 15 -7 15 -13z"/>
<path d="M9696 3539 c-18 -30 -17 -32 5 -92 12 -34 24 -64 25 -66 2 -2 28 15
59 38 l55 42 -21 32 c-24 36 -54 61 -84 71 -16 4 -25 -1 -39 -25z"/>
<path d="M9537 3400 c-20 -17 -46 -48 -58 -68 -13 -20 -24 -39 -26 -41 -1 -2
-12 4 -23 14 -24 22 -100 31 -129 15 -25 -13 -65 -95 -76 -154 -9 -46 -19 -52
-35 -22 -20 39 -72 55 -127 40 -18 -5 -24 -16 -29 -53 -3 -25 -15 -57 -26 -71
l-20 -25 -24 28 c-26 30 -65 45 -101 39 -31 -5 -39 -51 -17 -97 22 -47 56 -69
91 -60 45 11 202 84 257 119 28 18 80 49 116 68 36 20 99 55 140 78 41 22 91
60 111 82 29 34 40 40 59 35 17 -4 35 1 57 16 18 12 33 25 33 29 0 12 -65 46
-101 53 -31 6 -41 2 -72 -25z"/>
<path d="M3730 3163 c-37 -25 -46 -41 -60 -100 -19 -79 -2 -129 48 -143 62
-16 132 11 158 62 34 65 -3 178 -58 178 -10 0 -18 5 -18 10 0 16 -43 12 -70
-7z m67 -108 c6 -17 -25 -58 -38 -50 -10 7 10 65 22 65 5 0 12 -7 16 -15z"/>
<path d="M5528 3113 c-40 -46 -50 -101 -22 -124 26 -21 99 -20 123 2 43 40 39
99 -9 124 -39 20 -73 19 -92 -2z"/>
<path d="M10289 3119 c-13 -3 -38 -20 -56 -36 -29 -27 -33 -38 -39 -106 -6
-64 -4 -81 11 -103 15 -23 22 -26 56 -21 86 11 142 74 143 157 0 84 -46 128
-115 109z"/>
<path d="M6094 2922 c-35 -23 -44 -97 -16 -132 21 -26 87 -36 122 -18 28 15
52 79 32 86 -7 2 -12 12 -12 22 0 31 -28 50 -73 50 -23 0 -47 -4 -53 -8z"/>
<path d="M7838 2823 c-26 -31 -35 -54 -30 -79 5 -29 55 -58 86 -50 33 9 75 48
82 78 5 23 1 30 -28 48 -41 25 -90 26 -110 3z"/>
<path d="M5065 2568 c-22 -17 -26 -26 -21 -54 3 -19 9 -50 12 -69 l6 -34 -30
11 c-25 10 -35 9 -55 -5 -21 -14 -24 -21 -18 -44 4 -15 16 -33 27 -38 45 -24
46 -26 19 -50 -31 -30 -32 -45 0 -75 l24 -23 36 22 c33 19 36 20 42 3 3 -9 15
-27 26 -39 16 -18 23 -20 43 -11 24 11 40 41 30 57 -4 6 7 6 29 0 40 -11 94 0
108 23 8 12 6 23 -6 42 -13 19 -29 27 -67 32 l-50 7 35 34 c36 35 39 57 13 91
-16 18 -24 15 -68 -24 -22 -20 -40 -32 -40 -28 0 16 -21 139 -26 157 -10 32
-39 39 -69 15z"/>
<path d="M8811 2366 c-7 -8 -15 -30 -18 -50 -3 -20 -8 -36 -12 -36 -3 0 -23
16 -44 35 -38 35 -69 43 -96 26 -23 -15 2 -82 40 -110 l31 -23 -32 -16 c-29
-14 -32 -19 -27 -50 10 -60 38 -74 100 -47 12 5 17 3 17 -8 0 -17 37 -47 57
-47 11 0 43 48 44 67 0 11 29 4 60 -14 31 -18 77 -11 86 13 11 28 -10 67 -42
77 -16 6 -38 16 -48 22 -19 13 -12 21 96 97 15 11 17 18 8 41 -16 41 -35 42
-91 8 -40 -25 -50 -28 -50 -15 0 35 -57 57 -79 30z"/>
<path d="M5580 13494 c-36 -14 -69 -29 -74 -34 -18 -18 161 -11 242 9 43 10
91 22 107 26 52 13 1 24 -110 24 -83 0 -111 -4 -165 -25z"/>
<path d="M8365 13510 c-18 -7 -17 -8 10 -15 17 -4 64 -16 107 -26 81 -20 260
-27 242 -9 -5 5 -39 20 -77 35 -56 21 -84 25 -165 24 -53 0 -106 -4 -117 -9z"/>
<path d="M2574 11689 c-14 -28 -24 -53 -22 -55 2 -2 16 21 31 51 15 30 25 55
22 55 -3 0 -16 -23 -31 -51z"/>
<path d="M2470 11480 c-42 -83 -51 -110 -25 -73 18 26 76 153 70 153 -3 0 -23
-36 -45 -80z"/>
<path d="M40 6280 c0 -27 27 -250 35 -290 2 -14 7 -38 9 -55 8 -51 36 -206 50
-280 9 -45 20 -73 31 -80 10 -5 34 -21 54 -34 79 -53 311 -152 311 -133 0 4
-20 36 -45 71 -25 36 -45 70 -45 77 0 6 -19 36 -43 65 -46 58 -141 206 -177
278 -12 25 -42 92 -65 150 -75 185 -88 216 -102 236 -12 19 -13 18 -13 -5z"/>
<path d="M14167 6268 c-20 -43 -40 -91 -92 -219 -23 -58 -53 -125 -65 -150
-36 -72 -131 -220 -177 -278 -24 -29 -43 -59 -43 -65 0 -7 -20 -41 -45 -77
-25 -35 -45 -67 -45 -71 0 -19 232 80 311 133 20 13 44 29 54 34 11 7 22 35
31 80 13 70 41 224 50 280 2 17 9 55 14 85 15 95 33 270 28 276 -3 2 -12 -10
-21 -28z"/>
<path d="M180 5451 c0 -25 85 -340 135 -502 80 -255 253 -715 274 -729 5 -3
12 -16 16 -30 15 -47 199 -425 274 -560 253 -461 584 -919 963 -1335 110 -122
115 -126 181 -146 37 -11 97 -33 134 -50 135 -61 274 -100 406 -116 70 -9 130
-13 133 -10 8 8 -244 316 -335 410 -49 50 -95 87 -129 104 -30 14 -104 64
-165 112 -62 48 -139 104 -172 125 -33 21 -94 70 -135 110 -104 100 -224 205
-295 256 -33 25 -108 92 -167 150 -111 109 -127 139 -89 160 43 22 74 12 136
-47 76 -72 218 -164 400 -259 130 -68 282 -130 293 -120 2 3 -18 32 -44 66
-106 132 -122 158 -122 201 -1 48 -26 129 -58 184 -29 51 -190 703 -199 805
-3 41 -18 110 -32 154 -21 64 -31 81 -55 95 -109 60 -218 153 -218 187 0 11
-14 33 -31 50 -17 16 -73 92 -125 169 -121 181 -201 295 -225 321 -37 39 -175
84 -262 84 -15 0 -74 11 -131 25 -88 20 -199 66 -348 143 -5 2 -8 -1 -8 -7z
m1083 -1485 c18 -7 46 -28 61 -47 24 -28 27 -40 23 -76 -11 -102 -94 -111
-176 -18 -40 46 -42 95 -6 130 27 28 51 31 98 11z"/>
<path d="M13920 5399 c-111 -56 -285 -109 -357 -109 -15 0 -54 -5 -87 -11
-151 -27 -212 -87 -412 -408 -32 -51 -77 -115 -101 -141 -24 -26 -43 -54 -43
-62 0 -20 -142 -148 -198 -178 -44 -23 -49 -30 -73 -100 -15 -41 -30 -111 -33
-155 -9 -106 -170 -757 -200 -810 -32 -55 -57 -136 -58 -184 0 -43 -16 -69
-122 -201 -26 -34 -46 -63 -44 -66 11 -10 163 52 293 120 182 95 324 187 400
259 62 59 93 69 136 47 38 -21 22 -51 -88 -160 -60 -58 -135 -125 -168 -150
-71 -51 -191 -156 -295 -256 -41 -40 -102 -89 -135 -110 -33 -21 -110 -77
-172 -125 -61 -48 -135 -98 -165 -112 -34 -17 -80 -54 -129 -104 -91 -94 -343
-402 -335 -410 3 -3 63 1 133 10 132 16 271 55 406 116 37 17 97 39 134 50 66
20 71 24 181 146 329 361 617 748 863 1159 46 77 93 151 106 164 13 14 35 50
49 81 15 31 37 70 50 86 26 35 56 102 89 200 13 39 55 140 93 225 136 302 284
729 372 1073 42 166 44 178 33 175 -5 -1 -60 -27 -123 -59z m-855 -1444 c36
-35 34 -84 -6 -130 -82 -93 -165 -84 -176 18 -4 36 -1 48 23 76 51 62 119 77
159 36z"/>
<path d="M1750 2873 c25 -29 49 -53 54 -53 4 0 31 -19 60 -41 48 -39 47 -38
-14 22 -36 36 -83 78 -105 94 l-40 30 45 -52z"/>
<path d="M12480 2892 c-20 -15 -65 -56 -100 -91 -61 -60 -62 -61 -14 -22 29
22 56 41 60 41 5 0 28 23 52 50 24 28 42 50 40 50 -2 0 -19 -13 -38 -28z"/>
<path d="M2604 2366 c11 -9 24 -16 30 -16 12 0 7 5 -24 19 -24 11 -24 11 -6
-3z"/>
<path d="M11610 2365 c-14 -8 -20 -14 -14 -15 5 0 19 7 30 15 24 18 16 19 -16
0z"/>
<path d="M2710 2213 c18 -21 73 -89 123 -151 50 -62 100 -115 112 -117 11 -3
111 -6 222 -7 l202 -3 -27 23 c-109 92 -236 163 -362 203 -52 17 -136 44 -185
60 -50 16 -96 29 -103 29 -8 0 0 -16 18 -37z"/>
<path d="M11430 2220 c-47 -15 -128 -42 -180 -59 -126 -40 -253 -111 -362
-203 l-27 -23 202 3 c111 1 211 4 222 7 12 2 62 55 112 117 50 62 105 130 123
151 39 46 29 47 -90 7z"/>
<path d="M2120 2005 c44 -47 303 -282 416 -376 135 -113 437 -338 485 -362 20
-10 67 -42 105 -72 59 -45 211 -144 348 -225 52 -31 44 -19 -89 136 -60 71
-109 132 -108 135 1 4 -23 36 -55 72 -31 35 -99 126 -151 201 -129 188 -274
356 -306 356 -14 0 -101 11 -194 25 -162 23 -302 62 -436 120 l-40 17 25 -27z"/>
<path d="M12080 2009 c-114 -51 -258 -91 -422 -115 -92 -13 -179 -24 -193 -24
-32 0 -177 -168 -306 -356 -52 -75 -120 -166 -152 -202 -34 -38 -53 -68 -47
-72 6 -4 -18 -36 -58 -76 -68 -68 -160 -175 -177 -204 -8 -13 -6 -13 15 1 14
9 57 33 95 55 39 21 94 55 124 76 30 21 59 38 65 38 24 0 467 330 670 499 162
135 451 402 435 401 -2 0 -24 -10 -49 -21z"/>
</g>
</svg>
