<?xml version="1.0" standalone="no"?>
<!DOCTYPE svg PUBLIC "-//W3C//DTD SVG 20010904//EN"
 "http://www.w3.org/TR/2001/REC-SVG-20010904/DTD/svg10.dtd">
<svg version="1.0" xmlns="http://www.w3.org/2000/svg"
 width="1354.000000pt" height="1335.000000pt" viewBox="0 0 1354.000000 1335.000000"
 preserveAspectRatio="xMidYMid meet">
<metadata>
Created by potrace 1.16, written by Peter Selinger 2001-2019
</metadata>
<g transform="translate(0.000000,1335.000000) scale(0.100000,-0.100000)"
fill="currentColor" stroke="none">
<path d="M6345 13344 c-193 -10 -603 -57 -725 -84 -25 -5 -144 -30 -265 -55
-465 -97 -818 -202 -1205 -357 -1030 -414 -1903 -1051 -2625 -1915 -325 -388
-589 -793 -823 -1263 -406 -811 -624 -1626 -689 -2565 -11 -163 -7 -667 6
-845 13 -174 54 -511 77 -640 8 -47 19 -107 24 -135 143 -810 506 -1697 996
-2430 371 -557 803 -1025 1419 -1539 982 -821 2204 -1338 3485 -1475 443 -48
954 -46 1420 5 1301 142 2561 696 3580 1573 164 141 500 474 637 631 880 1009
1427 2200 1618 3523 47 331 59 513 60 932 0 398 -7 529 -46 840 -188 1510
-882 2913 -1957 3956 -1002 973 -2274 1600 -3637 1793 -295 42 -377 47 -830
50 -247 2 -481 2 -520 0z m895 -713 c85 -6 187 -18 225 -26 87 -18 231 -41
309 -50 33 -4 66 -11 75 -16 9 -4 49 -13 89 -20 58 -9 81 -18 108 -41 19 -17
49 -32 66 -34 201 -24 351 -69 759 -232 237 -95 652 -293 839 -400 107 -61
344 -218 465 -307 870 -639 1566 -1511 1979 -2475 32 -74 64 -148 71 -165 63
-144 193 -547 244 -757 129 -532 176 -913 176 -1443 0 -530 -47 -911 -176
-1443 -51 -210 -181 -613 -244 -757 -7 -16 -39 -91 -71 -165 -413 -964 -1109
-1836 -1979 -2475 -451 -331 -1085 -659 -1627 -839 -136 -46 -386 -119 -448
-131 -19 -4 -37 -11 -40 -15 -7 -10 -270 -66 -380 -80 -47 -6 -193 -26 -324
-46 -227 -33 -255 -35 -540 -37 -276 -2 -625 7 -736 18 -25 3 -72 7 -105 11
-33 3 -136 17 -230 30 -847 121 -1689 442 -2420 922 -1192 782 -2074 1966
-2470 3317 -101 346 -171 678 -195 930 -6 66 -15 134 -20 150 -4 17 -12 73
-15 125 -4 52 -12 101 -18 108 -7 9 -8 140 -4 410 7 426 10 490 26 549 5 21
17 97 26 168 114 905 457 1816 973 2582 131 194 259 353 566 703 88 100 477
481 571 559 862 717 1891 1176 2990 1336 187 27 244 31 383 30 89 -2 162 1
162 6 0 19 684 20 940 0z"/>
<path d="M6606 12548 c-12 -71 -15 -106 -17 -171 -1 -37 -3 -67 -5 -67 -1 0
-17 27 -35 60 -17 33 -36 60 -40 60 -5 0 -26 25 -46 56 l-37 56 -91 -7 c-49
-4 -109 -10 -131 -13 l-42 -7 77 -155 c42 -85 91 -180 108 -211 l32 -56 -47
-33 c-26 -18 -74 -51 -107 -74 -33 -22 -74 -51 -91 -65 -18 -14 -41 -33 -51
-41 -16 -12 -18 -21 -11 -47 5 -18 16 -37 26 -42 39 -21 327 -223 327 -229 -2
-28 -59 -227 -94 -327 -16 -44 -37 -116 -46 -159 l-18 -80 24 -19 23 -19 122
124 c67 68 128 137 137 153 10 19 16 24 17 14 0 -9 11 -104 24 -210 14 -107
27 -270 31 -364 8 -200 51 -771 60 -785 7 -11 19 -167 35 -440 6 -96 21 -267
35 -380 13 -113 36 -317 50 -455 42 -410 48 -449 67 -453 22 -4 24 16 43 548
14 402 46 857 74 1044 5 34 12 160 15 281 6 210 13 394 36 895 6 124 14 237
18 252 l7 28 95 -73 c112 -84 129 -95 167 -101 23 -4 30 -1 41 21 20 44 14 77
-23 129 -19 27 -35 52 -35 57 0 4 -20 43 -44 85 -58 103 -159 302 -155 306 31
24 122 78 235 140 78 42 151 88 164 101 l22 23 -24 15 c-12 8 -86 51 -163 95
-77 44 -158 96 -180 115 l-39 34 33 99 c19 54 48 132 67 171 l33 73 -42 10
c-23 6 -50 15 -59 20 -9 5 -46 12 -82 16 l-66 7 -15 -39 c-30 -75 -115 -218
-123 -209 -3 3 0 11 7 18 8 11 8 42 -2 128 l-12 114 -55 7 c-30 3 -92 6 -137
7 l-82 1 -5 -32z m151 -628 c19 -36 13 -120 -9 -134 -46 -28 -92 101 -52 145
22 25 45 21 61 -11z"/>
<path d="M5985 12300 c-1037 -120 -2050 -540 -2864 -1188 -985 -784 -1682
-1870 -1992 -3107 -71 -285 -149 -746 -149 -886 0 -38 2 -41 52 -64 29 -13 53
-23 54 -22 1 1 9 74 18 162 119 1157 579 2218 1345 3100 136 157 404 423 562
558 873 747 1911 1199 3053 1331 71 9 131 17 133 20 5 5 -29 74 -49 97 -12 15
-25 15 -163 -1z"/>
<path d="M7311 12251 c-28 -65 -27 -71 11 -71 45 0 341 -47 483 -76 535 -112
1040 -298 1530 -564 872 -475 1600 -1177 2125 -2050 99 -165 287 -539 360
-715 169 -411 293 -842 360 -1256 26 -161 60 -459 60 -526 0 -28 4 -54 9 -57
4 -3 31 4 60 16 50 22 51 23 51 65 0 119 -46 478 -91 713 -238 1234 -878 2351
-1822 3178 -867 760 -1889 1221 -3073 1386 l-42 6 -21 -49z"/>
<path d="M7973 11809 c-26 -10 -63 -47 -63 -63 0 -8 -7 -16 -15 -20 -47 -18
27 -125 88 -127 92 -3 110 0 134 23 22 20 24 29 20 77 -3 47 -9 59 -41 88 -37
34 -74 41 -123 22z m75 -106 c2 -8 -6 -13 -22 -13 -17 0 -26 5 -26 16 0 19 41
16 48 -3z"/>
<path d="M4810 11704 c-43 -27 -73 -82 -67 -123 7 -43 67 -101 104 -101 23 0
63 16 73 29 3 4 30 19 61 34 68 33 87 63 69 107 -23 55 -53 70 -139 70 -51 0
-84 -6 -101 -16z"/>
<path d="M5616 11581 c-4 -5 3 -7 14 -4 23 6 26 13 6 13 -8 0 -17 -4 -20 -9z"/>
<path d="M6240 11493 c-87 -13 -319 -47 -340 -48 -14 -2 -32 -5 -40 -8 -8 -3
-62 -15 -120 -27 -148 -31 -427 -112 -588 -171 -555 -203 -1013 -465 -1457
-834 -131 -109 -402 -374 -511 -500 -38 -44 -71 -82 -74 -85 -46 -46 -242
-308 -322 -430 -334 -511 -559 -1045 -688 -1635 -45 -208 -105 -645 -88 -645
3 0 44 18 90 39 l86 40 11 103 c44 375 157 819 299 1173 47 118 163 371 200
435 13 25 45 81 70 125 25 44 55 96 67 115 146 230 258 385 406 565 100 121
429 452 556 558 362 304 804 572 1233 747 217 89 595 205 643 198 12 -2 27 2
32 8 11 14 273 67 417 85 l97 12 36 89 c19 48 35 90 35 93 0 5 -8 5 -50 -2z"/>
<path d="M7270 11488 c0 -3 22 -45 48 -94 l49 -89 59 -8 c89 -11 303 -54 444
-88 587 -143 1176 -426 1670 -803 312 -238 640 -567 877 -881 225 -299 439
-671 583 -1013 54 -130 165 -451 157 -458 -2 -2 -48 17 -101 42 -109 51 -146
53 -146 8 0 -14 7 -41 16 -60 16 -33 16 -34 -15 -60 -43 -36 -43 -82 0 -118
40 -34 64 -33 100 6 35 39 39 90 9 111 -20 14 -47 74 -37 84 6 5 195 -85 201
-96 9 -14 77 -326 96 -436 11 -65 28 -188 37 -273 l17 -154 89 -45 90 -45 -6
104 c-27 431 -142 925 -324 1388 -430 1093 -1249 1986 -2298 2505 -221 110
-282 136 -505 217 -191 69 -416 136 -580 172 -210 47 -530 97 -530 84z"/>
<path d="M7260 11414 c0 -6 7 -19 16 -30 14 -18 14 -18 3 6 -14 31 -19 36 -19
24z"/>
<path d="M9469 11157 c-22 -15 -35 -32 -37 -50 -4 -30 -16 -30 -74 -1 -37 19
-84 18 -92 -2 -14 -36 -6 -62 19 -68 14 -4 49 -17 77 -30 l51 -23 -39 -12
c-85 -27 -94 -32 -94 -60 0 -49 35 -64 88 -37 15 7 37 17 50 20 19 6 22 4 22
-21 0 -30 31 -73 52 -73 7 0 21 9 33 20 19 18 21 27 15 61 -8 40 -7 40 19 33
42 -12 75 -12 83 0 14 21 8 64 -9 70 -13 6 -10 11 20 32 33 22 37 29 37 70 0
37 -4 46 -22 53 -27 10 -55 -5 -62 -34 -3 -11 -24 -30 -46 -43 l-41 -23 6 23
c2 13 7 34 11 48 4 17 -1 33 -14 48 l-19 22 -34 -23z"/>
<path d="M7685 11150 c-27 -5 -76 -9 -107 -9 -62 -1 -63 -2 -48 -29 5 -9 17
-35 26 -57 9 -22 18 -35 21 -29 4 13 43 7 43 -6 0 -5 -9 -12 -21 -15 -17 -6
-20 -14 -17 -48 3 -36 6 -42 23 -39 39 6 107 45 115 66 8 19 9 19 9 -7 1 -15
8 -41 16 -57 13 -25 21 -29 77 -35 35 -4 92 -2 128 4 90 15 100 14 100 -9 0
-27 20 -68 37 -74 8 -3 34 -1 58 5 37 9 47 9 60 -5 24 -23 39 -20 94 19 26 19
53 35 60 35 7 0 11 -19 11 -49 0 -42 4 -53 26 -70 38 -30 47 -28 159 32 16 9
30 15 31 14 2 -1 -10 -40 -27 -85 -38 -109 -38 -129 3 -147 29 -12 34 -11 45
5 7 9 15 30 18 46 3 16 18 69 34 119 32 97 30 112 -15 141 -35 23 -95 21 -138
-5 l-36 -23 0 22 c0 51 -50 90 -118 93 -28 1 -51 -8 -87 -33 -28 -18 -53 -38
-56 -43 -4 -5 -10 0 -14 12 -4 14 -15 21 -31 21 -19 0 -24 5 -24 24 0 14 -4
28 -10 31 -5 3 -10 10 -10 15 0 18 33 19 80 1 l50 -19 19 25 c32 40 10 65 -86
97 -60 20 -87 15 -109 -19 -12 -19 -13 -28 -4 -45 6 -12 10 -23 8 -24 -2 -2
-27 -6 -56 -9 l-53 -6 21 28 c23 34 25 49 6 74 -19 25 -50 21 -87 -10 -18 -15
-30 -21 -27 -13 6 18 -18 81 -35 92 -15 9 -94 8 -162 -2z m67 -109 c-17 -30
-32 -25 -32 12 0 11 8 17 25 17 24 0 24 0 7 -29z"/>
<path d="M5223 10937 c-46 -11 -46 -10 -48 -111 0 -49 -28 -72 -50 -41 -29 41
-37 45 -85 45 -44 0 -52 -4 -74 -33 -15 -19 -26 -38 -26 -43 0 -5 -9 -20 -20
-34 -15 -19 -20 -21 -20 -9 0 34 -88 41 -117 10 -10 -10 -32 -22 -49 -25 -37
-8 -62 -54 -71 -127 -5 -45 -4 -48 20 -54 23 -6 24 -9 14 -26 -16 -26 -27 -29
-81 -17 l-47 10 7 70 c7 77 2 88 -48 88 -24 0 -27 -4 -33 -47 -8 -66 -22 -115
-38 -137 -14 -19 -15 -18 -35 2 -12 12 -22 31 -22 41 0 45 -18 71 -49 71 -35
0 -53 -25 -45 -61 2 -13 2 -45 -1 -70 -6 -43 -8 -46 -32 -41 -50 9 -58 -54
-14 -106 26 -31 28 -36 19 -79 -6 -25 -7 -69 -3 -99 8 -69 45 -104 110 -104
50 0 56 9 58 93 1 40 -7 68 -32 121 -21 46 -31 79 -28 100 l4 31 1 -32 c1 -22
7 -33 17 -33 8 0 19 -17 26 -42 13 -45 44 -88 64 -88 18 0 45 34 45 58 0 12
-9 44 -20 71 -22 57 -19 73 16 91 20 11 36 11 87 1 71 -14 99 -7 136 33 15 15
35 26 51 26 33 0 53 22 72 75 10 30 19 41 37 43 30 3 21 -9 71 91 l41 83 29
-27 c21 -20 42 -29 77 -32 41 -4 52 -1 76 21 15 14 32 26 37 26 21 0 33 -48
31 -122 -2 -71 0 -80 23 -103 33 -33 109 -36 126 -6 16 32 12 99 -11 142 l-20
40 41 45 c31 34 40 52 38 72 -2 23 -8 28 -37 30 -25 3 -40 -3 -62 -24 -23 -22
-31 -25 -43 -15 -23 19 -28 44 -16 94 17 78 1 88 -97 64z m-418 -367 c3 -5 1
-10 -4 -10 -6 0 -11 5 -11 10 0 6 2 10 4 10 3 0 8 -4 11 -10z"/>
<path d="M3171 10801 c-6 -11 -11 -45 -11 -76 0 -48 -3 -56 -16 -51 -9 3 -20
6 -25 6 -6 0 -8 4 -5 9 8 12 -40 31 -79 31 -34 0 -40 -7 -50 -59 -4 -24 28
-45 89 -56 34 -7 36 -9 22 -23 -9 -9 -30 -21 -48 -26 -27 -9 -34 -17 -36 -42
-6 -59 43 -77 105 -38 30 19 30 18 36 -15 12 -58 77 -63 96 -9 6 17 11 40 11
51 0 14 4 17 18 11 9 -4 33 -9 54 -12 31 -3 37 -1 44 20 17 50 10 61 -51 78
-25 7 -45 18 -45 24 1 15 49 67 83 89 30 19 33 33 15 72 -14 32 -35 32 -78 0
-35 -26 -46 -24 -52 10 -5 29 -63 34 -77 6z"/>
<path d="M9176 10575 c-3 -9 -1 -23 5 -33 17 -26 94 -72 120 -72 22 1 20 4
-21 41 -25 23 -57 50 -71 60 -23 16 -28 17 -33 4z"/>
<path d="M9074 10486 c-35 -15 -104 -117 -104 -152 0 -21 41 -64 61 -64 16 0
39 32 39 56 0 35 28 74 54 74 54 0 90 59 53 85 -26 18 -62 19 -103 1z"/>
<path d="M4150 10464 c-42 -29 -44 -43 -8 -63 24 -14 28 -14 46 2 28 25 33 53
13 70 -14 13 -20 12 -51 -9z"/>
<path d="M9186 10381 c-10 -10 -16 -40 -18 -78 -2 -65 13 -95 53 -108 15 -5
17 -10 9 -24 -10 -19 -31 -20 -107 -7 -38 7 -45 5 -66 -18 -25 -27 -37 -71
-37 -138 0 -28 6 -42 26 -57 46 -36 73 -28 143 43 48 48 72 65 100 70 20 3 49
13 65 21 27 14 32 14 73 -6 24 -12 47 -19 50 -16 3 3 16 -7 30 -23 13 -16 42
-35 63 -41 22 -7 37 -15 35 -19 -5 -9 23 -34 46 -43 9 -3 42 1 75 9 80 19 86
18 82 -8 -3 -21 1 -23 57 -26 39 -1 55 1 46 7 -10 6 -12 20 -8 49 5 30 3 43
-11 55 -21 19 -105 39 -128 30 -15 -6 -15 -4 1 20 40 61 -20 114 -73 65 -40
-38 -80 -61 -92 -53 -16 10 -12 23 16 60 31 41 29 75 -6 92 -23 11 -28 9 -67
-29 l-43 -42 9 31 c7 25 6 35 -8 47 -22 20 -45 20 -62 0 -7 -8 -31 -25 -53
-36 l-39 -20 42 53 c49 62 52 98 9 113 -22 8 -32 4 -65 -21 -21 -16 -46 -33
-57 -36 -16 -6 -18 -3 -12 26 5 25 2 37 -11 49 -29 25 -50 28 -67 9z m-63
-326 c-3 -9 -8 -14 -10 -11 -3 3 -2 9 2 15 9 16 15 13 8 -4z"/>
<path d="M10785 9949 c-57 -18 -70 -38 -66 -105 1 -11 16 -36 34 -56 31 -34
39 -37 110 -44 64 -6 81 -4 103 11 23 15 26 22 21 56 -13 101 -110 168 -202
138z"/>
<path d="M3758 9783 c-58 -43 -70 -66 -67 -126 2 -31 -2 -62 -10 -76 -15 -28
-11 -214 10 -441 6 -75 9 -211 5 -340 -3 -118 -2 -411 3 -650 7 -399 9 -438
26 -467 19 -33 59 -50 78 -35 21 17 175 25 487 26 366 1 480 -12 660 -78 36
-13 74 -26 85 -30 11 -4 49 -18 85 -31 36 -13 90 -32 120 -41 86 -27 170 -79
315 -195 118 -94 181 -165 196 -217 6 -26 32 -99 57 -162 45 -115 45 -115 45
-245 1 -135 -9 -185 -61 -306 -20 -47 -111 -137 -167 -166 -16 -9 -61 -37
-100 -63 -147 -98 -314 -187 -440 -232 -112 -41 -355 -106 -445 -119 -41 -5
-129 -21 -195 -34 -230 -45 -440 -71 -652 -81 -201 -10 -186 15 -195 -317 -6
-248 -13 -325 -38 -442 -31 -146 -52 -777 -37 -1140 11 -251 29 -330 86 -360
28 -14 33 -14 56 1 14 9 25 21 25 26 0 7 4 7 13 0 14 -11 228 -1 367 17 75 10
299 30 675 61 193 16 387 39 430 50 22 6 121 15 220 19 130 6 191 13 218 24
l39 17 -7 102 c-19 287 1 593 51 768 9 30 29 105 44 165 16 61 36 130 45 155
9 25 19 54 22 65 3 11 9 25 14 30 4 6 19 42 33 80 23 63 46 111 124 255 49 89
137 189 211 237 31 20 72 50 91 68 41 37 135 105 145 105 4 0 42 15 84 34 49
23 106 39 162 47 76 10 92 10 140 -6 30 -10 96 -21 147 -24 79 -5 97 -10 111
-27 9 -12 32 -28 51 -38 55 -25 173 -118 193 -151 138 -221 198 -333 219 -409
31 -114 79 -324 93 -411 7 -44 22 -136 33 -205 23 -139 62 -546 63 -655 0 -38
4 -103 8 -143 11 -114 -10 -107 367 -126 45 -2 112 -9 150 -14 38 -6 170 -18
294 -27 219 -15 313 -24 510 -46 412 -45 633 -57 720 -39 106 22 105 21 104
65 -1 22 -8 58 -17 80 -14 35 -16 117 -17 660 0 629 -12 1092 -30 1172 -6 25
-23 58 -39 75 l-29 31 -193 2 c-362 4 -827 76 -1054 162 -136 51 -458 209
-554 271 -94 60 -187 150 -227 221 -15 25 -41 69 -60 97 -53 82 -85 274 -64
384 13 67 60 170 94 207 26 27 165 227 197 281 34 59 153 132 319 198 52 20
113 47 135 60 22 12 101 43 175 69 132 46 171 54 450 91 235 30 281 34 531 43
283 10 308 15 334 74 10 23 17 111 25 312 6 158 19 343 30 425 10 80 24 210
31 290 12 153 18 917 8 960 -4 14 -7 28 -8 32 0 4 -14 14 -31 23 -23 12 -71
15 -252 15 -266 0 -819 -24 -1043 -45 -88 -8 -254 -20 -370 -26 -115 -6 -219
-15 -230 -20 -11 -5 -45 -10 -75 -11 l-55 -3 -3 -90 c-2 -49 -5 -171 -8 -270
-2 -99 -8 -210 -14 -247 -5 -37 -10 -93 -10 -125 0 -37 -10 -88 -29 -143 -16
-47 -31 -118 -35 -158 -3 -39 -15 -118 -26 -175 -11 -56 -20 -113 -20 -127 0
-36 -23 -96 -63 -166 -45 -79 -64 -107 -177 -255 -114 -148 -187 -229 -255
-279 -42 -31 -261 -133 -330 -154 -26 -8 -122 21 -246 72 -138 57 -193 95
-366 250 -58 51 -73 70 -73 92 0 19 -26 67 -76 140 -118 173 -154 270 -220
580 -69 328 -101 561 -110 811 -7 172 -6 177 16 206 18 25 20 34 11 52 -14 25
-42 41 -84 46 -18 3 -57 9 -87 14 -30 6 -131 15 -225 21 -93 6 -199 16 -235
21 -36 6 -177 10 -315 9 -207 -2 -274 1 -390 18 -121 18 -301 32 -610 48 -75
4 -82 3 -117 -23z"/>
<path d="M3201 9395 c-33 -36 -61 -72 -61 -80 0 -8 -7 -15 -14 -15 -8 0 -27
-16 -42 -36 l-27 -35 26 -22 c15 -12 30 -36 33 -54 6 -29 3 -33 -21 -39 -15
-4 -44 -2 -65 5 -20 6 -40 11 -43 11 -13 0 -117 -140 -117 -157 0 -44 124
-163 169 -163 26 0 71 35 86 67 18 37 13 62 -16 105 -21 29 -19 32 23 42 36 8
82 79 82 126 0 22 6 40 18 48 10 7 25 26 33 42 13 26 13 30 -7 55 -20 26 -20
29 -6 96 9 38 14 69 13 69 -2 0 -30 -29 -64 -65z m-166 -484 c-6 -6 -44 29
-56 52 -6 9 -7 22 -3 28 3 6 19 -8 35 -32 15 -24 26 -45 24 -48z"/>
<path d="M2182 9433 c-13 -3 -44 -26 -69 -51 -38 -40 -44 -51 -39 -76 11 -53
32 -66 108 -66 66 0 70 2 110 38 38 36 40 41 34 76 -14 71 -58 95 -144 79z"/>
<path d="M10345 9368 c-34 -23 -59 -54 -69 -83 -4 -16 1 -25 25 -39 30 -18 32
-17 92 5 34 12 64 24 66 25 4 3 -77 115 -82 113 -1 0 -16 -10 -32 -21z"/>
<path d="M10442 9228 c-11 -18 -23 -49 -27 -69 -6 -31 -2 -41 25 -72 17 -20
48 -46 68 -58 20 -13 39 -24 41 -26 2 -1 -4 -12 -14 -23 -22 -24 -31 -100 -15
-129 13 -25 95 -65 154 -76 46 -9 52 -19 22 -35 -39 -20 -55 -72 -40 -127 5
-18 16 -24 53 -29 25 -3 57 -15 71 -26 l25 -20 -28 -24 c-30 -26 -45 -65 -39
-101 5 -31 51 -39 97 -17 47 22 69 56 60 91 -11 45 -84 202 -119 257 -18 28
-49 80 -68 116 -20 36 -55 99 -78 140 -22 41 -60 91 -82 111 -34 29 -40 40
-35 59 4 17 -1 35 -16 57 -12 18 -25 33 -29 33 -3 0 -15 -15 -26 -32z"/>
<path d="M2778 8869 c-21 -29 -38 -60 -38 -71 0 -10 -4 -17 -9 -13 -9 5 -18
-13 -26 -54 -2 -12 -1 -21 3 -21 21 0 102 -90 102 -113 0 -5 -24 -6 -52 -2
-66 8 -105 -6 -114 -40 -3 -14 -11 -29 -18 -33 -6 -4 -19 -29 -28 -57 l-17
-50 32 -25 c17 -14 43 -35 57 -47 l25 -22 -47 2 c-60 2 -82 -17 -83 -73 0 -23
-5 -40 -11 -40 -17 0 -32 -22 -38 -53 -4 -21 1 -31 19 -43 22 -14 55 -70 55
-93 0 -6 -12 -8 -30 -5 -36 8 -60 -9 -60 -42 0 -13 -6 -24 -13 -24 -15 0 -37
-41 -37 -68 0 -29 36 -78 76 -103 72 -43 65 -63 -22 -65 -64 -1 -85 -16 -86
-63 -1 -30 -3 -31 -34 -25 -26 5 -34 2 -43 -14 -22 -40 -13 -58 34 -76 41 -16
60 -36 35 -36 -5 0 -19 -9 -30 -20 -24 -24 -26 -77 -4 -108 23 -33 93 -65 143
-65 37 0 48 5 67 29 36 44 44 75 29 117 -11 33 -11 37 5 37 18 0 38 36 33 60
-2 9 -21 27 -43 40 l-40 25 36 18 c38 20 64 67 64 115 0 15 3 45 6 67 3 29 0
50 -14 75 -19 34 -19 35 1 67 16 28 18 44 13 93 -7 59 -7 60 18 60 49 0 61 60
19 97 l-28 24 46 -6 c36 -5 49 -3 62 10 22 22 21 73 -1 110 l-19 30 38 -3 c32
-3 38 0 45 20 15 44 12 49 -34 78 l-47 30 43 0 c67 0 86 26 79 107 l-5 65 32
-6 c17 -4 52 -10 78 -13 44 -5 47 -4 54 21 9 38 0 54 -43 72 -65 28 -68 30
-71 59 -2 16 -10 39 -19 51 -17 26 -73 64 -94 64 -8 0 -31 -23 -51 -51z m-262
-1435 c15 -21 15 -27 4 -34 -15 -9 -50 5 -50 20 0 16 12 40 21 40 5 0 16 -12
25 -26z"/>
<path d="M6781 8744 c0 -11 3 -14 6 -6 3 7 2 16 -1 19 -3 4 -6 -2 -5 -13z"/>
<path d="M1595 8590 c-25 -27 -15 -83 24 -146 17 -28 31 -53 31 -56 0 -7 -109
-37 -144 -40 -23 -2 -31 -9 -37 -31 -4 -16 -5 -35 -3 -42 10 -25 69 -27 134
-4 34 11 63 19 66 16 2 -2 0 -16 -6 -31 -12 -33 -13 -86 -1 -104 5 -8 21 -12
37 -10 24 2 32 10 44 46 8 23 18 42 23 42 14 0 77 -74 77 -92 0 -21 37 -48 66
-48 16 0 25 9 33 31 13 38 0 67 -57 124 -47 48 -76 91 -65 98 9 5 65 18 173
42 41 9 81 24 88 33 17 22 15 59 -4 66 -23 9 -82 7 -88 -3 -3 -4 -34 -14 -68
-20 -35 -7 -70 -14 -79 -17 -14 -4 -15 3 -11 44 5 60 -9 91 -41 88 -37 -4 -44
-12 -50 -57 -3 -22 -8 -43 -11 -47 -9 -8 -33 27 -47 68 -20 59 -57 80 -84 50z"/>
<path d="M11492 8580 c-36 -15 -36 -36 -3 -90 27 -44 29 -50 13 -50 -10 0 -25
-12 -32 -26 -19 -35 -4 -57 48 -68 23 -6 42 -12 42 -15 0 -3 -16 -23 -35 -44
-35 -38 -43 -69 -26 -96 15 -23 82 2 110 40 l23 31 16 -32 c14 -29 19 -32 50
-27 60 10 74 38 47 100 -5 12 -3 17 8 17 17 0 47 37 47 57 0 11 -48 43 -67 44
-11 0 -4 29 14 60 18 30 11 77 -12 86 -28 10 -65 -7 -76 -35 -30 -85 -36 -84
-94 4 -39 58 -38 57 -73 44z"/>
<path d="M11020 7498 c-30 -49 -24 -97 17 -124 42 -28 79 -21 99 18 9 17 13
40 10 52 -9 33 -48 75 -78 82 -23 5 -30 1 -48 -28z"/>
<path d="M1477 7288 c-8 -12 -49 -84 -92 -158 -43 -74 -92 -153 -111 -176
l-33 -41 -188 63 c-103 35 -216 76 -251 90 -34 15 -65 24 -68 21 -6 -5 -16
-122 -18 -202 l-1 -39 120 -61 c66 -34 154 -76 195 -95 41 -18 69 -35 62 -38
-7 -2 -18 1 -26 7 -9 8 -56 6 -167 -5 -214 -21 -199 -15 -199 -72 0 -26 3 -83
6 -128 l7 -81 91 -7 c50 -4 125 -10 166 -13 41 -3 76 -7 78 -8 2 -2 -220 -171
-302 -228 -17 -13 -18 -19 -5 -120 7 -59 16 -112 19 -118 5 -7 46 9 117 45 61
30 113 52 116 49 3 -3 30 9 59 27 29 18 73 44 98 58 25 13 68 37 96 53 l51 28
33 -47 c18 -26 51 -74 74 -107 22 -33 51 -74 65 -91 14 -17 32 -40 40 -51 17
-25 52 -20 85 14 14 14 48 70 77 126 42 82 117 208 133 224 2 2 44 -11 94 -31
140 -54 319 -98 458 -113 49 -6 64 16 37 52 -10 13 -56 71 -101 130 -46 58
-82 108 -80 109 11 10 370 46 508 51 195 8 766 51 780 60 11 7 167 19 440 35
96 6 267 21 380 35 113 13 318 36 455 50 410 42 449 48 453 67 4 22 -16 24
-548 43 -402 14 -857 46 -1044 74 -34 5 -160 12 -281 15 -391 11 -1103 44
-1157 54 l-37 7 70 80 c38 44 69 84 69 89 0 6 11 21 24 35 14 15 27 40 30 56
5 25 1 32 -21 43 -42 19 -77 14 -119 -16 -45 -32 -361 -188 -436 -215 -13 -5
-41 32 -134 178 -64 101 -125 192 -135 200 -16 16 -18 15 -32 -7z m123 -703
c20 -24 7 -49 -40 -72 -48 -25 -84 -29 -124 -13 -21 8 -26 16 -26 45 0 44 19
53 111 54 47 1 70 -3 79 -14z"/>
<path d="M11995 7186 c-15 -19 -53 -88 -86 -152 -33 -65 -63 -122 -68 -128 -5
-6 -14 -28 -20 -48 -7 -21 -16 -38 -19 -38 -9 0 -216 91 -309 136 -39 20 -109
62 -154 95 -85 61 -113 69 -162 47 -22 -11 -25 -18 -21 -41 2 -16 16 -45 29
-65 136 -203 135 -200 112 -206 -31 -8 -771 -41 -1142 -52 -121 -3 -247 -10
-281 -15 -187 -28 -642 -60 -1044 -74 -532 -19 -552 -21 -548 -43 4 -19 43
-25 453 -67 138 -14 342 -37 455 -50 113 -14 284 -29 380 -35 271 -16 429 -28
440 -35 14 -9 456 -43 775 -61 154 -8 335 -23 403 -32 l123 -17 -42 -47 c-23
-26 -47 -45 -53 -41 -6 3 -8 3 -4 -2 4 -4 -13 -31 -39 -59 -65 -73 -76 -92
-69 -121 5 -21 12 -25 44 -25 57 0 287 41 501 90 69 15 97 18 107 9 7 -6 32
-45 55 -87 63 -115 139 -231 158 -242 13 -6 21 -3 32 12 8 12 26 35 40 52 14
17 43 58 65 91 23 33 56 81 74 107 l33 47 71 -40 c113 -62 216 -112 222 -106
5 5 33 186 34 219 0 10 -24 31 -57 52 -32 20 -74 49 -93 66 l-35 30 96 -6 c73
-5 98 -4 104 6 4 7 10 75 13 151 l5 139 -97 0 c-97 0 -119 9 -68 28 173 65
163 53 151 187 -6 61 -14 113 -18 117 -4 5 -29 -1 -56 -11 -28 -11 -85 -31
-128 -44 l-78 -24 -35 41 c-20 22 -72 105 -117 183 -45 79 -87 143 -94 143 -7
0 -24 -16 -38 -34z m-40 -622 c17 -7 30 -47 21 -69 -4 -11 -22 -15 -70 -15
-108 0 -144 25 -111 76 16 25 20 26 81 20 35 -4 71 -9 79 -12z"/>
<path d="M4638 6543 c7 -3 16 -2 19 1 4 3 -2 6 -13 5 -11 0 -14 -3 -6 -6z"/>
<path d="M8858 6493 c7 -3 16 -2 19 1 4 3 -2 6 -13 5 -11 0 -14 -3 -6 -6z"/>
<path d="M2020 6067 c0 -7 11 -88 25 -182 101 -691 350 -1344 743 -1945 80
-122 276 -384 322 -430 3 -3 36 -41 74 -85 188 -217 496 -501 741 -681 561
-412 1219 -704 1888 -838 169 -34 406 -71 412 -64 4 4 -42 168 -49 175 -2 2
-59 12 -127 23 -644 99 -1258 335 -1804 695 -294 194 -465 334 -731 599 -286
286 -443 485 -679 856 -12 19 -42 71 -67 115 -25 44 -57 100 -70 125 -37 64
-153 317 -200 435 -115 285 -216 648 -263 940 -36 224 -33 215 -80 232 -99 34
-135 42 -135 30z"/>
<path d="M11385 5998 c-38 -11 -73 -25 -76 -30 -4 -6 -10 -38 -13 -72 -12
-100 -73 -391 -115 -546 -280 -1018 -918 -1921 -1791 -2535 -123 -87 -198
-134 -355 -224 -469 -266 -858 -411 -1415 -524 l-154 -32 -44 -89 c-23 -49
-41 -90 -38 -93 5 -6 270 41 416 73 164 36 389 103 580 172 223 81 284 107
505 217 457 226 860 514 1225 876 529 525 914 1142 1159 1863 92 270 152 511
197 796 13 85 24 158 24 163 0 11 -27 7 -105 -15z"/>
<path d="M12215 5962 c-35 -315 -136 -766 -245 -1092 -561 -1675 -1860 -2970
-3545 -3536 -329 -110 -752 -212 -822 -199 -21 4 -73 -4 -141 -20 -80 -20
-120 -25 -159 -20 -50 6 -53 5 -64 -19 -10 -21 -9 -33 6 -66 10 -22 23 -45 30
-50 20 -16 382 41 675 106 640 143 1297 423 1850 789 1270 839 2148 2139 2455
3635 24 115 75 420 75 446 0 6 -24 27 -54 47 l-55 36 -6 -57z"/>
<path d="M2471 5936 c-25 -14 -52 -50 -76 -101 -24 -50 -26 -155 -5 -244 13
-56 19 -67 57 -94 44 -31 52 -43 31 -45 -15 -1 -52 -9 -77 -17 -16 -5 -17 -11
-8 -52 7 -30 17 -48 29 -51 10 -2 21 -15 24 -28 6 -25 31 -44 57 -44 8 0 31
-16 51 -35 21 -19 41 -35 45 -35 3 0 15 -14 25 -31 19 -31 16 -59 -6 -59 -17
-1 -63 -41 -78 -69 -10 -19 -6 -34 26 -102 21 -44 45 -84 53 -89 17 -9 131 24
188 53 59 31 66 79 18 111 -23 15 -69 16 -116 1 -26 -9 -24 7 6 35 58 55 54
121 -13 199 l-38 44 22 22 c12 12 27 40 33 60 16 58 -6 92 -89 145 l-69 45 29
18 c35 22 63 78 54 111 -6 26 -43 56 -67 56 -7 0 -24 11 -36 24 l-22 24 39 22
c55 31 70 90 31 123 -22 19 -84 21 -118 3z"/>
<path d="M1053 5914 c-51 -31 -52 -35 -23 -209 231 -1379 921 -2586 1985
-3466 807 -667 1801 -1106 2850 -1258 232 -34 302 -37 325 -16 29 26 25 41
-20 74 -31 22 -55 30 -112 35 -375 36 -865 146 -1238 279 -300 106 -677 280
-950 437 -665 383 -1284 946 -1737 1580 -454 635 -793 1406 -937 2130 -30 153
-46 238 -55 305 -22 155 -19 150 -88 109z"/>
<path d="M10980 5781 c0 -6 -9 -11 -19 -11 -32 0 -51 -28 -51 -73 0 -48 6 -59
37 -76 33 -17 78 -13 104 8 20 16 24 29 24 70 0 32 -6 56 -15 65 -20 20 -80
33 -80 17z"/>
<path d="M10740 5190 c-43 -43 -39 -95 9 -127 39 -27 83 -30 102 -7 17 20 20
95 6 115 -30 41 -86 50 -117 19z"/>
<path d="M6826 5102 c-5 -8 -14 -85 -51 -452 -14 -135 -37 -337 -50 -450 -14
-113 -29 -284 -35 -380 -16 -273 -28 -429 -35 -440 -9 -14 -52 -585 -60 -785
-4 -93 -17 -257 -31 -364 -13 -106 -24 -201 -24 -210 -1 -10 -7 -4 -18 15 -18
32 -230 254 -242 254 -4 0 -18 -8 -29 -18 -21 -16 -22 -21 -11 -84 5 -37 37
-158 70 -268 33 -110 60 -206 60 -213 0 -8 -57 -51 -127 -97 -71 -45 -147 -96
-171 -111 -23 -16 -49 -29 -57 -29 -27 0 -18 -55 11 -76 15 -10 41 -31 58 -45
17 -14 58 -43 91 -65 121 -82 155 -108 146 -113 -5 -4 -33 -56 -61 -116 -28
-61 -69 -147 -91 -192 -21 -46 -39 -85 -39 -88 0 -3 70 -5 155 -5 l155 0 55
107 c31 60 53 99 49 88 -3 -11 -6 -24 -5 -30 1 -5 4 -49 7 -97 l6 -88 149 0
149 0 0 65 c0 45 4 65 13 65 9 0 9 2 -1 9 -9 5 -12 26 -10 67 l3 59 64 -123
c73 -138 65 -133 187 -111 98 17 98 17 79 45 -8 13 -26 63 -39 111 -13 49 -31
106 -40 128 l-17 40 42 37 c23 21 105 75 183 119 201 116 191 109 175 125 -8
7 -86 50 -174 95 -88 45 -168 87 -177 93 -15 11 -11 25 46 146 77 164 166 371
166 386 0 7 10 14 23 18 23 5 47 42 47 71 0 7 5 15 10 17 6 2 12 20 13 41 4
51 47 77 47 28 0 -25 28 -46 76 -58 50 -12 76 -1 118 51 28 36 29 36 46 16 23
-26 101 -38 118 -18 7 9 25 13 45 12 38 -3 61 17 97 83 24 45 25 71 4 94 -14
16 -14 18 5 29 14 7 21 7 21 0 0 -5 9 -10 20 -10 11 0 20 -4 20 -10 0 -5 7
-10 16 -10 17 0 17 0 -12 -83 -16 -45 -16 -49 1 -67 28 -31 71 -26 90 10 8 16
15 34 15 41 0 7 12 32 26 57 25 42 27 43 42 25 11 -11 17 -35 17 -63 l0 -45
37 1 c49 2 65 16 73 65 4 21 11 39 16 39 5 0 9 7 9 17 0 9 3 13 6 10 9 -9 58
21 72 44 10 16 9 26 -7 57 -17 34 -18 41 -4 77 22 61 29 96 28 136 -2 38 -34
89 -63 101 -28 11 -79 9 -89 -4 -18 -23 -35 -87 -35 -136 -1 -26 -3 -38 -5
-27 -11 49 -72 60 -100 19 -14 -22 -15 -35 -7 -85 9 -51 8 -62 -6 -74 -23 -21
-53 -19 -97 6 -53 30 -97 32 -141 6 -20 -12 -49 -20 -64 -18 -33 3 -78 -26
-98 -63 -9 -17 -22 -26 -38 -26 -24 0 -59 -31 -117 -102 l-29 -37 -17 25 c-37
57 -95 74 -152 45 -50 -25 -55 -14 -36 82 18 95 18 107 1 139 -19 32 -82 52
-118 36 -40 -19 -54 -73 -40 -159 8 -44 7 -46 -22 -58 -32 -13 -66 -46 -74
-71 -15 -45 49 -72 103 -44 30 15 33 15 45 0 20 -28 -13 -93 -82 -161 -62 -62
-162 -140 -169 -133 -15 14 -32 347 -55 1068 -6 173 -17 371 -25 440 -35 290
-56 592 -70 1010 -18 513 -21 550 -40 550 -8 0 -16 -3 -19 -8z m1487 -2449 c4
-18 3 -33 -2 -33 -10 0 -19 40 -13 59 5 16 8 12 15 -26z m-1604 -1060 c25 -21
29 -69 12 -130 -11 -40 -14 -43 -46 -43 -52 0 -70 33 -61 113 4 34 13 65 19
69 20 13 54 9 76 -9z"/>
<path d="M11553 4885 c-16 -11 -24 -31 -29 -66 l-7 -49 -34 35 c-35 36 -57 39
-90 13 -19 -16 -16 -24 23 -68 20 -22 32 -40 28 -40 -16 0 -139 -21 -157 -26
-32 -10 -39 -39 -15 -69 17 -22 26 -26 54 -21 19 3 50 9 69 12 l34 6 -11 -30
c-10 -25 -9 -35 5 -55 14 -21 21 -24 44 -18 15 4 33 16 38 27 24 45 26 46 50
19 30 -31 45 -32 75 0 l23 24 -22 36 c-19 33 -20 36 -3 42 9 3 27 15 39 26 18
16 20 23 11 43 -11 24 -41 40 -57 29 -6 -3 -6 7 0 27 15 51 -5 118 -35 118 -6
0 -21 -7 -33 -15z"/>
<path d="M1858 4872 c-35 -7 -34 -95 0 -106 10 -3 23 -20 29 -37 14 -35 21
-31 -94 -55 -89 -18 -119 -39 -108 -73 9 -30 45 -35 112 -18 32 8 59 13 61 12
2 -2 -6 -18 -17 -36 -24 -40 -26 -58 -8 -84 23 -31 62 -12 95 46 l29 50 21
-49 c22 -51 36 -62 78 -62 35 0 41 39 15 95 -12 25 -21 47 -21 50 0 3 16 5 36
5 50 0 96 28 88 55 -13 42 -34 56 -81 49 -50 -7 -54 2 -22 53 23 37 20 77 -7
87 -28 11 -63 -5 -76 -35 -7 -16 -15 -29 -19 -29 -3 0 -13 15 -21 34 -17 34
-57 56 -90 48z"/>
<path d="M6731 4524 c0 -11 3 -14 6 -6 3 7 2 16 -1 19 -3 4 -6 -2 -5 -13z"/>
<path d="M10480 4525 c-7 -8 -18 -15 -25 -15 -15 0 -42 -38 -51 -74 -3 -14
-12 -26 -19 -26 -6 0 -22 -8 -33 -19 -26 -22 -29 -67 -7 -98 14 -20 13 -21
-23 -27 -39 -6 -69 -31 -92 -76 -7 -14 -19 -29 -26 -33 -8 -4 -14 -17 -14 -27
0 -11 -4 -20 -9 -20 -5 0 -8 -21 -7 -46 1 -41 -2 -47 -26 -60 -53 -27 -63 -64
-60 -213 1 -73 5 -138 8 -142 7 -12 34 16 34 35 0 9 9 16 20 16 12 0 32 12 46
27 26 29 26 28 5 116 -8 35 -8 37 11 31 42 -13 54 -11 92 17 22 16 46 29 53
29 39 0 42 112 6 179 -13 24 -21 46 -18 49 3 3 24 -4 46 -16 52 -28 84 -28
113 1 18 18 29 21 51 16 62 -17 99 50 55 101 l-20 23 33 16 c41 20 58 56 50
101 -7 40 -43 110 -57 110 -5 0 -17 7 -27 16 -24 22 -94 28 -109 9z m60 -135
c-18 -11 -24 -6 -16 16 5 14 9 15 19 5 9 -9 9 -14 -3 -21z"/>
<path d="M3017 4352 c-24 -27 -21 -53 11 -88 26 -29 30 -56 11 -80 -18 -23 9
-64 56 -85 48 -21 61 -34 45 -44 -5 -3 -10 -21 -10 -39 0 -28 5 -36 29 -46 26
-10 35 -8 86 21 l58 32 -7 75 c-3 42 -8 78 -11 80 -3 3 -26 6 -52 7 -78 4 -76
3 -69 29 9 35 -5 65 -53 114 -45 46 -69 52 -94 24z"/>
<path d="M3267 3952 c-33 -34 -34 -66 -5 -86 40 -28 48 -21 48 43 0 33 -4 62
-8 65 -5 3 -21 -7 -35 -22z"/>
<path d="M2636 3439 c-22 -17 -26 -28 -26 -70 0 -65 32 -100 108 -118 47 -12
56 -11 89 6 43 23 50 41 32 84 -15 38 -119 119 -152 119 -13 0 -36 -9 -51 -21z"/>
<path d="M10740 3433 c-26 -10 -60 -46 -60 -65 0 -10 -4 -18 -10 -18 -16 0
-12 -43 7 -70 25 -37 41 -46 100 -60 79 -19 129 -2 143 48 16 61 -11 132 -60
157 -28 15 -90 19 -120 8z m83 -101 c22 -24 12 -33 -24 -20 -29 10 -35 19 -22
31 11 12 29 8 46 -11z"/>
<path d="M4167 3248 c-42 -5 -64 -14 -77 -30 -11 -13 -19 -27 -20 -31 0 -5 -9
-20 -20 -34 -24 -31 -26 -90 -5 -120 20 -28 63 -42 124 -38 45 2 51 0 51 -17
0 -29 30 -75 56 -87 48 -22 93 -23 143 -5 47 17 51 17 69 1 10 -9 23 -17 28
-17 6 0 10 -16 10 -35 0 -42 -7 -43 -50 -10 -39 30 -65 32 -93 6 -34 -32 -20
-62 54 -111 55 -36 70 -41 100 -37 42 7 65 33 57 66 -4 19 -2 22 11 17 9 -3
27 -6 40 -6 l24 0 -24 -25 c-28 -27 -29 -33 -16 -69 12 -29 55 -38 89 -18 21
14 22 13 22 -19 1 -67 29 -83 186 -104 129 -17 141 -20 314 -63 125 -31 178
-29 212 8 19 20 53 17 62 -6 3 -7 -3 -18 -13 -24 -25 -13 -34 -55 -19 -80 17
-26 149 -89 204 -97 58 -8 100 10 107 45 3 16 0 33 -8 42 -14 16 -10 60 5 60
5 0 11 8 14 18 3 10 22 35 41 55 44 46 48 98 11 122 -13 9 -31 13 -42 9 -23
-8 -64 -44 -64 -56 0 -5 -16 -31 -35 -59 -19 -28 -35 -56 -35 -63 0 -6 -11 8
-25 32 -19 34 -22 48 -15 68 15 39 12 50 -20 82 -52 52 -130 51 -144 -2 -4
-17 -14 -25 -36 -28 -27 -4 -30 -2 -28 22 5 63 -53 99 -126 79 -48 -13 -69
-45 -57 -86 10 -34 5 -35 -45 -11 -19 9 -21 14 -13 44 13 45 -10 101 -46 110
-56 14 -117 10 -167 -11 -14 -5 -18 -2 -18 15 0 36 -18 58 -68 80 -37 17 -160
41 -192 38 -28 -2 -35 5 -34 34 1 18 -4 41 -10 50 -10 17 -62 33 -99 30 -10 0
-21 6 -24 14 -11 30 -45 32 -106 7 -33 -13 -61 -22 -64 -20 -2 3 1 23 6 45 14
51 2 85 -36 101 -28 11 -55 9 -131 -15 -19 -5 -21 -3 -16 12 4 11 13 26 20 34
22 27 53 89 46 93 -4 2 -33 0 -65 -5z m743 -598 c0 -5 -5 -10 -11 -10 -5 0 -7
5 -4 10 3 6 8 10 11 10 2 0 4 -4 4 -10z m784 -265 c3 -8 1 -15 -4 -15 -6 0
-10 7 -10 15 0 8 2 15 4 15 2 0 6 -7 10 -15z"/>
<path d="M9166 3207 c-16 -5 -29 -21 -36 -41 -9 -27 -16 -33 -37 -33 -15 0
-29 -6 -31 -12 -2 -6 -10 -11 -18 -11 -8 0 -15 -8 -15 -17 -1 -10 -3 -34 -4
-54 -1 -20 -11 -46 -21 -58 -34 -39 -80 -85 -117 -118 -38 -32 -45 -59 -27
-94 12 -22 74 -27 87 -6 4 7 29 29 55 49 44 33 128 132 128 150 0 14 21 9 46
-11 28 -22 57 -20 85 5 25 23 24 37 -7 89 -20 35 -23 48 -15 64 14 25 40 18
77 -20 34 -36 69 -37 114 -4 19 14 39 25 46 25 13 0 74 57 74 68 0 4 -5 14
-10 22 -8 12 -39 15 -180 15 -93 0 -181 -4 -194 -8z"/>
<path d="M9575 3185 c12 -9 35 -15 55 -13 55 5 41 23 -20 26 -51 2 -54 1 -35
-13z"/>
<path d="M5975 2557 c-11 -12 -26 -33 -32 -47 -7 -14 -21 -45 -33 -70 -12 -25
-28 -56 -35 -70 -8 -14 -15 -32 -15 -41 0 -8 -13 -25 -30 -37 -31 -23 -40 -61
-21 -91 22 -35 111 -3 111 40 0 20 104 226 125 248 12 12 13 6 8 -42 l-6 -57
30 0 c26 0 31 5 41 39 25 80 3 135 -57 145 -56 9 -65 7 -86 -17z"/>
<path d="M3925 2544 c-8 -9 -22 -29 -31 -45 -14 -27 -16 -28 -31 -14 -17 18
-62 13 -76 -8 -7 -11 -5 -43 4 -76 3 -9 -13 -19 -46 -30 -60 -19 -84 -54 -58
-83 9 -10 29 -18 45 -18 24 0 28 -4 28 -29 0 -32 22 -61 46 -61 22 0 54 38 54
65 0 33 15 32 29 -2 17 -39 57 -83 76 -83 29 0 55 20 55 43 0 25 -33 80 -42
71 -8 -8 -30 34 -24 45 3 4 29 11 58 14 40 5 59 13 76 32 28 33 28 41 -3 61
-19 12 -36 15 -70 10 -49 -8 -58 3 -30 40 21 27 18 51 -7 68 -28 20 -33 20
-53 0z"/>
<path d="M3200 2476 c0 -2 7 -6 15 -10 8 -3 15 -1 15 4 0 6 -7 10 -15 10 -8 0
-15 -2 -15 -4z"/>
<path d="M9477 2368 c-18 -18 -39 -33 -47 -33 -8 -1 -23 -2 -32 -3 -12 -1 -19
-15 -23 -46 l-7 -44 -61 -7 c-34 -3 -70 -13 -79 -22 -16 -14 -16 -18 -2 -44
10 -20 23 -29 42 -30 21 -1 23 -3 6 -6 -12 -2 -27 -16 -33 -30 -10 -21 -9 -29
5 -44 26 -29 73 -24 116 11 l37 30 3 -32 c3 -30 6 -33 38 -33 l35 0 3 61 3 62
74 4 c92 4 115 20 93 64 -12 26 -19 29 -77 34 l-64 5 37 43 c42 51 42 53 18
75 -27 25 -50 21 -85 -15z"/>
<path d="M5162 1645 c-12 -15 -22 -33 -23 -39 0 -6 -3 -24 -5 -40 -4 -24 3
-36 41 -72 50 -48 90 -57 117 -26 30 33 49 84 46 120 -4 43 -39 68 -110 78
-41 6 -47 4 -66 -21z"/>
<path d="M7631 1651 c-21 -21 -36 -89 -26 -120 3 -11 20 -27 37 -36 37 -18
149 -20 166 -3 7 7 12 36 12 65 0 53 -1 54 -47 83 -56 36 -113 40 -142 11z"/>
<path d="M10857 12096 c15 -13 30 -23 32 -20 5 4 -41 43 -52 44 -4 0 5 -11 20
-24z"/>
<path d="M12818 9647 c31 -69 58 -121 60 -117 4 11 -47 141 -74 187 -48 83
-42 51 14 -70z"/>
<path d="M13231 8548 c-1 -11 51 -212 57 -218 11 -11 -11 94 -33 157 -13 38
-24 65 -24 61z"/>
<path d="M13396 7760 c14 -98 24 -128 18 -56 -3 38 -9 77 -14 85 -7 11 -8 1
-4 -29z"/>
<path d="M13422 7590 c0 -19 2 -27 5 -17 2 9 2 25 0 35 -3 9 -5 1 -5 -18z"/>
<path d="M13432 7510 c0 -14 2 -19 5 -12 2 6 2 18 0 25 -3 6 -5 1 -5 -13z"/>
<path d="M13472 6460 c0 -73 1 -79 9 -42 4 23 4 61 0 85 -8 36 -9 30 -9 -43z"/>
<path d="M13392 5630 c0 -14 2 -19 5 -12 2 6 2 18 0 25 -3 6 -5 1 -5 -13z"/>
<path d="M13382 5570 c0 -14 2 -19 5 -12 2 6 2 18 0 25 -3 6 -5 1 -5 -13z"/>
<path d="M13371 5514 c0 -11 3 -14 6 -6 3 7 2 16 -1 19 -3 4 -6 -2 -5 -13z"/>
<path d="M13050 4153 c-11 -36 -19 -68 -16 -70 5 -5 32 64 41 105 12 56 -3 35
-25 -35z"/>
<path d="M9390 430 c-19 -11 -29 -19 -22 -20 14 0 72 28 72 35 0 9 -15 4 -50
-15z"/>
<path d="M4305 275 c17 -8 37 -14 45 -14 8 0 -1 7 -20 14 -46 18 -64 17 -25 0z"/>
</g>
</svg>
