<?xml version="1.0" encoding="UTF-8"?>
<!-- Generated by Pixelmator Pro 3.3.9 -->
<svg width="116" height="109" viewBox="0 0 116 109" xmlns="http://www.w3.org/2000/svg">
<path id="path1" fill="currentColor" stroke="none"  d="M 16.799999 2.46666 C 14 3.53334 10.799999 5 10 5.666672 C 7.466667 7.800003 1.333334 21.26667 1.333334 24.73333 C 1.333334 28.199997 6 38.73333 8.799999 41.800003 C 10.533333 43.800003 10.533333 45 8 52.466667 C 4.4 63 0 85.133331 0 92.466667 C 0 97.533333 3.200001 106.733337 5.200001 107.266663 C 10.133333 108.466667 16.799999 108.866669 32.400002 108.733337 C 57.066666 108.733337 56.666664 109.133331 55.599998 88.333328 C 54.800003 72.199997 52.666664 62.466667 47.866669 52.199997 L 45.066666 46.066666 L 47.73333 40.866669 C 51.066666 34.466667 52.666664 24.599998 51.466667 18.333336 C 50.26667 11.933334 42.133335 3.666672 35.333332 1.800003 C 28.400002 -0.066666 23.200001 0.066666 16.799999 2.46666 Z"/>
<path id="path2" fill="currentColor" stroke="none"  d="M 62 1.399994 C 60.666664 1.666672 58.133331 2.866669 56.400002 3.933334 C 53.466667 5.933334 53.466667 6.066666 55.599998 10.066666 C 59.333336 17 58.800003 31.26667 54.26667 40.866669 L 50.666664 48.73333 L 53.333336 53 C 54.800003 55.400002 56.800003 62.73333 58 70.466667 C 61.333336 92.733337 61.73333 94.333328 63.199997 95.266663 C 65.599998 96.866669 74.26667 96.466667 84.26667 94.199997 L 93.599998 92.066666 L 93.066666 79.133331 C 92.26667 64.199997 88.400002 50.73333 83.199997 45.26667 L 79.73333 41.533333 L 82.400002 38.599998 C 87.199997 33.26667 88.26667 29.933334 87.199997 22.199997 C 85.73333 10.466667 80 4.199997 68.800003 1.666672 C 66.533333 1.266663 63.466667 1.133331 62 1.399994 Z"/>
<path id="path3" fill="currentColor" stroke="none"  d="M 91.599998 3.933334 C 86.933334 4.733337 85.599998 7.666664 88.666664 11 C 92.26667 14.866669 92.800003 25.800003 90 35 C 87.73333 42.466667 87.73333 43.133331 90 49.26667 C 91.199997 52.73333 93.73333 61.400002 95.599998 68.333336 C 97.466667 75.266663 99.199997 81.266663 99.466667 81.533333 C 99.73333 81.800003 103.199997 81.533333 107.199997 81.133331 C 114.399994 80.199997 114.666672 80.066666 115.46666 75.400002 C 116.666672 68.73333 113.866669 54.599998 109.333328 44.333336 C 106.133331 37.133331 105.73333 35.400002 107.199997 33.666664 C 110.666672 29.666664 112.266663 22.199997 110.666672 16.466667 C 109.46666 11.666664 102.933334 4.333328 100 4.333328 C 99.333336 4.333328 98.133331 4.066666 97.066666 3.933334 C 96.133331 3.666672 93.599998 3.666672 91.599998 3.933334 Z"/>
</svg>
