<?xml version="1.0" encoding="UTF-8"?>
<!-- Generated by Pixelmator Pro 3.3.9 -->
<svg width="120" height="120" viewBox="0 0 120 120" xmlns="http://www.w3.org/2000/svg">
    <g id="g1">
        <path id="path1" fill="none" stroke="currentColor" stroke-width="8" d="M 18.799999 8.46666 C 16 9.53334 12.799999 11 12 11.666672 C 9.466667 13.800003 3.333334 27.26667 3.333334 30.73333 C 3.333334 34.199997 8 44.73333 10.799999 47.800003 C 12.533333 49.800003 12.533333 51 10 58.466667 C 6.4 69 2 91.133331 2 98.466667 C 2 103.533333 5.200001 112.733337 7.200001 113.266663 C 12.133333 114.466667 18.799999 114.866669 34.400002 114.733337 C 59.066666 114.733337 58.666664 115.133331 57.599998 94.333328 C 56.800003 78.199997 54.666664 68.466667 49.866669 58.199997 L 47.066666 52.066666 L 49.73333 46.866669 C 53.066666 40.466667 54.666664 30.599998 53.466667 24.333336 C 52.26667 17.933334 44.133335 9.666672 37.333332 7.800003 C 30.400002 5.933334 25.200001 6.066666 18.799999 8.46666 Z"/>
        <path id="path2" fill="none" stroke="currentColor" stroke-width="8" d="M 64 7.399994 C 62.666664 7.666672 60.133331 8.866669 58.400002 9.933334 C 55.466667 11.933334 55.466667 12.066666 57.599998 16.066666 C 61.333336 23 60.800003 37.26667 56.26667 46.866669 L 52.666664 54.73333 L 55.333336 59 C 56.800003 61.400002 58.800003 68.73333 60 76.466667 C 63.333336 98.733337 63.73333 100.333328 65.199997 101.266663 C 67.599998 102.866669 76.26667 102.466667 86.26667 100.199997 L 95.599998 98.066666 L 95.066666 85.133331 C 94.26667 70.199997 90.400002 56.73333 85.199997 51.26667 L 81.73333 47.533333 L 84.400002 44.599998 C 89.199997 39.26667 90.26667 35.933334 89.199997 28.199997 C 87.73333 16.466667 82 10.199997 70.800003 7.666672 C 68.533333 7.266663 65.466667 7.133331 64 7.399994 Z"/>
        <path id="path3" fill="none" stroke="currentColor" stroke-width="8" d="M 93.599998 9.933334 C 88.933334 10.733337 87.599998 13.666664 90.666664 17 C 94.26667 20.866669 94.800003 31.800003 92 41 C 89.73333 48.466667 89.73333 49.133331 92 55.26667 C 93.199997 58.73333 95.73333 67.400002 97.599998 74.333336 C 99.466667 81.266663 101.199997 87.266663 101.466667 87.533333 C 101.73333 87.800003 105.199997 87.533333 109.199997 87.133331 C 116.399994 86.199997 116.666672 86.066666 117.46666 81.400002 C 118.666672 74.73333 115.866669 60.599998 111.333328 50.333336 C 108.133331 43.133331 107.73333 41.400002 109.199997 39.666664 C 112.666672 35.666664 114.266663 28.199997 112.666672 22.466667 C 111.46666 17.666664 104.933334 10.333328 102 10.333328 C 101.333336 10.333328 100.133331 10.066666 99.066666 9.933334 C 98.133331 9.666672 95.599998 9.666672 93.599998 9.933334 Z"/>
    </g>
</svg>
