<?xml version="1.0" encoding="UTF-8"?>
<!-- Generated by Pixelmator Pro 3.3.9 -->
<svg width="22" height="24" viewBox="0 0 22 24" fill="none" xmlns="http://www.w3.org/2000/svg">
  <path d="M2.04108 9.31171L2.04096 9.3118C2.13493 9.43565 2.23106 9.57981 2.29421 9.76012C2.3589 9.94483 2.37808 10.1351 2.36578 10.3435C2.34305 10.7287 2.20465 11.2494 1.97262 12.0304L1.97233 12.0314C1.64463 13.1265 1.27526 14.8452 0.987199 16.4937C0.697444 18.1519 0.5 19.6827 0.5 20.4156C0.5 20.8865 0.634824 21.5938 0.823386 22.2091C0.916705 22.5136 1.01692 22.7747 1.1086 22.9579C1.14446 23.0295 1.17468 23.0804 1.19754 23.1139C2.03436 23.3293 3.22745 23.411 6.04307 23.3835L6.04795 23.3834C6.13047 23.3835 6.2113 23.3835 6.29047 23.3835C7.32925 23.3838 8.08323 23.384 8.64723 23.3298C9.26438 23.2704 9.52564 23.1539 9.66071 23.0186C9.79104 22.888 9.89897 22.6436 9.93431 22.0547C9.96713 21.5079 9.93411 20.7764 9.88819 19.759C9.88521 19.6929 9.88217 19.6255 9.87908 19.5568L9.87905 19.5561C9.73127 16.1524 9.33947 14.1389 8.47231 12.0206L8.47074 12.0168L8.47076 12.0168L7.94809 10.7092L7.86938 10.5123L7.95625 10.3188L8.45402 9.21027L8.45521 9.20761C8.7417 8.57943 8.96145 7.76089 9.08103 6.93117C9.20091 6.09944 9.21464 5.29467 9.11391 4.69391L9.11363 4.69223C9.02195 4.13375 8.64699 3.43438 8.11356 2.81177C7.57945 2.18835 6.95722 1.72436 6.44718 1.56402C5.25715 1.19832 4.40954 1.2274 3.33413 1.6877C3.08463 1.7963 2.81714 1.92536 2.59649 2.04297C2.48582 2.10195 2.39102 2.15588 2.31813 2.20111C2.24966 2.24361 2.21919 2.26707 2.21261 2.27214L2.04108 9.31171ZM2.04108 9.31171L2.03319 9.30184C1.82473 9.04108 1.49911 8.38167 1.2164 7.64721C1.07926 7.29092 0.959613 6.93625 0.875057 6.63065C0.786838 6.31182 0.748887 6.08828 0.748887 5.97564C0.748887 5.87391 0.797844 5.62155 0.913845 5.23712C1.02349 4.87377 1.17623 4.44524 1.34494 4.02167C1.51371 3.59797 1.69523 3.18738 1.86081 2.85908C1.94373 2.69467 2.02001 2.55618 2.0863 2.44927C2.15433 2.33957 2.19671 2.28806 2.21138 2.27308L2.04108 9.31171ZM1.22444 23.1496C1.22862 23.1534 1.23067 23.1558 1.23066 23.156C1.23065 23.1563 1.22856 23.1544 1.22444 23.1496ZM10.3962 11.7659L10.3962 11.7659L10.3939 11.7618L10.0094 11.0591L10.5926 9.60357C11.0426 8.51419 11.2871 7.18234 11.3323 5.93695C11.3771 4.70233 11.2285 3.48019 10.8311 2.6366C10.7289 2.4177 10.6646 2.27742 10.6261 2.17251C10.6185 2.15186 10.6129 2.13486 10.6086 2.12111C10.649 2.08306 10.7134 2.03061 10.825 1.9436C10.9661 1.84515 11.1423 1.73839 11.3105 1.6502C11.4888 1.55675 11.6195 1.50467 11.6799 1.4898C11.7563 1.47499 11.9151 1.46599 12.1286 1.47587C12.3326 1.48532 12.5502 1.51021 12.7307 1.5457C13.6885 1.79537 14.3699 2.21402 14.8484 2.82094C15.3343 3.43724 15.6493 4.296 15.78 5.49L15.78 5.49L15.7806 5.49555C15.8775 6.29789 15.8692 6.8141 15.7558 7.24965C15.644 7.6793 15.4176 8.07755 14.989 8.6215C14.9888 8.6218 14.9886 8.62211 14.9883 8.62241L14.4921 9.24585L14.2415 9.56056L14.4953 9.87266L15.1424 10.6686L15.1424 10.6686L15.1462 10.6731C15.5587 11.1684 15.9595 12.0891 16.2746 13.3294C16.5854 14.5528 16.7991 16.0315 16.8725 17.5939C16.8726 17.5948 16.8726 17.5957 16.8727 17.5965L16.9575 19.9478L15.6042 20.3011C15.6039 20.3012 15.6036 20.3013 15.6033 20.3013C14.6944 20.5366 13.8568 20.6719 13.2031 20.7088C12.8754 20.7272 12.6064 20.7202 12.4039 20.6932C12.3031 20.6798 12.2267 20.6625 12.172 20.6448C12.1229 20.6289 12.1027 20.6164 12.1 20.6147L12.1 20.6146L12.0936 20.61C12.0906 20.6042 12.0858 20.5945 12.0797 20.5797C12.0457 20.4971 11.9987 20.3314 11.934 19.9832C11.8064 19.2961 11.6341 18.0404 11.3222 15.6605L11.3218 15.6582C11.2079 14.8193 11.0557 14.0004 10.8962 13.3227C10.7412 12.6639 10.5675 12.0861 10.3962 11.7659ZM17.2783 11.0608L17.2784 11.0608L17.2755 11.0519C17.0601 10.3861 16.9825 10.098 16.9825 9.79166C16.9825 9.47228 17.0666 9.10699 17.283 8.29276C17.5578 7.26169 17.6687 6.13742 17.6228 5.15632C17.5998 4.66518 17.5371 4.19927 17.4305 3.79247C17.3257 3.39279 17.17 3.01644 16.9394 2.73303C16.7106 2.44856 16.7392 2.30048 16.7517 2.26699C16.7654 2.23043 16.8438 2.10285 17.1844 2.03398C17.341 2.0108 17.5226 1.99864 17.6834 1.99864C17.7651 1.99864 17.8359 2.00179 17.8911 2.00705C17.9438 2.01206 17.9656 2.01749 17.9657 2.01727C17.9657 2.01723 17.9651 2.01702 17.9638 2.01661L18.0052 2.0301L18.0482 2.03625C18.1127 2.04545 18.1777 2.0577 18.2516 2.07162C18.2766 2.07634 18.3027 2.08125 18.3301 2.0863C18.4114 2.10127 18.5316 2.1231 18.6411 2.12618C18.6471 2.12855 18.6565 2.13267 18.6696 2.13948C18.714 2.16252 18.7771 2.20429 18.8567 2.27073C19.0158 2.40344 19.2019 2.60176 19.3879 2.8421C19.7679 3.33327 20.0796 3.91138 20.1691 4.32015L20.169 4.32018L20.1718 4.33192C20.3016 4.86305 20.3048 5.49466 20.1966 6.09672C20.0876 6.70245 19.8742 7.23245 19.6121 7.57782L19.6121 7.5778L19.6087 7.58242C19.5073 7.71931 19.4227 7.87846 19.3829 8.07716C19.3444 8.26923 19.3544 8.46514 19.3907 8.66808C19.46 9.05551 19.6483 9.57889 19.9425 10.335C20.3519 11.3938 20.6861 12.6615 20.8898 13.8387C21.0958 15.0292 21.1585 16.0719 21.0596 16.6993L21.0591 16.7029C21.0205 16.9602 20.9944 17.107 20.9623 17.2073C20.9479 17.2521 20.9365 17.2733 20.9309 17.2822C20.9267 17.2888 20.9246 17.2908 20.9212 17.2935C20.9078 17.304 20.8561 17.3369 20.6829 17.3777C20.513 17.4177 20.2831 17.4536 19.9455 17.5036C19.5771 17.5456 19.2411 17.5797 18.9934 17.5965C18.9739 17.5978 18.9553 17.599 18.9374 17.6001C18.9002 17.4647 18.8546 17.2912 18.8025 17.0869C18.6728 16.5792 18.5056 15.8931 18.3318 15.1559C17.983 13.6765 17.5072 11.8159 17.2783 11.0608ZM19.0181 17.8728C19.0182 17.8731 19.0182 17.8731 19.018 17.8727L19.0181 17.8728Z" />
  <path d="M2.04108 9.31171L2.04096 9.3118C2.13493 9.43565 2.23106 9.57981 2.29421 9.76012C2.3589 9.94483 2.37808 10.1351 2.36578 10.3435C2.34305 10.7287 2.20465 11.2494 1.97262 12.0304L1.97233 12.0314C1.64463 13.1265 1.27526 14.8452 0.987199 16.4937C0.697444 18.1519 0.5 19.6827 0.5 20.4156C0.5 20.8865 0.634824 21.5938 0.823386 22.2091C0.916705 22.5136 1.01692 22.7747 1.1086 22.9579C1.14446 23.0295 1.17468 23.0804 1.19754 23.1139C2.03436 23.3293 3.22745 23.411 6.04307 23.3835L6.04795 23.3834C6.13047 23.3835 6.2113 23.3835 6.29047 23.3835C7.32925 23.3838 8.08323 23.384 8.64723 23.3298C9.26438 23.2704 9.52564 23.1539 9.66071 23.0186C9.79104 22.888 9.89897 22.6436 9.93431 22.0547C9.96713 21.5079 9.93411 20.7764 9.88819 19.759C9.88521 19.6929 9.88217 19.6255 9.87908 19.5568L9.87905 19.5561C9.73127 16.1524 9.33947 14.1389 8.47231 12.0206L8.47074 12.0168L8.47076 12.0168L7.94809 10.7092L7.86938 10.5123L7.95625 10.3188L8.45402 9.21027L8.45521 9.20761C8.7417 8.57943 8.96145 7.76089 9.08103 6.93117C9.20091 6.09944 9.21464 5.29467 9.11391 4.69391L9.11363 4.69223C9.02195 4.13375 8.64699 3.43438 8.11356 2.81177C7.57945 2.18835 6.95722 1.72436 6.44718 1.56402C5.25715 1.19832 4.40954 1.2274 3.33413 1.6877C3.08463 1.7963 2.81714 1.92536 2.59649 2.04297C2.48582 2.10195 2.39102 2.15588 2.31813 2.20111C2.24966 2.24361 2.21919 2.26707 2.21261 2.27214L2.04108 9.31171ZM2.04108 9.31171L2.03319 9.30184C1.82473 9.04108 1.49911 8.38167 1.2164 7.64721C1.07926 7.29092 0.959613 6.93625 0.875057 6.63065C0.786838 6.31182 0.748887 6.08828 0.748887 5.97564C0.748887 5.87391 0.797844 5.62155 0.913845 5.23712C1.02349 4.87377 1.17623 4.44524 1.34494 4.02167C1.51371 3.59797 1.69523 3.18738 1.86081 2.85908C1.94373 2.69467 2.02001 2.55618 2.0863 2.44927C2.15433 2.33957 2.19671 2.28806 2.21138 2.27308L2.04108 9.31171ZM1.22444 23.1496C1.22862 23.1534 1.23067 23.1558 1.23066 23.156C1.23065 23.1563 1.22856 23.1544 1.22444 23.1496ZM10.3962 11.7659L10.3962 11.7659L10.3939 11.7618L10.0094 11.0591L10.5926 9.60357C11.0426 8.51419 11.2871 7.18234 11.3323 5.93695C11.3771 4.70233 11.2285 3.48019 10.8311 2.6366C10.7289 2.4177 10.6646 2.27742 10.6261 2.17251C10.6185 2.15186 10.6129 2.13486 10.6086 2.12111C10.649 2.08306 10.7134 2.03061 10.825 1.9436C10.9661 1.84515 11.1423 1.73839 11.3105 1.6502C11.4888 1.55675 11.6195 1.50467 11.6799 1.4898C11.7563 1.47499 11.9151 1.46599 12.1286 1.47587C12.3326 1.48532 12.5502 1.51021 12.7307 1.5457C13.6885 1.79537 14.3699 2.21402 14.8484 2.82094C15.3343 3.43724 15.6493 4.296 15.78 5.49L15.78 5.49L15.7806 5.49555C15.8775 6.29789 15.8692 6.8141 15.7558 7.24965C15.644 7.6793 15.4176 8.07755 14.989 8.6215C14.9888 8.6218 14.9886 8.62211 14.9883 8.62241L14.4921 9.24585L14.2415 9.56056L14.4953 9.87266L15.1424 10.6686L15.1424 10.6686L15.1462 10.6731C15.5587 11.1684 15.9595 12.0891 16.2746 13.3294C16.5854 14.5528 16.7991 16.0315 16.8725 17.5939C16.8726 17.5948 16.8726 17.5957 16.8727 17.5965L16.9575 19.9478L15.6042 20.3011C15.6039 20.3012 15.6036 20.3013 15.6033 20.3013C14.6944 20.5366 13.8568 20.6719 13.2031 20.7088C12.8754 20.7272 12.6064 20.7202 12.4039 20.6932C12.3031 20.6798 12.2267 20.6625 12.172 20.6448C12.1229 20.6289 12.1027 20.6164 12.1 20.6147L12.1 20.6146L12.0936 20.61C12.0906 20.6042 12.0858 20.5945 12.0797 20.5797C12.0457 20.4971 11.9987 20.3314 11.934 19.9832C11.8064 19.2961 11.6341 18.0404 11.3222 15.6605L11.3218 15.6582C11.2079 14.8193 11.0557 14.0004 10.8962 13.3227C10.7412 12.6639 10.5675 12.0861 10.3962 11.7659ZM17.2783 11.0608L17.2784 11.0608L17.2755 11.0519C17.0601 10.3861 16.9825 10.098 16.9825 9.79166C16.9825 9.47228 17.0666 9.10699 17.283 8.29276C17.5578 7.26169 17.6687 6.13742 17.6228 5.15632C17.5998 4.66518 17.5371 4.19927 17.4305 3.79247C17.3257 3.39279 17.17 3.01644 16.9394 2.73303C16.7106 2.44856 16.7392 2.30048 16.7517 2.26699C16.7654 2.23043 16.8438 2.10285 17.1844 2.03398C17.341 2.0108 17.5226 1.99864 17.6834 1.99864C17.7651 1.99864 17.8359 2.00179 17.8911 2.00705C17.9438 2.01206 17.9656 2.01749 17.9657 2.01727C17.9657 2.01723 17.9651 2.01702 17.9638 2.01661L18.0052 2.0301L18.0482 2.03625C18.1127 2.04545 18.1777 2.0577 18.2516 2.07162C18.2766 2.07634 18.3027 2.08125 18.3301 2.0863C18.4114 2.10127 18.5316 2.1231 18.6411 2.12618C18.6471 2.12855 18.6565 2.13267 18.6696 2.13948C18.714 2.16252 18.7771 2.20429 18.8567 2.27073C19.0158 2.40344 19.2019 2.60176 19.3879 2.8421C19.7679 3.33327 20.0796 3.91138 20.1691 4.32015L20.169 4.32018L20.1718 4.33192C20.3016 4.86305 20.3048 5.49466 20.1966 6.09672C20.0876 6.70245 19.8742 7.23245 19.6121 7.57782L19.6121 7.5778L19.6087 7.58242C19.5073 7.71931 19.4227 7.87846 19.3829 8.07716C19.3444 8.26923 19.3544 8.46514 19.3907 8.66808C19.46 9.05551 19.6483 9.57889 19.9425 10.335C20.3519 11.3938 20.6861 12.6615 20.8898 13.8387C21.0958 15.0292 21.1585 16.0719 21.0596 16.6993L21.0591 16.7029C21.0205 16.9602 20.9944 17.107 20.9623 17.2073C20.9479 17.2521 20.9365 17.2733 20.9309 17.2822C20.9267 17.2888 20.9246 17.2908 20.9212 17.2935C20.9078 17.304 20.8561 17.3369 20.6829 17.3777C20.513 17.4177 20.2831 17.4536 19.9455 17.5036C19.5771 17.5456 19.2411 17.5797 18.9934 17.5965C18.9739 17.5978 18.9553 17.599 18.9374 17.6001C18.9002 17.4647 18.8546 17.2912 18.8025 17.0869C18.6728 16.5792 18.5056 15.8931 18.3318 15.1559C17.983 13.6765 17.5072 11.8159 17.2783 11.0608ZM19.0181 17.8728C19.0182 17.8731 19.0182 17.8731 19.018 17.8727L19.0181 17.8728Z" />
</svg>
