<?xml version="1.0" encoding="UTF-8"?>
<!-- Generated by Pixelmator Pro 3.3.9 -->
<svg width="77" height="91" viewBox="0 0 77 91" xmlns="http://www.w3.org/2000/svg">
    <path id="-" fill="currentColor" stroke="none" stroke-width="0.5" d="M 2.416016 54.1875 C 2.416016 74.060547 18.529297 90.222656 38.402344 90.222656 C 58.275391 90.222656 74.388672 74.060547 74.388672 54.1875 C 74.388672 49.890625 71.410156 47.009766 67.308594 47.009766 C 63.255859 47.009766 60.326172 49.890625 60.326172 54.1875 C 60.326172 66.248047 50.511719 76.0625 38.402344 76.0625 C 26.292969 76.0625 16.576172 66.248047 16.576172 54.1875 C 16.576172 41.492188 25.707031 31.873047 37.71875 31.873047 C 38.207031 31.873047 38.695313 31.873047 39.183594 31.873047 L 33.763672 37.195313 C 32.640381 38.318359 31.859375 39.587891 31.859375 41.541016 C 31.859375 45.300781 34.886719 48.328125 38.646484 48.328125 C 40.452881 48.328125 42.015381 47.693359 43.236084 46.472656 L 58.714844 30.652344 C 60.179688 29.1875 60.912109 27.527344 60.912109 25.574219 C 60.912109 23.71875 60.179688 21.960938 58.714844 20.544922 L 43.236084 4.724609 C 41.966797 3.40625 40.452881 2.771484 38.646484 2.771484 C 34.886719 2.771484 31.859375 5.847656 31.859375 9.65625 C 31.859375 11.609375 32.640381 12.878906 33.763672 14.001953 L 38.5 18.591797 C 38.255859 18.591797 37.962891 18.591797 37.71875 18.591797 C 17.943359 18.591797 2.416016 34.265625 2.416016 54.1875 Z"/>
</svg>
