<?xml version="1.0" encoding="UTF-8"?>
<!-- Generated by Pixelmator Pro 3.3.9 -->
<svg width="69" height="86" viewBox="0 0 69 86" xmlns="http://www.w3.org/2000/svg">
    <path id="-" fill="none" stroke="#000000" stroke-width="0.5" d="M 1.172913 51.169434 C 1.172913 69.388184 15.499084 83.759766 33.710999 83.759766 C 51.922974 83.759766 66.249084 69.388184 66.249084 51.169434 C 66.249084 50.477539 65.783325 50.053711 65.130005 50.053711 C 64.441528 50.053711 64.031311 50.477539 64.031311 51.169434 C 64.031311 68.206543 50.69928 81.538574 33.710999 81.538574 C 16.680786 81.538574 3.390747 68.206543 3.390747 51.169434 C 3.390747 34.271973 16.680786 21.030762 33.710999 21.030762 C 38.251526 21.030762 42.859009 21.631348 46.135803 22.570313 L 29.748108 39.220215 C 29.473206 39.495117 29.358521 39.738281 29.358521 40.117676 C 29.358521 40.666504 29.827698 41.181152 30.509399 41.181152 C 30.857117 41.181152 31.096802 41.066406 31.274109 40.840332 L 48.523621 23.140137 C 49.161682 22.456543 49.318481 22.125977 49.318481 21.827148 C 49.318481 21.444336 49.112915 21.061523 48.523621 20.472168 L 31.319519 2.758301 C 31.142212 2.574219 30.944519 2.456055 30.460571 2.456055 C 29.782288 2.456055 29.358521 2.932129 29.358521 3.480957 C 29.358521 3.86377 29.473206 4.152344 29.74469 4.427246 L 45.264709 20.254883 C 42.417114 19.504395 38.200317 18.858398 33.710999 18.858398 C 15.499084 18.858398 1.172913 33.044922 1.172913 51.169434 Z"/>
</svg>
