<?xml version="1.0" encoding="UTF-8"?>
<!-- Generated by Pixelmator Pro 3.3.9 -->
<svg width="72" height="87" viewBox="0 0 72 87" xmlns="http://www.w3.org/2000/svg">
    <path id="-" fill="none" stroke="#000000" stroke-width="0.5" d="M 1.765991 51.578125 C 1.765991 70.523438 17.000244 85.757813 35.848022 85.757813 C 54.695557 85.757813 69.930054 70.523438 69.930054 51.578125 C 69.930054 49.478516 68.46521 47.964844 66.267944 47.964844 C 64.217041 47.964844 62.898804 49.478516 62.898804 51.578125 C 62.898804 66.617188 50.838257 78.677734 35.848022 78.677734 C 20.906616 78.677734 8.797241 66.617188 8.797241 51.578125 C 8.797241 36.587891 20.906616 24.527344 35.848022 24.527344 C 38.435913 24.527344 40.682007 24.673828 42.732666 25.113281 L 32.430054 35.269531 C 31.746338 35.953125 31.404541 36.832031 31.404541 37.710938 C 31.404541 39.712891 32.918335 41.226563 34.871338 41.226563 C 35.945557 41.226563 36.775757 40.884766 37.361572 40.25 L 52.84021 24.820313 C 53.523804 24.136719 53.81665 23.306641 53.81665 22.28125 C 53.81665 21.353516 53.474854 20.425781 52.84021 19.791016 L 37.361572 4.166016 C 36.775757 3.482422 35.896851 3.091797 34.822632 3.091797 C 32.918335 3.091797 31.404541 4.703125 31.404541 6.705078 C 31.404541 7.632813 31.746338 8.511719 32.381226 9.195313 L 41.31665 17.984375 C 39.558838 17.642578 37.703369 17.496094 35.848022 17.496094 C 17.000244 17.496094 1.765991 32.681641 1.765991 51.578125 Z"/>
</svg>
