<?xml version="1.0" encoding="UTF-8"?>
<!-- Generated by Pixelmator Pro 3.3.9 -->
<svg width="18" height="17" viewBox="0 0 18 17" xmlns="http://www.w3.org/2000/svg">
    <path id="path1" fill="currentColor" stroke="none" d="M 6.18772 0.950001 C 6.11272 1.4375 5.96272 2.375 5.92522 3.0875 C 5.81272 4.25 5.58772 4.475 3.18772 5.75 C 1.76272 6.5375 0.52522 7.3625 0.45022 7.6625 C 0.41272 8 1.42522 8.675 3.18772 9.4625 L 6.00022 10.7 L 6.00022 12.387501 C 6.00022 14.299999 6.93772 16.625 7.7252 16.625 C 8.0252 16.625 8.2502 16.512501 8.2502 16.325001 C 8.2877 16.174999 9.0002 15.237499 9.9002 14.225 L 11.4752 12.424999 L 13.0877 13.2125 C 13.950199 13.6625 15.037701 14 15.4877 13.924999 C 16.200199 13.8125 16.3127 13.625 16.200199 12.3125 C 16.1252 11.4875 15.9002 10.25 15.7127 9.6125 C 15.3752 8.5625 15.450199 8.15 16.350201 6.575 C 17.887699 3.799999 17.5502 3.424999 13.950199 3.725 L 10.9877 3.987499 L 9.1502 2.0375 C 7.1627 -0.0625 6.48772 -0.325001 6.18772 0.950001 Z M 9.0377 3.725 C 10.3127 5.0375 10.3502 5.075 13.0502 4.925 C 14.512699 4.85 15.7502 4.85 15.7502 4.925 C 15.7502 4.9625 15.412701 5.7125 14.9627 6.575 C 14.4002 7.625 14.2502 8.45 14.4002 9.275 C 14.5502 9.9125 14.7377 10.8875 14.887699 11.45 C 15.1127 12.65 14.6252 12.799999 13.1252 11.9375 C 11.4752 11 10.6502 11.225 9.3377 13.0625 C 8.6627 14 7.9877 14.75 7.8377 14.75 C 7.5377 14.75 7.2377 13.362499 7.0502 11.1875 C 6.93772 10.25 6.60022 9.875 4.80022 8.9375 C 3.60022 8.3 2.62522 7.7 2.62522 7.5875 C 2.62522 7.475 3.63772 6.9125 4.87522 6.3125 C 7.0502 5.2625 7.1252 5.1875 7.1252 3.799999 C 7.1252 3.012501 7.2752 2.375 7.4252 2.375 C 7.5752 2.375 8.3252 2.975 9.0377 3.725 Z"/>
</svg>
