<svg width="24" height="24" viewBox="0 0 24 24" fill="none" xmlns="http://www.w3.org/2000/svg">
  <path d="M13.7626 6.90007C10.1251 12.7126 9.9376 12.9001 9.3751 10.9126C9.1126 9.97507 8.7376 9.37507 8.4001 9.37507C8.0626 9.37507 6.9376 10.2001 5.8876 11.2126L3.9751 13.0501L7.3126 16.3126C9.1501 18.1126 10.7251 19.4251 10.8001 19.1626C10.8751 18.9376 11.1751 18.7501 11.4376 18.7501C11.7001 18.7501 12.7501 17.6251 13.7251 16.2376C16.3876 12.4126 20.3626 7.01257 20.8876 6.45007C21.1501 6.18757 21.3751 5.73757 21.3751 5.47507C21.3751 5.06257 17.4751 2.25007 16.9126 2.25007C16.7626 2.25007 15.3751 4.35007 13.7626 6.90007Z" fill="white"/>
</svg>
