<svg width="24" height="24" viewBox="0 0 24 24" fill="none" xmlns="http://www.w3.org/2000/svg">
  <path d="M10.7098 4.70995C10.5898 4.79995 10.4998 5.12995 10.4998 5.42995C10.4998 6.05995 8.33976 6.89995 8.15976 6.32995C8.09976 6.14995 7.79976 5.87995 7.52976 5.69995C7.10976 5.48995 6.77976 5.63995 6.02976 6.41995L5.03976 7.43995L5.69976 8.03995C6.26976 8.54995 6.32976 8.78995 6.05976 9.50995C5.81976 10.2 5.63976 10.3499 4.85976 10.29C4.01976 10.2 3.95976 10.29 3.80976 11.34C3.62976 12.78 3.71976 12.9 4.97976 12.9C5.81976 12.9 5.99976 13.02 5.99976 13.53C5.99976 13.86 6.14976 14.4 6.29976 14.7C6.53976 15.15 6.47976 15.33 5.99976 15.6C5.21976 16.02 5.24976 16.44 6.02976 17.31C6.68976 17.97 6.68976 17.97 7.49976 17.4C8.27976 16.83 8.30976 16.83 9.53976 17.46C10.3498 17.85 10.7998 18.27 10.7998 18.63C10.7998 19.11 11.0098 19.2 12.1198 19.2C13.3498 19.2 13.4698 19.14 13.5598 18.42C13.6798 17.37 15.3598 16.59 16.0498 17.28C16.6198 17.88 17.5198 17.58 18.1498 16.59C18.6598 15.84 18.6298 15.81 17.9098 15.18C17.2198 14.58 17.1898 14.49 17.5798 13.71C17.8798 13.17 18.2698 12.9 18.7498 12.9C19.2298 12.9 19.4998 12.72 19.4998 12.45C19.4998 12.21 19.6498 12 19.7998 12C19.9798 12 20.0998 11.73 20.0998 11.43C20.0998 10.83 19.5598 10.5 18.5698 10.5C18.2098 10.5 17.8498 10.11 17.5498 9.38995C17.1298 8.42995 17.1298 8.24995 17.5498 7.79995C17.9398 7.34995 17.9098 7.22995 17.0698 6.41995L16.1398 5.54995L15.6898 6.17995C15.3298 6.74995 15.1498 6.80995 14.2498 6.50995C13.4698 6.26995 13.1998 6.02995 13.1998 5.51995C13.1998 5.09995 12.9598 4.79995 12.5398 4.67995C11.6398 4.43995 10.9498 4.43995 10.7098 4.70995ZM12.8998 10.8C13.2298 11.13 13.4998 11.52 13.4998 11.67C13.4998 12.36 13.0498 12.96 12.3898 13.23C10.8898 13.8 9.74976 12.3 10.6198 10.95C11.2198 10.05 12.0898 9.98995 12.8998 10.8Z" fill="white"/>
</svg>
