<svg width="24" height="24" viewBox="0 0 24 24" fill="none" xmlns="http://www.w3.org/2000/svg">
  <path d="M1.21174 2.21736C1.18844 2.28693 1.11854 2.3478 1.04863 2.3478C0.947663 2.3478 0.932129 2.53041 0.932129 3.60867C0.932129 4.30432 0.963197 4.86954 0.994265 4.86954C1.0331 4.86954 1.11854 5.00867 1.18844 5.18258C1.35155 5.55649 1.56902 5.55649 1.81757 5.19128C1.95737 4.97388 1.98067 4.81736 1.98067 4.03475V3.13041H2.74184C3.3865 3.13041 3.51854 3.10432 3.65058 2.95649C3.82145 2.76519 3.79038 2.59128 3.5496 2.27823C3.40203 2.09562 3.33213 2.08693 2.32242 2.08693C1.45252 2.08693 1.25058 2.11301 1.21174 2.21736Z" fill="white"/>
  <path d="M6.56318 5.93037C4.52823 5.99994 4.46609 6.00863 4.07774 6.22602C3.54959 6.53037 3.23114 6.89559 3.01366 7.42602C2.83502 7.86081 2.83502 7.93907 2.81172 11.0695C2.78842 14.0434 2.79619 14.313 2.94376 14.8782C3.1224 15.5999 3.38648 16.026 3.8059 16.2608C4.10104 16.426 4.27192 16.4347 9.24279 16.4347C12.8622 16.4347 14.369 16.4608 14.369 16.5304C14.369 16.7652 13.8875 18.1217 13.7088 18.3825C13.3826 18.8695 13.468 19.1304 13.9729 19.1304C14.2991 19.1304 14.6875 18.8608 15.3632 18.1738C15.837 17.6956 16.0389 17.426 16.1865 17.0434C16.3807 16.5738 16.404 16.5391 16.7146 16.4869C17.2739 16.3825 17.9884 15.7825 18.268 15.1825C18.4234 14.8434 18.4234 14.7217 18.3845 11.3565C18.3535 8.12167 18.3379 7.83472 18.1904 7.34776C18.0117 6.75646 17.6855 6.39124 17.0486 6.04341L16.6525 5.82602L15.1457 5.89559C14.3146 5.93037 13.2117 5.93907 12.6991 5.90428C11.503 5.82602 9.21949 5.83472 6.56318 5.93037ZM14.9205 8.43472C15.0991 8.54776 15.1146 8.80863 14.9515 8.95646C14.8661 9.03472 14.3302 9.09559 13.2583 9.13907C12.3962 9.18254 10.936 9.25211 10.0195 9.29559C9.10298 9.34776 7.7826 9.38254 7.09133 9.39124C5.86415 9.39124 5.83308 9.38254 5.77871 9.19994C5.73988 9.06081 5.77094 8.97385 5.88745 8.8695C6.07386 8.70428 7.40201 8.61733 9.93405 8.59994C10.7729 8.59994 11.9302 8.54776 12.5049 8.48689C13.8486 8.33907 14.7263 8.32167 14.9205 8.43472ZM15.0991 10.5217C15.1535 10.5825 15.1535 10.6869 15.0991 10.8434C15.0292 11.0695 14.9904 11.0869 14.6797 11.0608C14.4855 11.0434 14.0661 11.0782 13.7476 11.1217C13.4292 11.1738 12.7923 11.2782 12.3418 11.3478C11.8836 11.4173 11.0836 11.4782 10.5476 11.4782C10.0195 11.4782 9.31269 11.513 8.97094 11.5652C8.6292 11.6086 7.8292 11.6869 7.18454 11.7304C5.93405 11.8173 5.71658 11.7738 5.76318 11.4521C5.80201 11.1738 6.2991 11.0521 7.8059 10.9565C10.936 10.7652 11.9845 10.6782 13.0098 10.5217C14.0894 10.3565 14.9515 10.3565 15.0991 10.5217ZM14.9981 12.9565C15.0913 13.0173 15.1457 13.1391 15.1457 13.2956V13.5391L13.0719 13.5999C11.9224 13.6347 10.6797 13.6956 10.2913 13.7478C9.22726 13.8782 6.85056 14.0869 6.43114 14.0869C6.10493 14.0869 6.05832 14.0608 6.01172 13.8782C5.98842 13.7652 6.00395 13.5825 6.05832 13.4869C6.13599 13.313 6.19813 13.3043 7.44085 13.3043C8.15541 13.3043 8.86221 13.2608 9.00978 13.2086C9.15735 13.1652 10.1671 13.0869 11.2544 13.0434C12.3341 12.9999 13.2428 12.9478 13.2661 12.9217C13.3438 12.8347 14.8428 12.8695 14.9981 12.9565Z" fill="white"/>
  <path d="M19.8682 18.2347C19.6974 18.4521 19.6275 18.7391 19.5808 19.4347L19.5342 20.0434L18.6488 20.0869C17.8022 20.1304 17.7556 20.1391 17.608 20.3565C17.4372 20.626 17.4838 20.9043 17.7168 21.0521C17.8022 21.0956 18.408 21.1478 19.0682 21.1565C20.0935 21.1739 20.2876 21.1565 20.3964 21.026C20.5051 20.913 20.5284 20.6782 20.5362 19.6695C20.544 18.5826 20.5284 18.4347 20.3964 18.2695C20.2177 18.0434 20.0236 18.0347 19.8682 18.2347Z" fill="white"/>
</svg>
