<svg width="38" height="38" viewBox="0 0 38 38" fill="none" xmlns="http://www.w3.org/2000/svg">
  <mask id="path-1-outside-1_207_1379" maskUnits="userSpaceOnUse" x="0" y="0" width="38" height="38" fill="black">
    <rect fill="white" width="38" height="38"/>
    <path fill-rule="evenodd" clip-rule="evenodd" d="M19 35C27.8366 35 35 27.8366 35 19C35 10.1634 27.8366 3 19 3C10.1634 3 3 10.1634 3 19C3 27.8366 10.1634 35 19 35ZM31 16H7V22H31V16Z"/>
  </mask>
  <path fill-rule="evenodd" clip-rule="evenodd" d="M19 35C27.8366 35 35 27.8366 35 19C35 10.1634 27.8366 3 19 3C10.1634 3 3 10.1634 3 19C3 27.8366 10.1634 35 19 35ZM31 16H7V22H31V16Z" fill="#FF453A"/>
  <path d="M7 16V13H4V16H7ZM31 16H34V13H31V16ZM7 22H4V25H7V22ZM31 22V25H34V22H31ZM32 19C32 26.1797 26.1797 32 19 32V38C29.4934 38 38 29.4934 38 19H32ZM19 6C26.1797 6 32 11.8203 32 19H38C38 8.50659 29.4934 0 19 0V6ZM6 19C6 11.8203 11.8203 6 19 6V0C8.50659 0 0 8.50659 0 19H6ZM19 32C11.8203 32 6 26.1797 6 19H0C0 29.4934 8.50659 38 19 38V32ZM7 19H31V13H7V19ZM10 22V16H4V22H10ZM31 19H7V25H31V19ZM28 16V22H34V16H28Z" fill="#D6D6D6" fill-opacity="0.45" style="mix-blend-mode:color-burn" mask="url(#path-1-outside-1_207_1379)"/>
  <path d="M7 16V13H4V16H7ZM31 16H34V13H31V16ZM7 22H4V25H7V22ZM31 22V25H34V22H31ZM32 19C32 26.1797 26.1797 32 19 32V38C29.4934 38 38 29.4934 38 19H32ZM19 6C26.1797 6 32 11.8203 32 19H38C38 8.50659 29.4934 0 19 0V6ZM6 19C6 11.8203 11.8203 6 19 6V0C8.50659 0 0 8.50659 0 19H6ZM19 32C11.8203 32 6 26.1797 6 19H0C0 29.4934 8.50659 38 19 38V32ZM7 19H31V13H7V19ZM10 22V16H4V22H10ZM31 19H7V25H31V19ZM28 16V22H34V16H28Z" fill="black" fill-opacity="0.08" style="mix-blend-mode:luminosity" mask="url(#path-1-outside-1_207_1379)"/>
</svg>
