<svg width="38" height="38" viewBox="0 0 38 38" fill="none" xmlns="http://www.w3.org/2000/svg">
  <mask id="path-1-outside-1_207_1381" maskUnits="userSpaceOnUse" x="0" y="0" width="38" height="38" fill="black">
    <rect fill="white" width="38" height="38"/>
    <path fill-rule="evenodd" clip-rule="evenodd" d="M19 35C27.8366 35 35 27.8366 35 19C35 10.1634 27.8366 3 19 3C10.1634 3 3 10.1634 3 19C3 27.8366 10.1634 35 19 35ZM19 29C24.5228 29 29 24.5228 29 19C29 13.4772 24.5228 9 19 9C13.4772 9 9 13.4772 9 19C9 24.5228 13.4772 29 19 29Z"/>
  </mask>
  <path fill-rule="evenodd" clip-rule="evenodd" d="M19 35C27.8366 35 35 27.8366 35 19C35 10.1634 27.8366 3 19 3C10.1634 3 3 10.1634 3 19C3 27.8366 10.1634 35 19 35ZM19 29C24.5228 29 29 24.5228 29 19C29 13.4772 24.5228 9 19 9C13.4772 9 9 13.4772 9 19C9 24.5228 13.4772 29 19 29Z" fill="#9E9E9E"/>
  <path d="M32 19C32 26.1797 26.1797 32 19 32V38C29.4934 38 38 29.4934 38 19H32ZM19 6C26.1797 6 32 11.8203 32 19H38C38 8.50659 29.4934 0 19 0V6ZM6 19C6 11.8203 11.8203 6 19 6V0C8.50659 0 0 8.50659 0 19H6ZM19 32C11.8203 32 6 26.1797 6 19H0C0 29.4934 8.50659 38 19 38V32ZM26 19C26 22.866 22.866 26 19 26V32C26.1797 32 32 26.1797 32 19H26ZM19 12C22.866 12 26 15.134 26 19H32C32 11.8203 26.1797 6 19 6V12ZM12 19C12 15.134 15.134 12 19 12V6C11.8203 6 6 11.8203 6 19H12ZM19 26C15.134 26 12 22.866 12 19H6C6 26.1797 11.8203 32 19 32V26Z" fill="#D6D6D6" fill-opacity="0.45" style="mix-blend-mode:color-burn" mask="url(#path-1-outside-1_207_1381)"/>
  <path d="M32 19C32 26.1797 26.1797 32 19 32V38C29.4934 38 38 29.4934 38 19H32ZM19 6C26.1797 6 32 11.8203 32 19H38C38 8.50659 29.4934 0 19 0V6ZM6 19C6 11.8203 11.8203 6 19 6V0C8.50659 0 0 8.50659 0 19H6ZM19 32C11.8203 32 6 26.1797 6 19H0C0 29.4934 8.50659 38 19 38V32ZM26 19C26 22.866 22.866 26 19 26V32C26.1797 32 32 26.1797 32 19H26ZM19 12C22.866 12 26 15.134 26 19H32C32 11.8203 26.1797 6 19 6V12ZM12 19C12 15.134 15.134 12 19 12V6C11.8203 6 6 11.8203 6 19H12ZM19 26C15.134 26 12 22.866 12 19H6C6 26.1797 11.8203 32 19 32V26Z" fill="black" fill-opacity="0.08" style="mix-blend-mode:luminosity" mask="url(#path-1-outside-1_207_1381)"/>
</svg>
