<svg width="38" height="38" viewBox="0 0 38 38" fill="none" xmlns="http://www.w3.org/2000/svg">
  <path d="M35 19C35 27.8366 27.8366 35 19 35C10.1634 35 3 27.8366 3 19C3 10.1634 10.1634 3 19 3C27.8366 3 35 10.1634 35 19Z" fill="#32D74B"/>
  <path d="M19 36.5C28.665 36.5 36.5 28.665 36.5 19C36.5 9.33502 28.665 1.5 19 1.5C9.33502 1.5 1.5 9.33502 1.5 19C1.5 28.665 9.33502 36.5 19 36.5Z" stroke="#D6D6D6" stroke-opacity="0.45" stroke-width="3" stroke-linecap="round" style="mix-blend-mode:color-burn"/>
  <path d="M19 36.5C28.665 36.5 36.5 28.665 36.5 19C36.5 9.33502 28.665 1.5 19 1.5C9.33502 1.5 1.5 9.33502 1.5 19C1.5 28.665 9.33502 36.5 19 36.5Z" stroke="black" stroke-opacity="0.08" stroke-width="3" stroke-linecap="round" style="mix-blend-mode:luminosity"/>
</svg>
