<svg width="100" height="100" viewBox="0 0 100 100" fill="none" xmlns="http://www.w3.org/2000/svg">
  <path d="M77.1084 36.0351C74.2972 36.0351 71.8693 37.7328 69.8248 41.1282C67.8167 44.5601 66.8127 47.5356 66.8127 50.0548C66.8127 59.3647 70.2446 64.0197 77.1084 64.0197H100V99.5619H63.5816V76.6703C63.5816 69.8065 58.7441 66.3746 49.069 66.3746C45.9657 66.3746 42.8441 67.4699 39.7043 69.6605C36.601 71.851 35.0493 74.1877 35.0493 76.6703V99.5619H0V64.0197H22.4535C29.6093 64.0197 33.1873 59.3647 33.1873 50.0548C33.1873 46.6229 32.092 43.4283 29.9014 40.471C27.7474 37.5137 25.2647 36.0351 22.4535 36.0351H0V0H35.0493V22.9463C35.0493 26.0497 36.601 28.6053 39.7043 30.6134C42.8441 32.6579 45.9657 33.6802 49.069 33.6802C58.7441 33.6802 63.5816 30.1022 63.5816 22.9463V0H100V36.0351H77.1084Z" fill="black"/>
</svg>
